<?xml version="1.0" encoding="UTF-8" standalone="no"?>
<!-- Created with Inkscape (http://www.inkscape.org/) -->

<svg
   width="600"
   height="300"
   viewBox="0 0 158.75 79.375"
   version="1.1"
   id="svg5"
   inkscape:version="1.2 (dc2aeda, 2022-05-15)"
   sodipodi:docname="posts_slider.svg"
   xmlns:inkscape="http://www.inkscape.org/namespaces/inkscape"
   xmlns:sodipodi="http://sodipodi.sourceforge.net/DTD/sodipodi-0.dtd"
   xmlns="http://www.w3.org/2000/svg"
   xmlns:svg="http://www.w3.org/2000/svg">
  <sodipodi:namedview
     id="namedview7"
     pagecolor="#505050"
     bordercolor="#eeeeee"
     borderopacity="1"
     inkscape:showpageshadow="0"
     inkscape:pageopacity="0"
     inkscape:pagecheckerboard="0"
     inkscape:deskcolor="#505050"
     inkscape:document-units="mm"
     showgrid="false"
     inkscape:zoom="1.8817272"
     inkscape:cx="225.59062"
     inkscape:cy="290.42467"
     inkscape:window-width="2560"
     inkscape:window-height="1387"
     inkscape:window-x="0"
     inkscape:window-y="25"
     inkscape:window-maximized="0"
     inkscape:current-layer="layer1" />
  <defs
     id="defs2" />
  <g
     inkscape:label="bg"
     inkscape:groupmode="layer"
     id="layer1">
    <rect
       style="fill:#ffffff;stroke:#222d32;stroke-width:0;stroke-linejoin:round;stroke-dasharray:none"
       id="rect3693"
       width="158.8087"
       height="79.375"
       x="-0.029350281"
       y="-6.21031e-15" />
  </g>
  <g
     inkscape:groupmode="layer"
     id="layer2"
     inkscape:label="slider"
     style="display:none">
    <g
       inkscape:groupmode="layer"
       id="layer8"
       inkscape:label="image">
      <rect
         style="display:inline;fill:#cccccc;stroke:#000000;stroke-width:0"
         id="rect1330"
         width="148.16667"
         height="68.791664"
         x="5.291667"
         y="5.2916679" />
      <path
         d="M 85.989579,33.072916 H 72.76042 a 1.2026515,1.2026515 0 0 0 -1.202659,1.202653 v 10.823862 a 1.2026515,1.2026515 0 0 0 1.202659,1.202652 h 13.229159 a 1.2026515,1.2026515 0 0 0 1.20266,-1.202652 V 34.275569 a 1.2026515,1.2026515 0 0 0 -1.20266,-1.202653 z m 0,1.202653 v 7.723276 l -1.95957,-1.958818 a 1.2026515,1.2026515 0 0 0 -1.700999,0 l -1.503317,1.503313 -3.307296,-3.30729 a 1.2026515,1.2026515 0 0 0 -1.70025,0 l -3.057727,3.05774 v -7.018221 z m -13.229159,8.719221 3.908612,-3.908618 6.013251,6.013259 H 72.76042 Z m 13.229159,2.104641 h -1.606295 l -2.705956,-2.705966 1.503318,-1.503313 2.808933,2.809693 z m -5.411931,-7.516572 a 0.90198862,0.90198862 0 1 1 0.901998,0.901988 0.90198862,0.90198862 0 0 1 -0.901998,-0.901988 z"
         id="path3990"
         style="display:inline;stroke-width:0.0751655"
         inkscape:label="image" />
    </g>
    <path
       d="M 13.229163,37.041667 A 2.6458333,2.6458333 0 1 0 15.875,39.687501 2.6486318,2.6486318 0 0 0 13.229163,37.041667 Z m 0,4.884616 a 2.2387821,2.2387821 0 1 1 2.238783,-2.238782 2.2413261,2.2413261 0 0 1 -2.238783,2.238782 z m 1.221154,-2.238782 a 0.20352564,0.20352564 0 0 1 -0.203523,0.203525 h -1.543992 l 0.46683,0.466582 a 0.20363882,0.20363882 0 0 1 -0.287984,0.287989 L 12.06754,39.831494 a 0.20352564,0.20352564 0 0 1 0,-0.287988 l 0.814108,-0.814102 a 0.20363882,0.20363882 0 0 1 0.287984,0.287988 l -0.46683,0.466582 h 1.543992 a 0.20352564,0.20352564 0 0 1 0.203523,0.203527 z"
       id="path3832-5"
       style="stroke-width:0.0254407"
       inkscape:label="left" />
    <path
       d="m 145.52084,42.333333 a 2.6458333,2.6458333 0 1 0 -2.64584,-2.64583 2.6486318,2.6486318 0 0 0 2.64584,2.64583 z m 0,-4.884615 a 2.2387821,2.2387821 0 1 1 -2.23879,2.238785 2.2413261,2.2413261 0 0 1 2.23879,-2.238785 z m -1.22116,2.238785 a 0.20352564,0.20352564 0 0 1 0.20353,-0.203531 h 1.54399 l -0.46683,-0.466577 a 0.20363882,0.20363882 0 0 1 0.28798,-0.287992 l 0.81411,0.8141 a 0.20352564,0.20352564 0 0 1 0,0.287992 l -0.81411,0.8141 a 0.20363882,0.20363882 0 0 1 -0.28798,-0.287985 l 0.46683,-0.466584 h -1.54399 a 0.20352564,0.20352564 0 0 1 -0.20353,-0.203523 z"
       id="path3832"
       style="stroke-width:0.0254407"
       inkscape:label="right" />
    <g
       inkscape:groupmode="layer"
       id="layer3"
       inkscape:label="dots">
      <circle
         style="fill:none;stroke:#000000;stroke-width:0.082553;stroke-linejoin:miter;stroke-dasharray:none;stroke-opacity:1"
         id="path4201"
         cx="78.845833"
         cy="70.776039"
         r="0.62018186" />
      <circle
         style="fill:#000000;stroke:#000000;stroke-width:0.082553;stroke-linejoin:miter;stroke-dasharray:none;stroke-opacity:1"
         id="circle4206"
         cx="76.199997"
         cy="70.776039"
         r="0.62018186" />
      <circle
         style="fill:none;stroke:#000000;stroke-width:0.082553;stroke-linejoin:miter;stroke-dasharray:none;stroke-opacity:1"
         id="circle4208"
         cx="81.491669"
         cy="70.776039"
         r="0.62018186" />
    </g>
  </g>
  <g
     inkscape:groupmode="layer"
     id="g4478"
     inkscape:label="posts_slider"
     style="display:inline">
    <path
       d="M 13.229163,37.041667 A 2.6458333,2.6458333 0 1 0 15.875,39.687501 2.6486318,2.6486318 0 0 0 13.229163,37.041667 Z m 0,4.884616 a 2.2387821,2.2387821 0 1 1 2.238783,-2.238782 2.2413261,2.2413261 0 0 1 -2.238783,2.238782 z m 1.221154,-2.238782 a 0.20352564,0.20352564 0 0 1 -0.203523,0.203525 h -1.543992 l 0.46683,0.466582 a 0.20363882,0.20363882 0 0 1 -0.287984,0.287989 L 12.06754,39.831494 a 0.20352564,0.20352564 0 0 1 0,-0.287988 l 0.814108,-0.814102 a 0.20363882,0.20363882 0 0 1 0.287984,0.287988 l -0.46683,0.466582 h 1.543992 a 0.20352564,0.20352564 0 0 1 0.203523,0.203527 z"
       id="path4466"
       style="display:none;stroke-width:0.0254407"
       inkscape:label="left" />
    <path
       d="m 145.52084,42.333333 a 2.6458333,2.6458333 0 1 0 -2.64584,-2.64583 2.6486318,2.6486318 0 0 0 2.64584,2.64583 z m 0,-4.884615 a 2.2387821,2.2387821 0 1 1 -2.23879,2.238785 2.2413261,2.2413261 0 0 1 2.23879,-2.238785 z m -1.22116,2.238785 a 0.20352564,0.20352564 0 0 1 0.20353,-0.203531 h 1.54399 l -0.46683,-0.466577 a 0.20363882,0.20363882 0 0 1 0.28798,-0.287992 l 0.81411,0.8141 a 0.20352564,0.20352564 0 0 1 0,0.287992 l -0.81411,0.8141 a 0.20363882,0.20363882 0 0 1 -0.28798,-0.287985 l 0.46683,-0.466584 h -1.54399 a 0.20352564,0.20352564 0 0 1 -0.20353,-0.203523 z"
       id="path4468"
       style="display:none;stroke-width:0.0254407"
       inkscape:label="right" />
    <g
       inkscape:groupmode="layer"
       id="g4476"
       inkscape:label="dots"
       transform="translate(0,2.6458359)">
      <circle
         style="fill:none;stroke:#000000;stroke-width:0.082553;stroke-linejoin:miter;stroke-dasharray:none;stroke-opacity:1"
         id="circle4470"
         cx="78.845833"
         cy="70.776039"
         r="0.62018186" />
      <circle
         style="fill:#000000;stroke:#000000;stroke-width:0.082553;stroke-linejoin:miter;stroke-dasharray:none;stroke-opacity:1"
         id="circle4472"
         cx="76.199997"
         cy="70.776039"
         r="0.62018186" />
      <circle
         style="fill:none;stroke:#000000;stroke-width:0.082553;stroke-linejoin:miter;stroke-dasharray:none;stroke-opacity:1"
         id="circle4474"
         cx="81.491669"
         cy="70.776039"
         r="0.62018186" />
    </g>
    <g
       inkscape:groupmode="layer"
       id="layer9"
       inkscape:label="post"
       transform="translate(0,19.976051)">
      <g
         inkscape:groupmode="layer"
         id="g4464"
         inkscape:label="image"
         style="display:inline">
        <rect
           style="display:inline;fill:#cccccc;stroke:#000000;stroke-width:0"
           id="rect4460"
           width="33.072914"
           height="23.623508"
           x="5.291667"
           y="5e-07" />
        <path
           d="m 24.473956,9.1659212 h -5.291664 a 0.48106059,0.48106059 0 0 0 -0.481063,0.481061 v 4.3295448 a 0.48106059,0.48106059 0 0 0 0.481063,0.481061 h 5.291664 A 0.48106059,0.48106059 0 0 0 24.95502,13.976527 V 9.6469822 a 0.48106059,0.48106059 0 0 0 -0.481064,-0.481061 z m 0,0.481061 v 3.0893088 l -0.783828,-0.783527 a 0.48106059,0.48106059 0 0 0 -0.6804,0 l -0.601326,0.601326 -1.322918,-1.322916 a 0.48106059,0.48106059 0 0 0 -0.6801,0 L 19.182292,12.45427 V 9.6469822 Z m -5.291664,3.4876868 1.563446,-1.563445 2.4053,2.405303 h -3.968746 z m 5.291664,0.841857 h -0.642518 l -1.082382,-1.082387 0.601327,-0.601325 1.123573,1.123877 z m -2.164772,-3.006628 a 0.36079544,0.36079544 0 1 1 0.360799,0.360796 0.36079544,0.36079544 0 0 1 -0.360799,-0.360796 z"
           id="path4462"
           style="display:inline;stroke-width:0.0300662"
           inkscape:label="image" />
      </g>
      <g
         inkscape:groupmode="layer"
         id="g4547"
         inkscape:label="text"
         style="display:inline"
         transform="translate(-41.010415,47.625)">
        <g
           inkscape:groupmode="layer"
           id="g4511"
           inkscape:label="heading">
          <rect
             style="fill:#000000;stroke:#000000;stroke-width:0"
             id="rect4509"
             width="26.458332"
             height="1.8520806"
             x="46.302082"
             y="-21.166666" />
        </g>
        <g
           inkscape:groupmode="layer"
           id="g4545"
           inkscape:label="text">
          <rect
             style="fill:#cccccc;stroke:#000000;stroke-width:0"
             id="rect4513"
             width="33.072914"
             height="1.8520646"
             x="46.302082"
             y="-17.4625" />
          <rect
             style="fill:#cccccc;stroke:#000000;stroke-width:0"
             id="rect4515"
             width="30.427082"
             height="1.8520818"
             x="46.302082"
             y="-13.758333" />
          <rect
             style="fill:#cccccc;stroke:#000000;stroke-width:0"
             id="rect4517"
             width="23.8125"
             height="1.8520647"
             x="46.302082"
             y="-10.054167" />
        </g>
      </g>
    </g>
    <g
       inkscape:groupmode="layer"
       id="g4590"
       inkscape:label="post 2"
       transform="translate(38.364584,19.976051)">
      <g
         inkscape:groupmode="layer"
         id="g4574"
         inkscape:label="image"
         style="display:inline">
        <rect
           style="display:inline;fill:#cccccc;stroke:#000000;stroke-width:0"
           id="rect4570"
           width="33.072914"
           height="23.623508"
           x="5.291667"
           y="5e-07" />
        <path
           d="m 24.473956,9.1659212 h -5.291664 a 0.48106059,0.48106059 0 0 0 -0.481063,0.481061 v 4.3295448 a 0.48106059,0.48106059 0 0 0 0.481063,0.481061 h 5.291664 A 0.48106059,0.48106059 0 0 0 24.95502,13.976527 V 9.6469822 a 0.48106059,0.48106059 0 0 0 -0.481064,-0.481061 z m 0,0.481061 v 3.0893088 l -0.783828,-0.783527 a 0.48106059,0.48106059 0 0 0 -0.6804,0 l -0.601326,0.601326 -1.322918,-1.322916 a 0.48106059,0.48106059 0 0 0 -0.6801,0 L 19.182292,12.45427 V 9.6469822 Z m -5.291664,3.4876868 1.563446,-1.563445 2.4053,2.405303 h -3.968746 z m 5.291664,0.841857 h -0.642518 l -1.082382,-1.082387 0.601327,-0.601325 1.123573,1.123877 z m -2.164772,-3.006628 a 0.36079544,0.36079544 0 1 1 0.360799,0.360796 0.36079544,0.36079544 0 0 1 -0.360799,-0.360796 z"
           id="path4572"
           style="display:inline;stroke-width:0.0300662"
           inkscape:label="image" />
      </g>
      <g
         inkscape:groupmode="layer"
         id="g4588"
         inkscape:label="text"
         style="display:inline"
         transform="translate(-41.010415,47.625)">
        <g
           inkscape:groupmode="layer"
           id="g4578"
           inkscape:label="heading">
          <rect
             style="fill:#000000;stroke:#000000;stroke-width:0"
             id="rect4576"
             width="26.458332"
             height="1.8520806"
             x="46.302082"
             y="-21.166666" />
        </g>
        <g
           inkscape:groupmode="layer"
           id="g4586"
           inkscape:label="text">
          <rect
             style="fill:#cccccc;stroke:#000000;stroke-width:0"
             id="rect4580"
             width="33.072914"
             height="1.8520646"
             x="46.302082"
             y="-17.4625" />
          <rect
             style="fill:#cccccc;stroke:#000000;stroke-width:0"
             id="rect4582"
             width="30.427082"
             height="1.8520818"
             x="46.302082"
             y="-13.758333" />
          <rect
             style="fill:#cccccc;stroke:#000000;stroke-width:0"
             id="rect4584"
             width="23.8125"
             height="1.8520647"
             x="46.302082"
             y="-10.054167" />
        </g>
      </g>
    </g>
    <g
       inkscape:groupmode="layer"
       id="g4612"
       inkscape:label="post 3"
       transform="translate(76.729167,19.976051)">
      <g
         inkscape:groupmode="layer"
         id="g4596"
         inkscape:label="image"
         style="display:inline">
        <rect
           style="display:inline;fill:#cccccc;stroke:#000000;stroke-width:0"
           id="rect4592"
           width="33.072914"
           height="23.623508"
           x="5.291667"
           y="5e-07" />
        <path
           d="m 24.473956,9.1659212 h -5.291664 a 0.48106059,0.48106059 0 0 0 -0.481063,0.481061 v 4.3295448 a 0.48106059,0.48106059 0 0 0 0.481063,0.481061 h 5.291664 A 0.48106059,0.48106059 0 0 0 24.95502,13.976527 V 9.6469822 a 0.48106059,0.48106059 0 0 0 -0.481064,-0.481061 z m 0,0.481061 v 3.0893088 l -0.783828,-0.783527 a 0.48106059,0.48106059 0 0 0 -0.6804,0 l -0.601326,0.601326 -1.322918,-1.322916 a 0.48106059,0.48106059 0 0 0 -0.6801,0 L 19.182292,12.45427 V 9.6469822 Z m -5.291664,3.4876868 1.563446,-1.563445 2.4053,2.405303 h -3.968746 z m 5.291664,0.841857 h -0.642518 l -1.082382,-1.082387 0.601327,-0.601325 1.123573,1.123877 z m -2.164772,-3.006628 a 0.36079544,0.36079544 0 1 1 0.360799,0.360796 0.36079544,0.36079544 0 0 1 -0.360799,-0.360796 z"
           id="path4594"
           style="display:inline;stroke-width:0.0300662"
           inkscape:label="image" />
      </g>
      <g
         inkscape:groupmode="layer"
         id="g4610"
         inkscape:label="text"
         style="display:inline"
         transform="translate(-41.010415,47.625)">
        <g
           inkscape:groupmode="layer"
           id="g4600"
           inkscape:label="heading">
          <rect
             style="fill:#000000;stroke:#000000;stroke-width:0"
             id="rect4598"
             width="26.458332"
             height="1.8520806"
             x="46.302082"
             y="-21.166666" />
        </g>
        <g
           inkscape:groupmode="layer"
           id="g4608"
           inkscape:label="text">
          <rect
             style="fill:#cccccc;stroke:#000000;stroke-width:0"
             id="rect4602"
             width="33.072914"
             height="1.8520646"
             x="46.302082"
             y="-17.4625" />
          <rect
             style="fill:#cccccc;stroke:#000000;stroke-width:0"
             id="rect4604"
             width="30.427082"
             height="1.8520818"
             x="46.302082"
             y="-13.758333" />
          <rect
             style="fill:#cccccc;stroke:#000000;stroke-width:0"
             id="rect4606"
             width="23.8125"
             height="1.8520647"
             x="46.302082"
             y="-10.054167" />
        </g>
      </g>
    </g>
    <g
       inkscape:groupmode="layer"
       id="g4634"
       inkscape:label="post 4"
       transform="translate(115.09375,19.976051)">
      <g
         inkscape:groupmode="layer"
         id="g4618"
         inkscape:label="image"
         style="display:inline">
        <rect
           style="display:inline;fill:#cccccc;stroke:#000000;stroke-width:0"
           id="rect4614"
           width="33.072914"
           height="23.623508"
           x="5.291667"
           y="5e-07" />
        <path
           d="m 24.473956,9.1659212 h -5.291664 a 0.48106059,0.48106059 0 0 0 -0.481063,0.481061 v 4.3295448 a 0.48106059,0.48106059 0 0 0 0.481063,0.481061 h 5.291664 A 0.48106059,0.48106059 0 0 0 24.95502,13.976527 V 9.6469822 a 0.48106059,0.48106059 0 0 0 -0.481064,-0.481061 z m 0,0.481061 v 3.0893088 l -0.783828,-0.783527 a 0.48106059,0.48106059 0 0 0 -0.6804,0 l -0.601326,0.601326 -1.322918,-1.322916 a 0.48106059,0.48106059 0 0 0 -0.6801,0 L 19.182292,12.45427 V 9.6469822 Z m -5.291664,3.4876868 1.563446,-1.563445 2.4053,2.405303 h -3.968746 z m 5.291664,0.841857 h -0.642518 l -1.082382,-1.082387 0.601327,-0.601325 1.123573,1.123877 z m -2.164772,-3.006628 a 0.36079544,0.36079544 0 1 1 0.360799,0.360796 0.36079544,0.36079544 0 0 1 -0.360799,-0.360796 z"
           id="path4616"
           style="display:inline;stroke-width:0.0300662"
           inkscape:label="image" />
      </g>
      <g
         inkscape:groupmode="layer"
         id="g4632"
         inkscape:label="text"
         style="display:inline"
         transform="translate(-41.010415,47.625)">
        <g
           inkscape:groupmode="layer"
           id="g4622"
           inkscape:label="heading">
          <rect
             style="fill:#000000;stroke:#000000;stroke-width:0"
             id="rect4620"
             width="26.458332"
             height="1.8520806"
             x="46.302082"
             y="-21.166666" />
        </g>
        <g
           inkscape:groupmode="layer"
           id="g4630"
           inkscape:label="text">
          <rect
             style="fill:#cccccc;stroke:#000000;stroke-width:0"
             id="rect4624"
             width="33.072914"
             height="1.8520646"
             x="46.302082"
             y="-17.4625" />
          <rect
             style="fill:#cccccc;stroke:#000000;stroke-width:0"
             id="rect4626"
             width="30.427082"
             height="1.8520818"
             x="46.302082"
             y="-13.758333" />
          <rect
             style="fill:#cccccc;stroke:#000000;stroke-width:0"
             id="rect4628"
             width="23.8125"
             height="1.8520647"
             x="46.302082"
             y="-10.054167" />
        </g>
      </g>
    </g>
  </g>
  <g
     inkscape:groupmode="layer"
     id="g5013"
     inkscape:label="posts"
     style="display:none"
     transform="translate(0,-14.684384)">
    <g
       inkscape:groupmode="layer"
       id="layer10"
       inkscape:label="row">
      <g
         inkscape:groupmode="layer"
         id="g4945"
         inkscape:label="post"
         transform="translate(0,19.976051)"
         style="display:inline">
        <g
           inkscape:groupmode="layer"
           id="g4929"
           inkscape:label="image"
           style="display:inline">
          <rect
             style="display:inline;fill:#cccccc;stroke:#000000;stroke-width:0"
             id="rect4925"
             width="33.072914"
             height="22.489582"
             x="5.291667"
             y="4.9110145e-07" />
          <path
             d="m 24.473956,9.9218751 h -5.291664 a 0.48106059,0.48106059 0 0 0 -0.481063,0.4810609 v 4.329545 a 0.48106059,0.48106059 0 0 0 0.481063,0.481061 h 5.291664 A 0.48106059,0.48106059 0 0 0 24.95502,14.732481 V 10.402936 A 0.48106059,0.48106059 0 0 0 24.473956,9.9218751 Z m 0,0.4810609 v 3.089309 l -0.783828,-0.783527 a 0.48106059,0.48106059 0 0 0 -0.6804,0 l -0.601326,0.601326 -1.322918,-1.322916 a 0.48106059,0.48106059 0 0 0 -0.6801,0 l -1.223092,1.223096 v -2.807288 z m -5.291664,3.487687 1.563446,-1.563445 2.4053,2.405303 h -3.968746 z m 5.291664,0.841857 h -0.642518 l -1.082382,-1.082387 0.601327,-0.601325 1.123573,1.123877 z m -2.164772,-3.006628 a 0.36079544,0.36079544 0 1 1 0.360799,0.360796 0.36079544,0.36079544 0 0 1 -0.360799,-0.360796 z"
             id="path4927"
             style="display:inline;stroke-width:0.0300662"
             inkscape:label="image" />
        </g>
        <g
           inkscape:groupmode="layer"
           id="g4943"
           inkscape:label="text"
           style="display:inline"
           transform="translate(-41.010415,48.947917)">
          <g
             inkscape:groupmode="layer"
             id="g4933"
             inkscape:label="heading">
            <rect
               style="fill:#000000;stroke:#000000;stroke-width:0"
               id="rect4931"
               width="26.458332"
               height="1.3229158"
               x="46.302082"
               y="-23.8125" />
          </g>
          <g
             inkscape:groupmode="layer"
             id="g4941"
             inkscape:label="text">
            <rect
               style="fill:#cccccc;stroke:#000000;stroke-width:0"
               id="rect4935"
               width="33.072914"
               height="1.3229158"
               x="46.302082"
               y="-21.166666" />
            <rect
               style="fill:#cccccc;stroke:#000000;stroke-width:0"
               id="rect5151"
               width="30.427082"
               height="1.3229158"
               x="46.302082"
               y="-18.520834" />
          </g>
        </g>
      </g>
      <g
         inkscape:groupmode="layer"
         id="g5237"
         inkscape:label="post 2"
         transform="translate(38.364584,19.976051)"
         style="display:inline">
        <g
           inkscape:groupmode="layer"
           id="g5223"
           inkscape:label="image"
           style="display:inline">
          <rect
             style="display:inline;fill:#cccccc;stroke:#000000;stroke-width:0"
             id="rect5219"
             width="33.072914"
             height="22.489582"
             x="5.291667"
             y="4.9110145e-07" />
          <path
             d="m 24.473956,9.9218751 h -5.291664 a 0.48106059,0.48106059 0 0 0 -0.481063,0.4810609 v 4.329545 a 0.48106059,0.48106059 0 0 0 0.481063,0.481061 h 5.291664 A 0.48106059,0.48106059 0 0 0 24.95502,14.732481 V 10.402936 A 0.48106059,0.48106059 0 0 0 24.473956,9.9218751 Z m 0,0.4810609 v 3.089309 l -0.783828,-0.783527 a 0.48106059,0.48106059 0 0 0 -0.6804,0 l -0.601326,0.601326 -1.322918,-1.322916 a 0.48106059,0.48106059 0 0 0 -0.6801,0 l -1.223092,1.223096 v -2.807288 z m -5.291664,3.487687 1.563446,-1.563445 2.4053,2.405303 h -3.968746 z m 5.291664,0.841857 h -0.642518 l -1.082382,-1.082387 0.601327,-0.601325 1.123573,1.123877 z m -2.164772,-3.006628 a 0.36079544,0.36079544 0 1 1 0.360799,0.360796 0.36079544,0.36079544 0 0 1 -0.360799,-0.360796 z"
             id="path5221"
             style="display:inline;stroke-width:0.0300662"
             inkscape:label="image" />
        </g>
        <g
           inkscape:groupmode="layer"
           id="g5235"
           inkscape:label="text"
           style="display:inline"
           transform="translate(-41.010415,48.947917)">
          <g
             inkscape:groupmode="layer"
             id="g5227"
             inkscape:label="heading">
            <rect
               style="fill:#000000;stroke:#000000;stroke-width:0"
               id="rect5225"
               width="26.458332"
               height="1.3229158"
               x="46.302082"
               y="-23.8125" />
          </g>
          <g
             inkscape:groupmode="layer"
             id="g5233"
             inkscape:label="text">
            <rect
               style="fill:#cccccc;stroke:#000000;stroke-width:0"
               id="rect5229"
               width="33.072914"
               height="1.3229158"
               x="46.302082"
               y="-21.166666" />
            <rect
               style="fill:#cccccc;stroke:#000000;stroke-width:0"
               id="rect5231"
               width="30.427082"
               height="1.3229158"
               x="46.302082"
               y="-18.520834" />
          </g>
        </g>
      </g>
      <g
         inkscape:groupmode="layer"
         id="g5257"
         inkscape:label="post 3"
         transform="translate(76.729167,19.976051)"
         style="display:inline">
        <g
           inkscape:groupmode="layer"
           id="g5243"
           inkscape:label="image"
           style="display:inline">
          <rect
             style="display:inline;fill:#cccccc;stroke:#000000;stroke-width:0"
             id="rect5239"
             width="33.072914"
             height="22.489582"
             x="5.291667"
             y="4.9110145e-07" />
          <path
             d="m 24.473956,9.9218751 h -5.291664 a 0.48106059,0.48106059 0 0 0 -0.481063,0.4810609 v 4.329545 a 0.48106059,0.48106059 0 0 0 0.481063,0.481061 h 5.291664 A 0.48106059,0.48106059 0 0 0 24.95502,14.732481 V 10.402936 A 0.48106059,0.48106059 0 0 0 24.473956,9.9218751 Z m 0,0.4810609 v 3.089309 l -0.783828,-0.783527 a 0.48106059,0.48106059 0 0 0 -0.6804,0 l -0.601326,0.601326 -1.322918,-1.322916 a 0.48106059,0.48106059 0 0 0 -0.6801,0 l -1.223092,1.223096 v -2.807288 z m -5.291664,3.487687 1.563446,-1.563445 2.4053,2.405303 h -3.968746 z m 5.291664,0.841857 h -0.642518 l -1.082382,-1.082387 0.601327,-0.601325 1.123573,1.123877 z m -2.164772,-3.006628 a 0.36079544,0.36079544 0 1 1 0.360799,0.360796 0.36079544,0.36079544 0 0 1 -0.360799,-0.360796 z"
             id="path5241"
             style="display:inline;stroke-width:0.0300662"
             inkscape:label="image" />
        </g>
        <g
           inkscape:groupmode="layer"
           id="g5255"
           inkscape:label="text"
           style="display:inline"
           transform="translate(-41.010415,48.947917)">
          <g
             inkscape:groupmode="layer"
             id="g5247"
             inkscape:label="heading">
            <rect
               style="fill:#000000;stroke:#000000;stroke-width:0"
               id="rect5245"
               width="26.458332"
               height="1.3229158"
               x="46.302082"
               y="-23.8125" />
          </g>
          <g
             inkscape:groupmode="layer"
             id="g5253"
             inkscape:label="text">
            <rect
               style="fill:#cccccc;stroke:#000000;stroke-width:0"
               id="rect5249"
               width="33.072914"
               height="1.3229158"
               x="46.302082"
               y="-21.166666" />
            <rect
               style="fill:#cccccc;stroke:#000000;stroke-width:0"
               id="rect5251"
               width="30.427082"
               height="1.3229158"
               x="46.302082"
               y="-18.520834" />
          </g>
        </g>
      </g>
      <g
         inkscape:groupmode="layer"
         id="g5277"
         inkscape:label="post 4"
         transform="translate(115.09375,19.976051)"
         style="display:inline">
        <g
           inkscape:groupmode="layer"
           id="g5263"
           inkscape:label="image"
           style="display:inline">
          <rect
             style="display:inline;fill:#cccccc;stroke:#000000;stroke-width:0"
             id="rect5259"
             width="33.072914"
             height="22.489582"
             x="5.291667"
             y="4.9110145e-07" />
          <path
             d="m 24.473956,9.9218751 h -5.291664 a 0.48106059,0.48106059 0 0 0 -0.481063,0.4810609 v 4.329545 a 0.48106059,0.48106059 0 0 0 0.481063,0.481061 h 5.291664 A 0.48106059,0.48106059 0 0 0 24.95502,14.732481 V 10.402936 A 0.48106059,0.48106059 0 0 0 24.473956,9.9218751 Z m 0,0.4810609 v 3.089309 l -0.783828,-0.783527 a 0.48106059,0.48106059 0 0 0 -0.6804,0 l -0.601326,0.601326 -1.322918,-1.322916 a 0.48106059,0.48106059 0 0 0 -0.6801,0 l -1.223092,1.223096 v -2.807288 z m -5.291664,3.487687 1.563446,-1.563445 2.4053,2.405303 h -3.968746 z m 5.291664,0.841857 h -0.642518 l -1.082382,-1.082387 0.601327,-0.601325 1.123573,1.123877 z m -2.164772,-3.006628 a 0.36079544,0.36079544 0 1 1 0.360799,0.360796 0.36079544,0.36079544 0 0 1 -0.360799,-0.360796 z"
             id="path5261"
             style="display:inline;stroke-width:0.0300662"
             inkscape:label="image" />
        </g>
        <g
           inkscape:groupmode="layer"
           id="g5275"
           inkscape:label="text"
           style="display:inline"
           transform="translate(-41.010415,48.947917)">
          <g
             inkscape:groupmode="layer"
             id="g5267"
             inkscape:label="heading">
            <rect
               style="fill:#000000;stroke:#000000;stroke-width:0"
               id="rect5265"
               width="26.458332"
               height="1.3229158"
               x="46.302082"
               y="-23.8125" />
          </g>
          <g
             inkscape:groupmode="layer"
             id="g5273"
             inkscape:label="text">
            <rect
               style="fill:#cccccc;stroke:#000000;stroke-width:0"
               id="rect5269"
               width="33.072914"
               height="1.3229158"
               x="46.302082"
               y="-21.166666" />
            <rect
               style="fill:#cccccc;stroke:#000000;stroke-width:0"
               id="rect5271"
               width="30.427082"
               height="1.3229158"
               x="46.302082"
               y="-18.520834" />
          </g>
        </g>
      </g>
    </g>
    <g
       inkscape:groupmode="layer"
       id="g5359"
       inkscape:label="row 2"
       transform="translate(0,37.041666)">
      <g
         inkscape:groupmode="layer"
         id="g5297"
         inkscape:label="post"
         transform="translate(0,19.976051)"
         style="display:inline">
        <g
           inkscape:groupmode="layer"
           id="g5283"
           inkscape:label="image"
           style="display:inline">
          <rect
             style="display:inline;fill:#cccccc;stroke:#000000;stroke-width:0"
             id="rect5279"
             width="33.072914"
             height="22.489582"
             x="5.291667"
             y="4.9110145e-07" />
          <path
             d="m 24.473956,9.9218751 h -5.291664 a 0.48106059,0.48106059 0 0 0 -0.481063,0.4810609 v 4.329545 a 0.48106059,0.48106059 0 0 0 0.481063,0.481061 h 5.291664 A 0.48106059,0.48106059 0 0 0 24.95502,14.732481 V 10.402936 A 0.48106059,0.48106059 0 0 0 24.473956,9.9218751 Z m 0,0.4810609 v 3.089309 l -0.783828,-0.783527 a 0.48106059,0.48106059 0 0 0 -0.6804,0 l -0.601326,0.601326 -1.322918,-1.322916 a 0.48106059,0.48106059 0 0 0 -0.6801,0 l -1.223092,1.223096 v -2.807288 z m -5.291664,3.487687 1.563446,-1.563445 2.4053,2.405303 h -3.968746 z m 5.291664,0.841857 h -0.642518 l -1.082382,-1.082387 0.601327,-0.601325 1.123573,1.123877 z m -2.164772,-3.006628 a 0.36079544,0.36079544 0 1 1 0.360799,0.360796 0.36079544,0.36079544 0 0 1 -0.360799,-0.360796 z"
             id="path5281"
             style="display:inline;stroke-width:0.0300662"
             inkscape:label="image" />
        </g>
        <g
           inkscape:groupmode="layer"
           id="g5295"
           inkscape:label="text"
           style="display:inline"
           transform="translate(-41.010415,48.947917)">
          <g
             inkscape:groupmode="layer"
             id="g5287"
             inkscape:label="heading">
            <rect
               style="fill:#000000;stroke:#000000;stroke-width:0"
               id="rect5285"
               width="26.458332"
               height="1.3229158"
               x="46.302082"
               y="-23.8125" />
          </g>
          <g
             inkscape:groupmode="layer"
             id="g5293"
             inkscape:label="text">
            <rect
               style="fill:#cccccc;stroke:#000000;stroke-width:0"
               id="rect5289"
               width="33.072914"
               height="1.3229158"
               x="46.302082"
               y="-21.166666" />
            <rect
               style="fill:#cccccc;stroke:#000000;stroke-width:0"
               id="rect5291"
               width="30.427082"
               height="1.3229158"
               x="46.302082"
               y="-18.520834" />
          </g>
        </g>
      </g>
      <g
         inkscape:groupmode="layer"
         id="g5317"
         inkscape:label="post 2"
         transform="translate(38.364584,19.976051)"
         style="display:inline">
        <g
           inkscape:groupmode="layer"
           id="g5303"
           inkscape:label="image"
           style="display:inline">
          <rect
             style="display:inline;fill:#cccccc;stroke:#000000;stroke-width:0"
             id="rect5299"
             width="33.072914"
             height="22.489582"
             x="5.291667"
             y="4.9110145e-07" />
          <path
             d="m 24.473956,9.9218751 h -5.291664 a 0.48106059,0.48106059 0 0 0 -0.481063,0.4810609 v 4.329545 a 0.48106059,0.48106059 0 0 0 0.481063,0.481061 h 5.291664 A 0.48106059,0.48106059 0 0 0 24.95502,14.732481 V 10.402936 A 0.48106059,0.48106059 0 0 0 24.473956,9.9218751 Z m 0,0.4810609 v 3.089309 l -0.783828,-0.783527 a 0.48106059,0.48106059 0 0 0 -0.6804,0 l -0.601326,0.601326 -1.322918,-1.322916 a 0.48106059,0.48106059 0 0 0 -0.6801,0 l -1.223092,1.223096 v -2.807288 z m -5.291664,3.487687 1.563446,-1.563445 2.4053,2.405303 h -3.968746 z m 5.291664,0.841857 h -0.642518 l -1.082382,-1.082387 0.601327,-0.601325 1.123573,1.123877 z m -2.164772,-3.006628 a 0.36079544,0.36079544 0 1 1 0.360799,0.360796 0.36079544,0.36079544 0 0 1 -0.360799,-0.360796 z"
             id="path5301"
             style="display:inline;stroke-width:0.0300662"
             inkscape:label="image" />
        </g>
        <g
           inkscape:groupmode="layer"
           id="g5315"
           inkscape:label="text"
           style="display:inline"
           transform="translate(-41.010415,48.947917)">
          <g
             inkscape:groupmode="layer"
             id="g5307"
             inkscape:label="heading">
            <rect
               style="fill:#000000;stroke:#000000;stroke-width:0"
               id="rect5305"
               width="26.458332"
               height="1.3229158"
               x="46.302082"
               y="-23.8125" />
          </g>
          <g
             inkscape:groupmode="layer"
             id="g5313"
             inkscape:label="text">
            <rect
               style="fill:#cccccc;stroke:#000000;stroke-width:0"
               id="rect5309"
               width="33.072914"
               height="1.3229158"
               x="46.302082"
               y="-21.166666" />
            <rect
               style="fill:#cccccc;stroke:#000000;stroke-width:0"
               id="rect5311"
               width="30.427082"
               height="1.3229158"
               x="46.302082"
               y="-18.520834" />
          </g>
        </g>
      </g>
      <g
         inkscape:groupmode="layer"
         id="g5337"
         inkscape:label="post 3"
         transform="translate(76.729167,19.976051)"
         style="display:inline">
        <g
           inkscape:groupmode="layer"
           id="g5323"
           inkscape:label="image"
           style="display:inline">
          <rect
             style="display:inline;fill:#cccccc;stroke:#000000;stroke-width:0"
             id="rect5319"
             width="33.072914"
             height="22.489582"
             x="5.291667"
             y="4.9110145e-07" />
          <path
             d="m 24.473956,9.9218751 h -5.291664 a 0.48106059,0.48106059 0 0 0 -0.481063,0.4810609 v 4.329545 a 0.48106059,0.48106059 0 0 0 0.481063,0.481061 h 5.291664 A 0.48106059,0.48106059 0 0 0 24.95502,14.732481 V 10.402936 A 0.48106059,0.48106059 0 0 0 24.473956,9.9218751 Z m 0,0.4810609 v 3.089309 l -0.783828,-0.783527 a 0.48106059,0.48106059 0 0 0 -0.6804,0 l -0.601326,0.601326 -1.322918,-1.322916 a 0.48106059,0.48106059 0 0 0 -0.6801,0 l -1.223092,1.223096 v -2.807288 z m -5.291664,3.487687 1.563446,-1.563445 2.4053,2.405303 h -3.968746 z m 5.291664,0.841857 h -0.642518 l -1.082382,-1.082387 0.601327,-0.601325 1.123573,1.123877 z m -2.164772,-3.006628 a 0.36079544,0.36079544 0 1 1 0.360799,0.360796 0.36079544,0.36079544 0 0 1 -0.360799,-0.360796 z"
             id="path5321"
             style="display:inline;stroke-width:0.0300662"
             inkscape:label="image" />
        </g>
        <g
           inkscape:groupmode="layer"
           id="g5335"
           inkscape:label="text"
           style="display:inline"
           transform="translate(-41.010415,48.947917)">
          <g
             inkscape:groupmode="layer"
             id="g5327"
             inkscape:label="heading">
            <rect
               style="fill:#000000;stroke:#000000;stroke-width:0"
               id="rect5325"
               width="26.458332"
               height="1.3229158"
               x="46.302082"
               y="-23.8125" />
          </g>
          <g
             inkscape:groupmode="layer"
             id="g5333"
             inkscape:label="text">
            <rect
               style="fill:#cccccc;stroke:#000000;stroke-width:0"
               id="rect5329"
               width="33.072914"
               height="1.3229158"
               x="46.302082"
               y="-21.166666" />
            <rect
               style="fill:#cccccc;stroke:#000000;stroke-width:0"
               id="rect5331"
               width="30.427082"
               height="1.3229158"
               x="46.302082"
               y="-18.520834" />
          </g>
        </g>
      </g>
    </g>
  </g>
  <g
     inkscape:groupmode="layer"
     id="g3257"
     inkscape:label="partial"
     style="display:none">
    <g
       inkscape:groupmode="layer"
       id="g3243"
       inkscape:label="image">
      <path
         d="m 75.31807,37.355184 -2.79879,2.332327 2.79879,2.332326 a 0.55121446,0.55121446 0 1 1 -0.70556,0.846803 l -3.30729,-2.756072 a 0.55121446,0.55121446 0 0 1 0,-0.846804 l 3.30729,-2.756072 a 0.55137553,0.55137553 0 0 1 0.70556,0.847492 z m 12.12671,1.90858 -3.30729,-2.756072 a 0.55137334,0.55137334 0 1 0 -0.70554,0.847492 l 2.79879,2.332327 -2.79879,2.332326 a 0.55121446,0.55121446 0 1 0 0.70554,0.846803 l 3.30729,-2.756072 a 0.55121446,0.55121446 0 0 0 0,-0.846804 z m -5.6768,-6.157754 a 0.55121446,0.55121446 0 0 0 -0.70625,0.330039 L 76.652,45.562768 a 0.55121446,0.55121446 0 0 0 0.33005,0.706932 0.56086072,0.56086072 0 0 0 0.18812,0.03238 0.55121446,0.55121446 0 0 0 0.51815,-0.363112 L 82.09804,33.812253 A 0.55121446,0.55121446 0 0 0 81.768,33.106009 Z"
         id="path3283"
         style="stroke-width:0.0689018" />
    </g>
  </g>
  <g
     inkscape:groupmode="layer"
     id="g1743"
     inkscape:label="flash_message"
     style="display:none">
    <rect
       style="display:none;fill:#cccccc;stroke:#000000;stroke-width:0"
       id="rect1725"
       width="148.16667"
       height="13.229166"
       x="5.2916641"
       y="33.072918"
       inkscape:label="bg" />
    <g
       id="g2952"
       inkscape:label="text"
       transform="translate(0.00933443,-0.13229179)">
      <rect
         style="display:inline;fill:#cccccc;fill-opacity:1;stroke:#000000;stroke-width:0"
         id="rect3666-5-2"
         width="134.9375"
         height="1.8520812"
         x="18.511499"
         y="40.745834"
         inkscape:label="text" />
      <rect
         style="display:inline;fill:#cccccc;fill-opacity:1;stroke:#000000;stroke-width:0"
         id="rect3666-5"
         width="26.458332"
         height="1.8520818"
         x="18.520834"
         y="37.041668"
         inkscape:label="text_sm" />
    </g>
    <path
       d="M 9.2604097,35.71875 A 3.96875,3.96875 0 1 0 13.229167,39.687501 3.9729476,3.9729476 0 0 0 9.2604097,35.71875 Z m 0,7.326924 a 3.3581729,3.3581729 0 1 1 3.3581763,-3.358173 3.3619892,3.3619892 0 0 1 -3.3581763,3.358173 z m 0.610581,-1.526442 a 0.30528845,0.30528845 0 0 1 -0.305286,0.305286 0.61057691,0.61057691 0 0 1 -0.610581,-0.610575 v -1.526442 a 0.305289,0.305289 0 0 1 0,-0.610578 0.61057691,0.61057691 0 0 1 0.610581,0.610578 v 1.526442 a 0.30528845,0.30528845 0 0 1 0.305286,0.305289 z m -1.22115,-3.510819 a 0.45793268,0.45793268 0 1 1 0.457926,0.457932 0.45793268,0.45793268 0 0 1 -0.457926,-0.457932 z"
       id="path1846"
       style="display:inline;stroke-width:0.0381609"
       inkscape:label="info" />
  </g>
  <g
     inkscape:groupmode="layer"
     id="layer4"
     inkscape:label="text"
     style="display:none">
    <g
       inkscape:groupmode="layer"
       id="layer5"
       inkscape:label="heading">
      <rect
         style="fill:#000000;stroke:#000000;stroke-width:0"
         id="rect1343"
         width="31.75"
         height="1.852082"
         x="46.302082"
         y="5.291667" />
      <rect
         style="fill:#000000;stroke:#000000;stroke-width:0"
         id="rect1345"
         width="26.458332"
         height="1.8520821"
         x="46.302082"
         y="8.9958334" />
    </g>
    <g
       inkscape:groupmode="layer"
       id="g1349"
       inkscape:label="text">
      <rect
         style="fill:#cccccc;stroke:#000000;stroke-width:0"
         id="rect1347"
         width="66.145836"
         height="1.8520644"
         x="46.302082"
         y="16.139584" />
      <rect
         style="fill:#cccccc;stroke:#000000;stroke-width:0"
         id="rect1338"
         width="66.145828"
         height="1.8520815"
         x="46.302082"
         y="19.84375" />
      <rect
         style="fill:#cccccc;stroke:#000000;stroke-width:0"
         id="rect1412"
         width="66.145836"
         height="1.8520644"
         x="46.302082"
         y="23.547916" />
      <rect
         style="fill:#cccccc;stroke:#000000;stroke-width:0"
         id="rect1414"
         width="66.145828"
         height="1.8520815"
         x="46.302082"
         y="27.252083" />
      <rect
         style="fill:#cccccc;stroke:#000000;stroke-width:0"
         id="rect1416"
         width="60.854164"
         height="1.8520644"
         x="46.302082"
         y="30.956251" />
      <rect
         style="fill:#cccccc;stroke:#000000;stroke-width:0"
         id="rect1418"
         width="52.916664"
         height="1.8520817"
         x="46.302082"
         y="34.660416" />
      <rect
         style="fill:#cccccc;stroke:#000000;stroke-width:0"
         id="rect1420"
         width="66.145836"
         height="1.8520644"
         x="46.302082"
         y="38.364582" />
      <rect
         style="fill:#cccccc;stroke:#000000;stroke-width:0"
         id="rect1422"
         width="26.458332"
         height="1.8520819"
         x="46.302082"
         y="42.068748" />
      <rect
         style="fill:#cccccc;stroke:#000000;stroke-width:0"
         id="rect1424"
         width="66.145836"
         height="1.8520644"
         x="46.302082"
         y="45.772919" />
      <rect
         style="fill:#cccccc;stroke:#000000;stroke-width:0"
         id="rect1426"
         width="66.145836"
         height="1.8520644"
         x="46.302082"
         y="49.477085" />
      <rect
         style="fill:#cccccc;stroke:#000000;stroke-width:0"
         id="rect1428"
         width="66.145828"
         height="1.8520815"
         x="46.302082"
         y="53.181252" />
      <rect
         style="fill:#cccccc;stroke:#000000;stroke-width:0"
         id="rect1430"
         width="66.145836"
         height="1.8520644"
         x="46.302082"
         y="56.885418" />
      <rect
         style="fill:#cccccc;stroke:#000000;stroke-width:0"
         id="rect1432"
         width="52.916664"
         height="1.8520817"
         x="46.302082"
         y="60.589584" />
      <rect
         style="fill:#cccccc;stroke:#000000;stroke-width:0"
         id="rect1434"
         width="60.854164"
         height="1.8520644"
         x="46.302082"
         y="64.293755" />
      <rect
         style="fill:#cccccc;stroke:#000000;stroke-width:0"
         id="rect1436"
         width="31.75"
         height="1.8520819"
         x="46.302082"
         y="67.997917" />
      <rect
         style="fill:#cccccc;stroke:#000000;stroke-width:0"
         id="rect1438"
         width="13.229166"
         height="1.852065"
         x="46.302082"
         y="71.70208" />
    </g>
  </g>
  <g
     inkscape:groupmode="layer"
     id="layer6"
     inkscape:label="image_text"
     style="display:none">
    <g
       inkscape:groupmode="layer"
       id="g3704"
       inkscape:label="text"
       style="display:inline"
       transform="translate(38.364585)">
      <g
         inkscape:groupmode="layer"
         id="g3668"
         inkscape:label="heading">
        <rect
           style="fill:#000000;stroke:#000000;stroke-width:0"
           id="rect3664"
           width="31.75"
           height="1.852082"
           x="46.302082"
           y="5.291667" />
        <rect
           style="fill:#000000;stroke:#000000;stroke-width:0"
           id="rect3666"
           width="26.458332"
           height="1.8520821"
           x="46.302082"
           y="8.9958334" />
      </g>
      <g
         inkscape:groupmode="layer"
         id="g3702"
         inkscape:label="text">
        <rect
           style="fill:#cccccc;stroke:#000000;stroke-width:0"
           id="rect3670"
           width="66.145836"
           height="1.8520644"
           x="46.302082"
           y="16.139584" />
        <rect
           style="fill:#cccccc;stroke:#000000;stroke-width:0"
           id="rect3672"
           width="66.145828"
           height="1.8520815"
           x="46.302082"
           y="19.84375" />
        <rect
           style="fill:#cccccc;stroke:#000000;stroke-width:0"
           id="rect3674"
           width="66.145836"
           height="1.8520644"
           x="46.302082"
           y="23.547916" />
        <rect
           style="fill:#cccccc;stroke:#000000;stroke-width:0"
           id="rect3676"
           width="66.145828"
           height="1.8520815"
           x="46.302082"
           y="27.252083" />
        <rect
           style="fill:#cccccc;stroke:#000000;stroke-width:0"
           id="rect3678"
           width="60.854164"
           height="1.8520644"
           x="46.302082"
           y="30.956251" />
        <rect
           style="fill:#cccccc;stroke:#000000;stroke-width:0"
           id="rect3680"
           width="52.916664"
           height="1.8520817"
           x="46.302082"
           y="34.660416" />
        <rect
           style="fill:#cccccc;stroke:#000000;stroke-width:0"
           id="rect3682"
           width="66.145836"
           height="1.8520644"
           x="46.302082"
           y="38.364582" />
        <rect
           style="fill:#cccccc;stroke:#000000;stroke-width:0"
           id="rect3684"
           width="26.458332"
           height="1.8520819"
           x="46.302082"
           y="42.068748" />
        <rect
           style="fill:#cccccc;stroke:#000000;stroke-width:0"
           id="rect3686"
           width="66.145836"
           height="1.8520644"
           x="46.302082"
           y="45.772919" />
        <rect
           style="fill:#cccccc;stroke:#000000;stroke-width:0"
           id="rect3688"
           width="66.145836"
           height="1.8520644"
           x="46.302082"
           y="49.477085" />
        <rect
           style="fill:#cccccc;stroke:#000000;stroke-width:0"
           id="rect3690"
           width="66.145828"
           height="1.8520815"
           x="46.302082"
           y="53.181252" />
        <rect
           style="fill:#cccccc;stroke:#000000;stroke-width:0"
           id="rect3692"
           width="66.145836"
           height="1.8520644"
           x="46.302082"
           y="56.885418" />
        <rect
           style="fill:#cccccc;stroke:#000000;stroke-width:0"
           id="rect3694"
           width="52.916664"
           height="1.8520817"
           x="46.302082"
           y="60.589584" />
        <rect
           style="fill:#cccccc;stroke:#000000;stroke-width:0"
           id="rect3696"
           width="60.854164"
           height="1.8520644"
           x="46.302082"
           y="64.293755" />
        <rect
           style="fill:#cccccc;stroke:#000000;stroke-width:0"
           id="rect3698"
           width="31.75"
           height="1.8520819"
           x="46.302082"
           y="67.997917" />
        <rect
           style="fill:#cccccc;stroke:#000000;stroke-width:0"
           id="rect3700"
           width="13.229166"
           height="1.852065"
           x="46.302082"
           y="71.70208" />
      </g>
    </g>
    <g
       inkscape:groupmode="layer"
       id="layer7"
       inkscape:label="image">
      <rect
         style="fill:#cccccc;stroke:#000000;stroke-width:0"
         id="rect3782"
         width="70.025589"
         height="68.791664"
         x="5.291667"
         y="5.2916679" />
      <path
         d="M 46.91904,33.072916 H 33.689881 a 1.2026515,1.2026515 0 0 0 -1.202659,1.202653 v 10.823862 a 1.2026515,1.2026515 0 0 0 1.202659,1.202652 H 46.91904 A 1.2026515,1.2026515 0 0 0 48.1217,45.099432 V 34.275569 a 1.2026515,1.2026515 0 0 0 -1.20266,-1.202653 z m 0,1.202653 v 7.723276 l -1.95957,-1.958818 a 1.2026515,1.2026515 0 0 0 -1.700999,0 l -1.503317,1.503313 -3.307296,-3.30729 a 1.2026515,1.2026515 0 0 0 -1.70025,0 l -3.057727,3.05774 v -7.018221 z m -13.229159,8.719221 3.908612,-3.908618 6.013251,6.013259 h -9.921863 z m 13.229159,2.104641 h -1.606295 l -2.705956,-2.705966 1.503318,-1.503313 2.808933,2.809693 z m -5.411931,-7.516572 a 0.90198862,0.90198862 0 1 1 0.901998,0.901988 0.90198862,0.90198862 0 0 1 -0.901998,-0.901988 z"
         id="path3706"
         style="display:inline;stroke-width:0.0751655"
         inkscape:label="image" />
    </g>
  </g>
</svg>
