<?xml version="1.0" encoding="UTF-8" standalone="no"?>
<!-- Created with Inkscape (http://www.inkscape.org/) -->

<svg
   width="600"
   height="300"
   viewBox="0 0 158.75 79.375"
   version="1.1"
   id="svg5"
   inkscape:version="1.2 (dc2aeda, 2022-05-15)"
   sodipodi:docname="slider.svg"
   xmlns:inkscape="http://www.inkscape.org/namespaces/inkscape"
   xmlns:sodipodi="http://sodipodi.sourceforge.net/DTD/sodipodi-0.dtd"
   xmlns="http://www.w3.org/2000/svg"
   xmlns:svg="http://www.w3.org/2000/svg">
  <sodipodi:namedview
     id="namedview7"
     pagecolor="#505050"
     bordercolor="#eeeeee"
     borderopacity="1"
     inkscape:showpageshadow="0"
     inkscape:pageopacity="0"
     inkscape:pagecheckerboard="0"
     inkscape:deskcolor="#505050"
     inkscape:document-units="mm"
     showgrid="false"
     inkscape:zoom="1.8817272"
     inkscape:cx="238.34486"
     inkscape:cy="196.36215"
     inkscape:window-width="2560"
     inkscape:window-height="1387"
     inkscape:window-x="0"
     inkscape:window-y="25"
     inkscape:window-maximized="1"
     inkscape:current-layer="layer8" />
  <defs
     id="defs2" />
  <g
     inkscape:label="bg"
     inkscape:groupmode="layer"
     id="layer1">
    <rect
       style="fill:#ffffff;stroke:#222d32;stroke-width:0;stroke-linejoin:round;stroke-dasharray:none"
       id="rect3693"
       width="158.8087"
       height="79.375"
       x="-0.029350281"
       y="-6.21031e-15" />
  </g>
  <g
     inkscape:groupmode="layer"
     id="layer2"
     inkscape:label="slider"
     style="display:inline">
    <g
       inkscape:groupmode="layer"
       id="layer8"
       inkscape:label="image">
      <rect
         style="display:inline;fill:#cccccc;stroke:#000000;stroke-width:0"
         id="rect1330"
         width="148.16667"
         height="68.791664"
         x="5.291667"
         y="5.2916679" />
      <path
         d="M 85.989579,33.072916 H 72.76042 a 1.2026515,1.2026515 0 0 0 -1.202659,1.202653 v 10.823862 a 1.2026515,1.2026515 0 0 0 1.202659,1.202652 h 13.229159 a 1.2026515,1.2026515 0 0 0 1.20266,-1.202652 V 34.275569 a 1.2026515,1.2026515 0 0 0 -1.20266,-1.202653 z m 0,1.202653 v 7.723276 l -1.95957,-1.958818 a 1.2026515,1.2026515 0 0 0 -1.700999,0 l -1.503317,1.503313 -3.307296,-3.30729 a 1.2026515,1.2026515 0 0 0 -1.70025,0 l -3.057727,3.05774 v -7.018221 z m -13.229159,8.719221 3.908612,-3.908618 6.013251,6.013259 H 72.76042 Z m 13.229159,2.104641 h -1.606295 l -2.705956,-2.705966 1.503318,-1.503313 2.808933,2.809693 z m -5.411931,-7.516572 a 0.90198862,0.90198862 0 1 1 0.901998,0.901988 0.90198862,0.90198862 0 0 1 -0.901998,-0.901988 z"
         id="path3990"
         style="display:inline;stroke-width:0.0751655"
         inkscape:label="image" />
    </g>
    <path
       d="M 13.229163,37.041667 A 2.6458333,2.6458333 0 1 0 15.875,39.687501 2.6486318,2.6486318 0 0 0 13.229163,37.041667 Z m 0,4.884616 a 2.2387821,2.2387821 0 1 1 2.238783,-2.238782 2.2413261,2.2413261 0 0 1 -2.238783,2.238782 z m 1.221154,-2.238782 a 0.20352564,0.20352564 0 0 1 -0.203523,0.203525 h -1.543992 l 0.46683,0.466582 a 0.20363882,0.20363882 0 0 1 -0.287984,0.287989 L 12.06754,39.831494 a 0.20352564,0.20352564 0 0 1 0,-0.287988 l 0.814108,-0.814102 a 0.20363882,0.20363882 0 0 1 0.287984,0.287988 l -0.46683,0.466582 h 1.543992 a 0.20352564,0.20352564 0 0 1 0.203523,0.203527 z"
       id="path3832-5"
       style="stroke-width:0.0254407"
       inkscape:label="left" />
    <path
       d="m 145.52084,42.333333 a 2.6458333,2.6458333 0 1 0 -2.64584,-2.64583 2.6486318,2.6486318 0 0 0 2.64584,2.64583 z m 0,-4.884615 a 2.2387821,2.2387821 0 1 1 -2.23879,2.238785 2.2413261,2.2413261 0 0 1 2.23879,-2.238785 z m -1.22116,2.238785 a 0.20352564,0.20352564 0 0 1 0.20353,-0.203531 h 1.54399 l -0.46683,-0.466577 a 0.20363882,0.20363882 0 0 1 0.28798,-0.287992 l 0.81411,0.8141 a 0.20352564,0.20352564 0 0 1 0,0.287992 l -0.81411,0.8141 a 0.20363882,0.20363882 0 0 1 -0.28798,-0.287985 l 0.46683,-0.466584 h -1.54399 a 0.20352564,0.20352564 0 0 1 -0.20353,-0.203523 z"
       id="path3832"
       style="stroke-width:0.0254407"
       inkscape:label="right" />
    <g
       inkscape:groupmode="layer"
       id="layer3"
       inkscape:label="dots">
      <circle
         style="fill:none;stroke:#000000;stroke-width:0.082553;stroke-linejoin:miter;stroke-dasharray:none;stroke-opacity:1"
         id="path4201"
         cx="78.845833"
         cy="70.776039"
         r="0.62018186" />
      <circle
         style="fill:#000000;stroke:#000000;stroke-width:0.082553;stroke-linejoin:miter;stroke-dasharray:none;stroke-opacity:1"
         id="circle4206"
         cx="76.199997"
         cy="70.776039"
         r="0.62018186" />
      <circle
         style="fill:none;stroke:#000000;stroke-width:0.082553;stroke-linejoin:miter;stroke-dasharray:none;stroke-opacity:1"
         id="circle4208"
         cx="81.491669"
         cy="70.776039"
         r="0.62018186" />
    </g>
  </g>
  <g
     inkscape:groupmode="layer"
     id="layer4"
     inkscape:label="text"
     style="display:none">
    <g
       inkscape:groupmode="layer"
       id="layer5"
       inkscape:label="heading">
      <rect
         style="fill:#000000;stroke:#000000;stroke-width:0"
         id="rect1343"
         width="31.75"
         height="1.852082"
         x="46.302082"
         y="5.291667" />
      <rect
         style="fill:#000000;stroke:#000000;stroke-width:0"
         id="rect1345"
         width="26.458332"
         height="1.8520821"
         x="46.302082"
         y="8.9958334" />
    </g>
    <g
       inkscape:groupmode="layer"
       id="g1349"
       inkscape:label="text">
      <rect
         style="fill:#cccccc;stroke:#000000;stroke-width:0"
         id="rect1347"
         width="66.145836"
         height="1.8520644"
         x="46.302082"
         y="16.139584" />
      <rect
         style="fill:#cccccc;stroke:#000000;stroke-width:0"
         id="rect1338"
         width="66.145828"
         height="1.8520815"
         x="46.302082"
         y="19.84375" />
      <rect
         style="fill:#cccccc;stroke:#000000;stroke-width:0"
         id="rect1412"
         width="66.145836"
         height="1.8520644"
         x="46.302082"
         y="23.547916" />
      <rect
         style="fill:#cccccc;stroke:#000000;stroke-width:0"
         id="rect1414"
         width="66.145828"
         height="1.8520815"
         x="46.302082"
         y="27.252083" />
      <rect
         style="fill:#cccccc;stroke:#000000;stroke-width:0"
         id="rect1416"
         width="60.854164"
         height="1.8520644"
         x="46.302082"
         y="30.956251" />
      <rect
         style="fill:#cccccc;stroke:#000000;stroke-width:0"
         id="rect1418"
         width="52.916664"
         height="1.8520817"
         x="46.302082"
         y="34.660416" />
      <rect
         style="fill:#cccccc;stroke:#000000;stroke-width:0"
         id="rect1420"
         width="66.145836"
         height="1.8520644"
         x="46.302082"
         y="38.364582" />
      <rect
         style="fill:#cccccc;stroke:#000000;stroke-width:0"
         id="rect1422"
         width="26.458332"
         height="1.8520819"
         x="46.302082"
         y="42.068748" />
      <rect
         style="fill:#cccccc;stroke:#000000;stroke-width:0"
         id="rect1424"
         width="66.145836"
         height="1.8520644"
         x="46.302082"
         y="45.772919" />
      <rect
         style="fill:#cccccc;stroke:#000000;stroke-width:0"
         id="rect1426"
         width="66.145836"
         height="1.8520644"
         x="46.302082"
         y="49.477085" />
      <rect
         style="fill:#cccccc;stroke:#000000;stroke-width:0"
         id="rect1428"
         width="66.145828"
         height="1.8520815"
         x="46.302082"
         y="53.181252" />
      <rect
         style="fill:#cccccc;stroke:#000000;stroke-width:0"
         id="rect1430"
         width="66.145836"
         height="1.8520644"
         x="46.302082"
         y="56.885418" />
      <rect
         style="fill:#cccccc;stroke:#000000;stroke-width:0"
         id="rect1432"
         width="52.916664"
         height="1.8520817"
         x="46.302082"
         y="60.589584" />
      <rect
         style="fill:#cccccc;stroke:#000000;stroke-width:0"
         id="rect1434"
         width="60.854164"
         height="1.8520644"
         x="46.302082"
         y="64.293755" />
      <rect
         style="fill:#cccccc;stroke:#000000;stroke-width:0"
         id="rect1436"
         width="31.75"
         height="1.8520819"
         x="46.302082"
         y="67.997917" />
      <rect
         style="fill:#cccccc;stroke:#000000;stroke-width:0"
         id="rect1438"
         width="13.229166"
         height="1.852065"
         x="46.302082"
         y="71.70208" />
    </g>
  </g>
  <g
     inkscape:groupmode="layer"
     id="layer6"
     inkscape:label="image_text"
     style="display:none">
    <g
       inkscape:groupmode="layer"
       id="g3704"
       inkscape:label="text"
       style="display:inline"
       transform="translate(38.364585)">
      <g
         inkscape:groupmode="layer"
         id="g3668"
         inkscape:label="heading">
        <rect
           style="fill:#000000;stroke:#000000;stroke-width:0"
           id="rect3664"
           width="31.75"
           height="1.852082"
           x="46.302082"
           y="5.291667" />
        <rect
           style="fill:#000000;stroke:#000000;stroke-width:0"
           id="rect3666"
           width="26.458332"
           height="1.8520821"
           x="46.302082"
           y="8.9958334" />
      </g>
      <g
         inkscape:groupmode="layer"
         id="g3702"
         inkscape:label="text">
        <rect
           style="fill:#cccccc;stroke:#000000;stroke-width:0"
           id="rect3670"
           width="66.145836"
           height="1.8520644"
           x="46.302082"
           y="16.139584" />
        <rect
           style="fill:#cccccc;stroke:#000000;stroke-width:0"
           id="rect3672"
           width="66.145828"
           height="1.8520815"
           x="46.302082"
           y="19.84375" />
        <rect
           style="fill:#cccccc;stroke:#000000;stroke-width:0"
           id="rect3674"
           width="66.145836"
           height="1.8520644"
           x="46.302082"
           y="23.547916" />
        <rect
           style="fill:#cccccc;stroke:#000000;stroke-width:0"
           id="rect3676"
           width="66.145828"
           height="1.8520815"
           x="46.302082"
           y="27.252083" />
        <rect
           style="fill:#cccccc;stroke:#000000;stroke-width:0"
           id="rect3678"
           width="60.854164"
           height="1.8520644"
           x="46.302082"
           y="30.956251" />
        <rect
           style="fill:#cccccc;stroke:#000000;stroke-width:0"
           id="rect3680"
           width="52.916664"
           height="1.8520817"
           x="46.302082"
           y="34.660416" />
        <rect
           style="fill:#cccccc;stroke:#000000;stroke-width:0"
           id="rect3682"
           width="66.145836"
           height="1.8520644"
           x="46.302082"
           y="38.364582" />
        <rect
           style="fill:#cccccc;stroke:#000000;stroke-width:0"
           id="rect3684"
           width="26.458332"
           height="1.8520819"
           x="46.302082"
           y="42.068748" />
        <rect
           style="fill:#cccccc;stroke:#000000;stroke-width:0"
           id="rect3686"
           width="66.145836"
           height="1.8520644"
           x="46.302082"
           y="45.772919" />
        <rect
           style="fill:#cccccc;stroke:#000000;stroke-width:0"
           id="rect3688"
           width="66.145836"
           height="1.8520644"
           x="46.302082"
           y="49.477085" />
        <rect
           style="fill:#cccccc;stroke:#000000;stroke-width:0"
           id="rect3690"
           width="66.145828"
           height="1.8520815"
           x="46.302082"
           y="53.181252" />
        <rect
           style="fill:#cccccc;stroke:#000000;stroke-width:0"
           id="rect3692"
           width="66.145836"
           height="1.8520644"
           x="46.302082"
           y="56.885418" />
        <rect
           style="fill:#cccccc;stroke:#000000;stroke-width:0"
           id="rect3694"
           width="52.916664"
           height="1.8520817"
           x="46.302082"
           y="60.589584" />
        <rect
           style="fill:#cccccc;stroke:#000000;stroke-width:0"
           id="rect3696"
           width="60.854164"
           height="1.8520644"
           x="46.302082"
           y="64.293755" />
        <rect
           style="fill:#cccccc;stroke:#000000;stroke-width:0"
           id="rect3698"
           width="31.75"
           height="1.8520819"
           x="46.302082"
           y="67.997917" />
        <rect
           style="fill:#cccccc;stroke:#000000;stroke-width:0"
           id="rect3700"
           width="13.229166"
           height="1.852065"
           x="46.302082"
           y="71.70208" />
      </g>
    </g>
    <g
       inkscape:groupmode="layer"
       id="layer7"
       inkscape:label="image">
      <rect
         style="fill:#cccccc;stroke:#000000;stroke-width:0"
         id="rect3782"
         width="70.025589"
         height="68.791664"
         x="5.291667"
         y="5.2916679" />
      <path
         d="M 46.91904,33.072916 H 33.689881 a 1.2026515,1.2026515 0 0 0 -1.202659,1.202653 v 10.823862 a 1.2026515,1.2026515 0 0 0 1.202659,1.202652 H 46.91904 A 1.2026515,1.2026515 0 0 0 48.1217,45.099432 V 34.275569 a 1.2026515,1.2026515 0 0 0 -1.20266,-1.202653 z m 0,1.202653 v 7.723276 l -1.95957,-1.958818 a 1.2026515,1.2026515 0 0 0 -1.700999,0 l -1.503317,1.503313 -3.307296,-3.30729 a 1.2026515,1.2026515 0 0 0 -1.70025,0 l -3.057727,3.05774 v -7.018221 z m -13.229159,8.719221 3.908612,-3.908618 6.013251,6.013259 h -9.921863 z m 13.229159,2.104641 h -1.606295 l -2.705956,-2.705966 1.503318,-1.503313 2.808933,2.809693 z m -5.411931,-7.516572 a 0.90198862,0.90198862 0 1 1 0.901998,0.901988 0.90198862,0.90198862 0 0 1 -0.901998,-0.901988 z"
         id="path3706"
         style="display:inline;stroke-width:0.0751655"
         inkscape:label="image" />
    </g>
  </g>
</svg>
