<svg width="24" height="24" viewBox="0 0 24 24" fill="none" xmlns="http://www.w3.org/2000/svg">
<g clip-path="url(#clip0_8_334)">
<path d="M12 24C18.6275 24 24 18.6275 24 12C24 5.37258 18.6275 0 12 0C5.37258 0 0 5.37258 0 12C0 18.6275 5.37258 24 12 24Z" fill="#F2F2F2"/>
<path d="M10.956 12C10.956 12 3.52119 20.4869 3.51416 20.4853C5.68569 22.6568 8.68575 24 11.9995 24C18.6268 24 23.9995 18.6274 23.9995 12H10.956Z" fill="#D80027"/>
<path d="M3.51471 3.51471C-1.17157 8.20102 -1.17157 15.799 3.51471 20.4854C5.45125 18.5488 7.31374 16.6863 12 12L3.51471 3.51471Z" fill="#0052B4"/>
</g>
<defs>
<clipPath id="clip0_8_334">
<rect width="24" height="24" fill="white"/>
</clipPath>
</defs>
</svg>
