<svg width="24" height="24" viewBox="0 0 24 24" fill="none" xmlns="http://www.w3.org/2000/svg">
<path d="M12 24C18.6278 24 24 18.6278 24 12C24 5.37225 18.6278 0 12 0C5.37225 0 0 5.37225 0 12C0 18.6278 5.37225 24 12 24Z" fill="black"/>
<path d="M12 24C17.1592 24 21.558 20.7435 23.2537 16.1737H0.746216C2.44197 20.7435 6.83997 24 12 24Z" fill="#FFC700"/>
<path d="M23.348 8.08676H0.652C0.23 9.31376 0 10.6298 0 11.9998C0 13.4678 0.264 14.8748 0.746 16.1738H23.254C23.736 14.8748 24 13.4678 24 11.9998C24 10.6298 23.77 9.31376 23.348 8.08676Z" fill="#EA0000"/>
</svg>
