<svg width="24" height="24" viewBox="0 0 24 24" fill="none" xmlns="http://www.w3.org/2000/svg">
<g clip-path="url(#clip0_8_335)">
<path d="M12 24C18.628 24 24 18.628 24 12C24 5.373 18.628 0 12 0C5.373 0 0 5.373 0 12C0 18.628 5.373 24 12 24Z" fill="#000066"/>
<path d="M19.999 3.05499L11.95 9.04999L3.94104 3.10899C2.74804 4.19099 1.77304 5.50999 1.09204 6.99199L7.95004 12.1L1.16104 17.156C1.86204 18.627 2.85304 19.931 4.05904 20.997L12 15.05L19.956 20.984C21.163 19.914 22.153 18.605 22.851 17.131L16 12.05L22.876 6.92199C22.184 5.44399 21.201 4.12999 19.999 3.05499Z" fill="white"/>
<path d="M2.41204 19.217L8.00004 15.05L8.30004 16.8L3.46004 20.43C3.08504 20.05 2.73504 19.645 2.41204 19.217ZM22.445 17.911C22.178 18.383 21.879 18.835 21.552 19.265L14.45 14.05H17.2L22.445 17.911ZM20.614 3.646C21 4.044 21.359 4.468 21.687 4.916L15.55 9.55L15.65 7.35L20.614 3.646ZM2.44204 4.744L7.95004 8.8H4.95004L1.48804 6.208C1.77104 5.696 2.09004 5.207 2.44204 4.744Z" fill="#C8102E"/>
<path d="M8.05 0.665V8H0.683C0.241 9.251 0 10.598 0 12C0 13.402 0.241 14.749 0.683 16H8.05V23.335C9.287 23.766 10.616 24 12 24C13.421 24 14.784 23.753 16.05 23.299V16H23.317C23.759 14.749 24 13.402 24 12C24 10.598 23.759 9.251 23.317 8H16.05V0.701C14.784 0.247 13.421 0 12 0C10.616 0 9.287 0.234 8.05 0.665Z" fill="white"/>
<path d="M9.65 0.23V9.65H0.23C0.079 10.409 0 11.195 0 12C0 12.84 0.086 13.659 0.25 14.45H9.65V23.77C10.409 23.921 11.195 24 12 24C12.84 24 13.659 23.914 14.45 23.75V14.45H23.75C23.914 13.659 24 12.84 24 12C24 11.195 23.921 10.409 23.77 9.65H14.45V0.25C13.659 0.086 12.84 0 12 0C11.195 0 10.409 0.079 9.65 0.23Z" fill="#C8102E"/>
</g>
<defs>
<clipPath id="clip0_8_335">
<rect width="24" height="24" fill="white"/>
</clipPath>
</defs>
</svg>
