<?xml version="1.0" encoding="UTF-8" standalone="no"?>
<!-- Created with Inkscape (http://www.inkscape.org/) -->

<svg
   width="56.040001mm"
   height="10.246mm"
   viewBox="0 0 56.040001 10.246"
   version="1.1"
   id="svg1"
   inkscape:export-filename="logo.svg"
   inkscape:export-xdpi="96"
   inkscape:export-ydpi="96"
   xmlns:inkscape="http://www.inkscape.org/namespaces/inkscape"
   xmlns:sodipodi="http://sodipodi.sourceforge.net/DTD/sodipodi-0.dtd"
   xmlns="http://www.w3.org/2000/svg"
   xmlns:svg="http://www.w3.org/2000/svg">
  <sodipodi:namedview
     id="namedview1"
     pagecolor="#ffffff"
     bordercolor="#000000"
     borderopacity="0.25"
     inkscape:showpageshadow="2"
     inkscape:pageopacity="0.0"
     inkscape:pagecheckerboard="true"
     inkscape:deskcolor="#d1d1d1"
     inkscape:document-units="mm"
     inkscape:clip-to-page="false">
    <inkscape:page
       x="0"
       y="0"
       width="56.040001"
       height="10.246"
       id="page2"
       margin="0"
       bleed="0" />
  </sodipodi:namedview>
  <defs
     id="defs1" />
  <g
     inkscape:label="Vrstva 1"
     inkscape:groupmode="layer"
     id="layer1"
     transform="translate(-1.9570054,-1.9838424)">
    <path
       style="font-weight:500;font-size:11.2889px;font-family:'Roboto Condensed';-inkscape-font-specification:'Roboto Condensed,  Medium';fill:#ffffff;stroke-width:0.264583"
       d="m 6.780143,9.1055491 q 0,-0.2480472 -0.055122,-0.4409727 Q 6.675412,8.4661387 6.5320959,8.3062861 6.3887798,8.1464335 6.1241962,7.9920931 5.8651247,7.8377526 5.4517128,7.6779 4.9776672,7.4959988 4.5642553,7.2810246 4.1563556,7.0605383 3.8421626,6.7849304 3.5334817,6.5038103 3.3570927,6.1289835 3.1807036,5.7541568 3.1807036,5.2580625 q 0,-0.4905821 0.1708769,-0.8929697 Q 3.5279696,3.9571931 3.8476748,3.6650487 4.1728921,3.3673922 4.6193769,3.2075396 5.0658618,3.0421748 5.6060533,3.0421748 q 0.7772143,0 1.3284302,0.3307295 0.556728,0.3307295 0.8488723,0.8874575 0.2976566,0.556728 0.2976566,1.2347235 H 6.7470701 q 0,-0.3913632 -0.1212675,-0.6945319 Q 6.5045351,4.4973846 6.2509758,4.3265077 5.9974165,4.1556308 5.595029,4.1556308 q -0.3693146,0 -0.6118496,0.1433161 -0.2370228,0.1433162 -0.3527782,0.3913633 -0.1102431,0.2480471 -0.1102431,0.5677523 0,0.2204863 0.093707,0.4023876 0.093707,0.176389 0.2700957,0.3252173 0.1763891,0.1488283 0.4299484,0.2811201 0.2535593,0.1322918 0.5842888,0.2535593 0.5622401,0.2039498 0.9811642,0.451997 0.418924,0.2480471 0.6890198,0.556728 0.2756079,0.3031687 0.4078997,0.6890198 0.137804,0.385851 0.137804,0.8764331 0,0.4960943 -0.170877,0.903994 -0.1653647,0.4023873 -0.4850699,0.6890203 -0.3197052,0.286632 -0.7717022,0.446484 -0.451997,0.154341 -1.0142371,0.154341 -0.5181429,0 -0.9977007,-0.154341 Q 4.2004529,10.979683 3.8256261,10.66549 3.4507994,10.345785 3.230313,9.8662269 3.0153388,9.3866691 3.0153388,8.7417466 h 1.3394545 q 0,0.3858511 0.093707,0.661459 0.093707,0.2700958 0.2700958,0.4464848 0.1819012,0.1708766 0.4244362,0.2535596 0.2480471,0.07717 0.5512158,0.07717 0.3748268,0 0.6118496,-0.132292 Q 6.5486324,9.9103242 6.6643877,9.6677892 6.780143,9.4252542 6.780143,9.1055491 Z M 12.226156,3.152418 v 8.025703 H 10.892213 V 3.152418 Z m 2.04501,0 V 4.2768983 H 8.8692511 V 3.152418 Z m 2.392278,0 v 8.025703 H 15.323989 V 3.152418 Z m 4.007339,0 -2.673397,3.8750473 -1.604038,1.9678406 -0.253559,-1.4000882 1.107943,-1.6426232 1.802476,-2.8001765 z m -1.471747,8.025703 -2.033986,-3.7923654 0.92053,-0.9536034 2.695446,4.7459688 z m 7.565309,-8.025703 v 8.025703 H 25.430402 V 3.152418 Z m 2.04501,0 V 4.2768983 H 23.40744 V 3.152418 Z m 1.848016,3.2135883 V 11.178121 H 29.373038 V 5.2139652 h 1.223699 z m 1.438673,-1.1906262 -0.0055,1.2677965 q -0.110243,-0.027561 -0.237023,-0.033073 -0.121267,-0.011024 -0.242535,-0.011024 -0.264583,0 -0.457509,0.093707 -0.192925,0.093707 -0.325217,0.2700957 -0.132292,0.1763891 -0.209462,0.4244362 -0.07166,0.2480472 -0.08819,0.5622402 L 30.255,7.7605827 q 0,-0.5622401 0.0882,-1.0417979 0.08819,-0.48507 0.264584,-0.8433603 0.181901,-0.3638024 0.451997,-0.5677523 0.270095,-0.2039498 0.628386,-0.2039498 0.09922,0 0.225998,0.022049 0.12678,0.022049 0.181901,0.049609 z m 3.819926,4.5971401 v -4.558555 h 1.284333 v 5.9641558 h -1.207162 z m 0.181902,-1.2457478 0.407899,-0.011024 q 0,0.6008253 -0.110243,1.1079438 -0.110243,0.5071188 -0.341754,0.8819448 -0.225998,0.369315 -0.589801,0.578777 -0.35829,0.20395 -0.865409,0.20395 -0.363802,0 -0.666971,-0.12678 -0.303168,-0.12678 -0.523655,-0.391363 -0.220486,-0.264584 -0.341754,-0.68902 Q 32.944917,9.6567649 32.944917,9.066964 V 5.2139652 h 1.284333 v 3.8640231 q 0,0.3197052 0.05512,0.5346793 0.05512,0.2094621 0.154341,0.3417539 0.09922,0.1267795 0.220486,0.1819015 0.12678,0.04961 0.270096,0.04961 0.43546,0 0.68902,-0.2149741 0.259071,-0.2204863 0.369314,-0.5953131 0.110244,-0.3748267 0.110244,-0.8488724 z M 40.887936,5.2139652 V 6.2061537 H 37.96098 V 5.2139652 Z M 38.760243,3.7532433 h 1.278821 v 5.7602055 q 0,0.2756079 0.06063,0.418924 0.06063,0.1433162 0.170877,0.1929252 0.110244,0.04961 0.259072,0.04961 0.110243,0 0.214974,-0.01654 0.110243,-0.02205 0.159853,-0.03859 v 1.036286 q -0.143317,0.05512 -0.33073,0.09371 -0.187413,0.03858 -0.451997,0.03858 -0.391363,0 -0.700044,-0.159853 -0.308681,-0.165365 -0.48507,-0.534679 Q 38.76024,10.218995 38.76024,9.6016333 Z m 4.39319,2.7340305 V 11.178121 H 41.8691 V 5.2139652 h 1.207162 z m -0.231511,1.4937949 h -0.4079 q -0.0055,-0.6449225 0.137804,-1.1740897 0.143316,-0.5291672 0.4079,-0.9095061 0.264583,-0.3803389 0.633898,-0.5842888 0.374827,-0.209462 0.832336,-0.209462 0.35829,0 0.650435,0.1212675 0.297656,0.1157553 0.507118,0.3803389 0.209462,0.2645836 0.319705,0.6890198 0.115756,0.4244362 0.115756,1.0362858 V 11.178121 H 44.834641 V 7.3196097 q 0,-0.418924 -0.09371,-0.661459 -0.08819,-0.2480471 -0.264583,-0.3527781 -0.176389,-0.1102432 -0.446485,-0.1102432 -0.248047,0 -0.457509,0.1433161 -0.20395,0.137804 -0.352779,0.3858511 -0.143316,0.242535 -0.220486,0.5677524 -0.07717,0.3197051 -0.07717,0.6890197 z m 4.293974,0.4575092 V 7.9590201 q 0,-0.6945319 0.170877,-1.2292113 0.170877,-0.5346794 0.48507,-0.8929697 0.319705,-0.3638024 0.749654,-0.5457036 0.429948,-0.1874134 0.948091,-0.1874134 0.529167,0 0.959115,0.1874134 0.435461,0.1819012 0.749654,0.5457036 0.319705,0.3582903 0.490582,0.8929697 0.170877,0.5346794 0.170877,1.2292113 v 0.4795578 q 0,0.694532 -0.170877,1.2292113 -0.170877,0.5346798 -0.490582,0.8984818 -0.314193,0.35829 -0.744141,0.540192 -0.429949,0.181901 -0.953604,0.181901 -0.518143,0 -0.953603,-0.181901 Q 48.19706,10.924561 47.877355,10.566271 47.55765,10.202469 47.386773,9.6677892 47.215896,9.1331099 47.215896,8.4385779 Z m 1.284333,-0.4795578 v 0.4795578 q 0,0.4464848 0.07717,0.7827265 0.07717,0.3307295 0.220487,0.5512158 0.143316,0.2204864 0.341754,0.3307298 0.198437,0.110243 0.440972,0.110243 0.270096,0 0.468534,-0.110243 0.20395,-0.1102434 0.336241,-0.3307298 0.137804,-0.2204863 0.20395,-0.5512158 0.06615,-0.3362417 0.06615,-0.7827265 V 7.9590201 q 0,-0.4409727 -0.07717,-0.7717022 -0.07717,-0.3362416 -0.22049,-0.556728 Q 50.21451,6.4045915 50.010561,6.2943483 49.812123,6.1841051 49.569588,6.1841051 q -0.237023,0 -0.435461,0.1102432 -0.192925,0.1102432 -0.336241,0.3362416 -0.143316,0.2204864 -0.220487,0.556728 -0.07717,0.3307295 -0.07717,0.7717022 z m 6.124008,2.1497419 1.102431,-4.8947968 h 1.328431 l -1.697745,5.9641558 h -0.821312 z m -0.782727,-4.8947968 1.141017,4.9113328 0.05512,1.052823 h -0.8158 L 52.51308,5.2139652 Z"
       id="text2"
       aria-label="STK Trutnov" />
  </g>
</svg>
