<?xml version="1.0" encoding="UTF-8" standalone="no"?>
<!-- Created with Inkscape (http://www.inkscape.org/) -->

<svg
   version="1.1"
   id="svg215"
   width="71.428558"
   height="10"
   viewBox="0 0 71.428561 9.9999999"
   sodipodi:docname="logo-skoda.svg"
   inkscape:version="1.2 (dc2aeda, 2022-05-15)"
   xmlns:inkscape="http://www.inkscape.org/namespaces/inkscape"
   xmlns:sodipodi="http://sodipodi.sourceforge.net/DTD/sodipodi-0.dtd"
   xmlns="http://www.w3.org/2000/svg"
   xmlns:svg="http://www.w3.org/2000/svg">
  <defs
     id="defs219">
    <clipPath
       clipPathUnits="userSpaceOnUse"
       id="clipPath231">
      <path
         d="M 0,140 H 1000 V 0 H 0 Z"
         id="path229" />
    </clipPath>
  </defs>
  <sodipodi:namedview
     id="namedview217"
     pagecolor="#505050"
     bordercolor="#eeeeee"
     borderopacity="1"
     inkscape:showpageshadow="0"
     inkscape:pageopacity="0"
     inkscape:pagecheckerboard="0"
     inkscape:deskcolor="#505050"
     showgrid="false"
     inkscape:zoom="10.078878"
     inkscape:cx="42.068174"
     inkscape:cy="9.4752609"
     inkscape:window-width="1680"
     inkscape:window-height="997"
     inkscape:window-x="0"
     inkscape:window-y="25"
     inkscape:window-maximized="1"
     inkscape:current-layer="g223">
    <inkscape:page
       x="0"
       y="0"
       id="page221"
       width="71.428558"
       height="10" />
  </sodipodi:namedview>
  <g
     id="g223"
     inkscape:groupmode="layer"
     inkscape:label="Page 1"
     transform="matrix(1.3333333,0,0,-1.3333333,-2.6666665e-4,186.66666)">
    <g
       id="g225"
       transform="matrix(0.05357143,0,0,0.05357143,1.8928571e-4,132.5)">
      <g
         id="g227"
         clip-path="url(#clipPath231)">
        <g
           id="g233"
           transform="translate(205.5412)">
          <path
             d="M 0,0 V 140 H 33.346 V 85.482 H 77.543 L 134.972,140 h 44.197 L 106.125,70.397 180.492,0 H 133.649 L 76.22,55.312 H 33.346 V 0 Z M -135.938,110.888 -154.993,140 H -39.87 L -58.395,110.888 Z M 658.693,54.253 h 67.221 L 692.303,113.8 Z M 590.942,0 669.543,140 h 46.314 L 794.459,0 h -38.11 L 742.852,24.083 H 675.895 L 657.899,52.665 628.258,0 Z M 314.319,0 h -71.72 c -33.876,0 -53.46,19.584 -53.46,52.136 v 35.728 c 0,32.552 19.584,52.136 53.46,52.136 h 71.72 c 33.875,0 53.46,-19.584 53.46,-52.136 V 52.136 C 367.779,19.584 348.194,0 314.319,0 m -70.927,30.17 h 70.133 c 12.703,0 20.907,7.94 20.907,20.378 v 38.904 c 0,12.438 -8.204,20.378 -20.907,20.378 h -70.133 c -12.703,0 -20.907,-7.94 -20.907,-20.378 V 50.548 c 0,-12.438 8.204,-20.378 20.907,-20.378 M 404.991,0 v 140 h 117.241 c 34.934,0 55.047,-20.113 55.047,-53.459 V 53.459 C 577.279,20.113 557.166,0 522.232,0 Z m 33.346,30.17 h 83.101 c 13.762,0 22.495,8.469 22.495,21.701 v 36.258 c 0,13.232 -8.733,21.701 -22.495,21.701 H 438.337 Z M -205.541,0 l 18.525,29.641 h 107.449 c 6.087,0 10.056,3.97 10.056,10.057 V 56.9 h -92.363 c -27.524,0 -39.697,12.174 -39.697,39.168 v 11.645 c 0,20.113 11.909,32.287 30.699,32.287 h 2.117 V 96.597 c 0,-6.087 3.97,-10.056 10.057,-10.056 h 89.452 c 20.378,0 32.552,-12.174 32.552,-32.023 V 39.168 C -36.694,12.968 -49.662,0 -76.391,0 Z"
             style="fill:#0c3725;fill-opacity:1;fill-rule:nonzero;stroke:none"
             id="path235" />
        </g>
      </g>
    </g>
  </g>
</svg>
