<?xml version="1.0" encoding="UTF-8"?>
<svg width="32px" height="20px" viewBox="0 0 32 20" version="1.1" xmlns="http://www.w3.org/2000/svg" xmlns:xlink="http://www.w3.org/1999/xlink">
    <title>Combined-Shape</title>
    <g id="Desktop" stroke="none" stroke-width="1" fill="none" fill-rule="evenodd">
        <g id="Stachema-Kontakt-Copy" transform="translate(-333.000000, -551.000000)" fill="#FFFFFF" fill-rule="nonzero">
            <g id="Region" transform="translate(321.000000, 533.000000)">
                <g id="logo-stachema" transform="translate(8.000000, 8.000000)">
                    <path d="M19.9232966,10 L28.4773948,14.9170796 L28.479089,16.1561691 L27.6972314,16.1561691 C27.6972314,16.1561691 27.6966384,15.6402267 27.6961302,15.3679801 C27.3326468,15.1590859 20.2873729,11.1090058 19.9238896,10.9001117 C19.5609992,11.1101039 12.5214855,15.1682087 12.1580022,15.3771028 C12.1580022,15.6487582 12.1585951,16.1561691 12.1585951,16.1561691 L11.3767375,16.1561691 L11.3761446,14.9278917 L19.7281287,10.1130208 L19.9232966,10 M12.1637623,23.534956 C12.1637623,23.534956 12.1642706,24.052081 12.1642706,24.323145 C12.5271609,24.5332218 19.5730278,28.5833019 19.9365111,28.7916047 C20.2994015,28.5822038 27.339,24.5235077 27.7023986,24.3140223 C27.7023986,24.0429582 27.7018056,23.5355473 27.7018056,23.5355473 L28.483155,23.534956 L28.4836632,24.7643315 L19.9371041,29.6923077 L11.382413,24.7740456 L11.3813118,23.5355473 L12.1637623,23.534956 M4,21.7501907 C4.28165509,21.9019832 4.71603925,22.0161866 5.20489085,22.0161866 C6.27179187,22.0161866 6.81324732,21.5070862 6.81324732,20.8073373 C6.80638595,20.2674054 6.51617531,19.9100976 5.80699743,19.6669086 C5.34965733,19.5145249 5.20489085,19.4157795 5.20489085,19.2411802 C5.20489085,19.0584717 5.36456599,18.9437615 5.64672933,18.9437615 C5.95921825,18.9437615 6.28720878,19.065905 6.45433826,19.1497837 L6.65297922,18.359314 C6.42401269,18.2451951 6.04282534,18.1384251 5.60835647,18.1384251 C4.68630664,18.1384251 4.09156967,18.6629834 4.09156967,19.3632392 C4.08360709,19.7964855 4.38127205,20.2142738 5.15906366,20.4728363 C5.58607819,20.6098466 5.7005191,20.7085919 5.7005191,20.898058 C5.7005191,21.0887066 5.55515966,21.2022342 5.20489085,21.2022342 C4.8614834,21.2022342 4.41956021,21.0584664 4.20609529,20.9288895 L4,21.7501907 M8.81880101,17.2115365 L8.81880101,18.2223038 L9.64987413,18.2223038 L9.64987413,19.0739297 L8.81880101,19.0739297 L8.81880101,20.4197892 C8.81880101,20.868409 8.93324192,21.0732486 9.27614111,21.0732486 C9.43581626,21.0732486 9.51247727,21.0658153 9.61954856,21.0430084 L9.62700289,21.9180325 C9.4821517,21.9710796 9.19998835,22.0167778 8.87945215,22.0167778 C8.50631209,22.0167778 8.19323022,21.887201 8.00255184,21.6971436 C7.78967988,21.4762547 7.68210034,21.1195382 7.68210034,20.5943886 L7.68210034,19.0739297 L7.18698033,19.0739297 L7.18698033,18.2223038 L7.68210034,18.2223038 L7.68210034,17.5225548 L8.81880101,17.2115365 M13.4240524,21.0430084 C13.4240524,21.3922916 13.439554,21.7348172 13.4852965,21.9402481 L12.4407585,21.9402481 L12.37206,21.5675667 L12.3485958,21.5675667 C12.1053136,21.8649009 11.7241262,22.0236199 11.2816948,22.0236199 C10.5267744,22.0236199 10.0768887,21.4762547 10.0768887,20.8831913 C10.0768887,19.9180378 10.9463346,19.4614777 12.2650734,19.4614777 L12.2650734,19.4157795 C12.2650734,19.2188801 12.1580022,18.9369194 11.5862211,18.9369194 C11.2056267,18.9369194 10.8008905,19.0664963 10.5571,19.2108554 L10.3436351,18.4734329 C10.6028425,18.3284825 11.1134641,18.1384251 11.7922317,18.1384251 C13.0354107,18.1384251 13.4240524,18.8684143 13.4240524,19.7428471 L13.4240524,21.0430084 Z M12.3033616,20.1840336 C11.6932077,20.1840336 11.2210437,20.3283927 11.2210437,20.7690724 C11.2210437,21.0653085 11.4190917,21.2102589 11.6777908,21.2102589 C11.9599542,21.2102589 12.2038293,21.0207928 12.2804904,20.7844459 C12.295992,20.7233742 12.3033616,20.654869 12.3033616,20.5869552 L12.3033616,20.1840336 L12.3033616,20.1840336 Z M17.1450338,21.8409114 C16.9390233,21.9396568 16.5503816,22.0167778 16.1079501,22.0167778 C14.9036523,22.0167778 14.1326373,21.278764 14.1326373,20.1155285 C14.1326373,19.0356648 14.880781,18.1464498 16.2676253,18.1464498 C16.5732528,18.1464498 16.908613,18.1989056 17.1524882,18.2903021 L16.9693488,19.1497837 C16.8325449,19.0887119 16.6264496,19.0356648 16.3214151,19.0356648 C15.7112612,19.0356648 15.3157581,19.4694179 15.3226195,20.0699147 C15.3226195,20.7542057 15.7805526,21.1109222 16.3442863,21.1109222 C16.61908,21.1109222 16.8325449,21.0658998 17.0082299,20.9899613 L17.1450338,21.8409114 M17.7855133,21.9402481 L18.9445769,21.9402481 L18.9445769,19.736005 C18.9445769,19.6515351 18.9520313,19.5521985 18.9829498,19.4848759 C19.0664722,19.2719272 19.2565576,19.0739297 19.5627781,19.0739297 C19.9965693,19.0739297 20.1642917,19.4083462 20.1642917,19.8952309 L20.1642917,21.9402481 L21.3233554,21.9402481 L21.3233554,19.7736786 C21.3233554,18.6481167 20.7590287,18.1390164 20.0195253,18.1390164 C19.8059756,18.1390164 19.5925107,18.1920635 19.417334,18.2833755 C19.2347876,18.374772 19.0819738,18.5037576 18.9594856,18.6709236 L18.9445769,18.6709236 L18.9445769,16.5345944 L17.7855133,16.5345944 L17.7855133,21.9402481 M23.1457697,20.4500294 C23.1835496,20.9294808 23.6563067,21.1572118 24.1977621,21.1572118 C24.5944511,21.1572118 24.9143943,21.1034889 25.2280692,20.9973946 L25.379697,21.7810222 C24.9985097,21.9396568 24.5337999,22.0161866 24.0300397,22.0161866 C22.7645824,22.0161866 22.0393947,21.2867042 22.0393947,20.1235531 C22.0393947,19.1801084 22.6346399,18.1384251 23.9236461,18.1384251 C25.1278592,18.1384251 25.5851993,19.0733384 25.5851993,19.9939762 C25.5851993,20.1908757 25.5623281,20.3661508 25.5474194,20.4500294 L23.1457697,20.4500294 Z M24.510251,19.6589685 C24.510251,19.3781059 24.3883558,18.9066792 23.862402,18.9066792 C23.366689,18.9066792 23.168048,19.355299 23.1383154,19.6589685 L24.510251,19.6589685 L24.510251,19.6589685 Z M26.2789603,21.9396568 L27.4070207,21.9396568 L27.4070207,19.781112 C27.4070207,19.6817753 27.4144751,19.5755966 27.4528479,19.4842846 C27.5215463,19.3016606 27.6972314,19.0733384 27.9948963,19.0733384 C28.3680364,19.0733384 28.5357588,19.3929726 28.5357588,19.856966 L28.5357588,21.9396568 L29.6639039,21.9396568 L29.6639039,19.765654 C29.6639039,19.674342 29.6793209,19.5607299 29.7022768,19.4768513 C29.7863921,19.2565537 29.9695315,19.0733384 30.2437322,19.0733384 C30.6174653,19.0733384 30.792642,19.3855393 30.792642,19.9254711 L30.792642,21.9396568 L31.9212954,21.9396568 L31.9212954,19.7502805 C31.9212954,18.6406834 31.37984,18.1384251 30.6632925,18.1384251 C30.3890917,18.1384251 30.1601252,18.2069302 29.9541146,18.3205423 C29.7709752,18.4272278 29.6107071,18.5791048 29.4658559,18.7771023 L29.450439,18.7771023 C29.2907639,18.3895542 28.9163532,18.1384251 28.4292805,18.1384251 C27.7962554,18.1384251 27.4603022,18.4877083 27.3005424,18.7314885 L27.2776712,18.7314885 L27.2319287,18.2217969 L26.2480418,18.2217969 C26.2634587,18.5562134 26.2789603,21.9396568 26.2789603,21.9396568 M35.9393489,21.0430084 C35.9393489,21.3922916 35.9548505,21.7348172 36,21.9402481 L34.9560549,21.9402481 L34.8873565,21.5675667 L34.8638923,21.5675667 C34.6206101,21.8649009 34.2388298,22.0236199 33.7969913,22.0236199 C33.0420709,22.0236199 32.5921851,21.4762547 32.5921851,20.8831913 C32.5921851,19.9180378 33.4610382,19.4614777 34.7802852,19.4614777 L34.7802852,19.4157795 C34.7802852,19.2188801 34.6738916,18.9369194 34.1015176,18.9369194 C33.7208385,18.9369194 33.316187,19.0664963 33.0723965,19.2108554 L32.8588469,18.4734329 C33.118139,18.3284825 33.6292688,18.1384251 34.3075282,18.1384251 C35.5507072,18.1384251 35.9393489,18.8684143 35.9393489,19.7428471 L35.9393489,21.0430084 Z M34.8180651,20.1840336 C34.2085042,20.1840336 33.7363401,20.3283927 33.7363401,20.7690724 C33.7363401,21.0653085 33.9343881,21.2102589 34.1936802,21.2102589 C34.4758436,21.2102589 34.7190411,21.0207928 34.7957868,20.7844459 C34.8112037,20.7233742 34.8180651,20.654869 34.8180651,20.5869552 L34.8180651,20.1840336 L34.8180651,20.1840336 Z" id="Combined-Shape"></path>
                </g>
            </g>
        </g>
    </g>
</svg>