<svg width="73" height="20" viewBox="0 0 73 20" fill="none" xmlns="http://www.w3.org/2000/svg">
<path d="M67.3652 10.6784L68.5056 7.6871L69.6447 10.6784H67.3652ZM69.6903 5.98851H67.3208L64.0098 14.0991H66.0623L66.8162 12.1199H70.194L70.9484 14.0991H73L69.6903 5.98851ZM52.979 12.689C51.6419 12.689 50.5599 11.4831 50.5599 9.99478C50.5599 8.50649 51.6424 7.29964 52.979 7.29964C54.3138 7.29964 55.3976 8.50629 55.3976 9.99478C55.3976 11.4833 54.3138 12.689 52.979 12.689ZM52.979 5.71045C52.1318 5.7107 51.3037 5.96214 50.5994 6.43299C49.8951 6.90383 49.3462 7.57293 49.0222 8.35569C48.6981 9.13846 48.6134 9.99973 48.7788 10.8306C48.9442 11.6615 49.3522 12.4247 49.9514 13.0237C50.5505 13.6227 51.3137 14.0306 52.1446 14.1959C52.9756 14.3611 53.8368 14.2763 54.6195 13.9521C55.4022 13.6279 56.0712 13.0789 56.542 12.3745C57.0127 11.6701 57.264 10.842 57.2641 9.99478C57.2638 8.85844 56.8123 7.76872 56.0087 6.96528C55.2051 6.16184 54.1153 5.71048 52.979 5.71045ZM36.0704 12.689C34.7355 12.689 33.6528 11.4831 33.6528 9.99478C33.6528 8.50649 34.7352 7.29964 36.0704 7.29964C37.4056 7.29964 38.4897 8.50629 38.4897 9.99478C38.4897 11.4833 37.407 12.689 36.0704 12.689ZM36.0704 5.71045C35.2232 5.71068 34.3951 5.96211 33.6908 6.43294C32.9865 6.90377 32.4376 7.57287 32.1135 8.35563C31.7895 9.13839 31.7048 9.99967 31.8702 10.8306C32.0356 11.6615 32.4436 12.4247 33.0427 13.0237C33.6418 13.6227 34.4051 14.0306 35.236 14.1958C36.0669 14.3611 36.9282 14.2763 37.7109 13.9521C38.4936 13.6279 39.1626 13.0789 39.6333 12.3745C40.104 11.6701 40.3553 10.842 40.3554 9.99478C40.3555 9.43206 40.2448 8.87484 40.0295 8.35495C39.8142 7.83505 39.4985 7.36267 39.1006 6.96481C38.7027 6.56694 38.2302 6.25138 37.7103 6.03615C37.1904 5.82092 36.6331 5.71025 36.0704 5.71045ZM46.6613 5.98851L44.5619 9.27001L42.4607 5.98851H40.4076L43.6573 11.0747V14.0991H45.4647V11.0755L48.7145 5.98851H46.6613ZM64.4416 5.98851H57.5065V7.54377H60.0752V14.0991H61.8844V7.54377H64.4418L64.4416 5.98851ZM24.4732 7.54377H27.0427V14.0991H28.8508V7.54377H31.4091V5.98851H24.4732V7.54377Z" fill="#CC0033"/>
<path fill-rule="evenodd" clip-rule="evenodd" d="M0.142822 0.2677H19.6074V19.7323H0.142822V0.2677ZM6.62932 5.76854C8.74941 5.15256 11.001 5.15256 13.1211 5.76854C15.5233 6.54153 17.1743 8.14512 17.1743 9.99874C17.1743 12.6066 13.907 14.7211 9.87536 14.7211C5.84366 14.7211 2.57579 12.6066 2.57579 9.99874C2.57579 8.14512 4.22664 6.54095 6.62932 5.76854ZM8.75366 10.0215C8.78246 11.5078 9.27372 12.6907 9.87536 12.6907C10.4763 12.6907 10.9675 11.5078 10.9965 10.0215C10.6348 10.054 10.26 10.0714 9.87536 10.0714C9.49069 10.0714 9.11541 10.054 8.75366 10.0215ZM9.87536 7.07561C9.39965 7.07561 8.99373 7.81458 8.82943 8.8579C9.16412 8.88806 9.51437 8.90478 9.87536 8.90478C10.2363 8.90478 10.5865 8.88806 10.9207 8.8579C10.7568 7.81458 10.3511 7.07561 9.87536 7.07561ZM9.87536 5.96773C10.6539 5.96773 11.3158 7.14162 11.5599 8.77913H11.5604C13.0432 8.54766 14.0797 8.02093 14.0797 7.40721C14.0797 6.58029 12.1973 5.90984 9.87545 5.90984C7.55357 5.90984 5.67124 6.58029 5.67124 7.40721C5.67124 8.02093 6.70761 8.54766 8.19029 8.77913C8.43442 7.14162 9.09685 5.96773 9.87536 5.96773ZM4.48604 7.63279C3.94916 8.27734 3.64153 9.02655 3.64153 9.82593H3.64124C3.64124 12.1059 6.13999 13.9765 9.32581 14.1713C8.60878 13.6253 8.09007 12.0415 8.09007 10.1716C8.09007 10.0947 8.09132 10.0187 8.09297 9.94268C5.987 9.62858 4.47638 8.77324 4.47638 7.7681C4.47654 7.72283 4.47977 7.67762 4.48604 7.63279ZM11.6604 10.1716C11.6604 12.0416 11.1418 13.6253 10.4252 14.1713C13.6103 13.9765 16.1091 12.1059 16.1091 9.82593C16.1091 9.02655 15.8013 8.27734 15.2646 7.63279C15.2708 7.67762 15.2741 7.72283 15.2742 7.7681C15.2742 8.77324 13.7634 9.62848 11.6578 9.94268C11.6596 10.0187 11.6604 10.0943 11.6604 10.1716Z" fill="#CC0033"/>
</svg>
