<?xml version="1.0" encoding="UTF-8" standalone="no"?>
<!-- Generator: Adobe Illustrator 16.0.0, SVG Export Plug-In . SVG Version: 6.00 Build 0)  -->

<svg
   version="1.1"
   id="Layer_1"
   x="0px"
   y="0px"
   width="234.74718"
   height="80"
   viewBox="0 0 234.74718 80"
   enable-background="new 0 0 402.5 147"
   xml:space="preserve"
   sodipodi:docname="logo.svg"
   inkscape:version="1.2 (dc2aeda, 2022-05-15)"
   xmlns:inkscape="http://www.inkscape.org/namespaces/inkscape"
   xmlns:sodipodi="http://sodipodi.sourceforge.net/DTD/sodipodi-0.dtd"
   xmlns="http://www.w3.org/2000/svg"
   xmlns:svg="http://www.w3.org/2000/svg"><defs
   id="defs195" /><sodipodi:namedview
   id="namedview193"
   pagecolor="#505050"
   bordercolor="#eeeeee"
   borderopacity="1"
   inkscape:showpageshadow="0"
   inkscape:pageopacity="0"
   inkscape:pagecheckerboard="0"
   inkscape:deskcolor="#505050"
   showgrid="false"
   inkscape:zoom="3.0956522"
   inkscape:cx="120.49157"
   inkscape:cy="65.73736"
   inkscape:window-width="2560"
   inkscape:window-height="1387"
   inkscape:window-x="0"
   inkscape:window-y="25"
   inkscape:window-maximized="1"
   inkscape:current-layer="Layer_1" />
<path
   fill-rule="evenodd"
   clip-rule="evenodd"
   fill="#2b2a29"
   d="m 17.871698,49.388679 c 0.06038,0 0.06038,0.06038 0.06038,0.06038 0,0.06038 -0.06038,0.06038 -0.06038,0.06038 -0.06038,0 -0.06038,-0.06038 -0.06038,-0.06038 0,-0.06038 0,-0.06038 0.06038,-0.06038 m -0.966038,0 c 0.06038,0 0.06038,0.06038 0.06038,0.06038 0,0.06038 -0.06038,0.06038 -0.06038,0.06038 -0.06038,0 -0.06038,-0.06038 -0.06038,-0.06038 0,-0.06038 0.06038,-0.06038 0.06038,-0.06038 z m 0.966038,3.683019 c 0.06038,0 0.06038,0.06038 0.06038,0.06038 0,0.06038 -0.06038,0.06038 -0.06038,0.06038 -0.06038,0 -0.06038,-0.06038 -0.06038,-0.06038 0,0 0,-0.06038 0.06038,-0.06038 z m -0.966038,0 c 0.06038,0 0.06038,0.06038 0.06038,0.06038 0,0.06038 -0.06038,0.06038 -0.06038,0.06038 -0.06038,0 -0.06038,-0.06038 -0.06038,-0.06038 0,0 0.06038,-0.06038 0.06038,-0.06038 z m 2.233963,-7.064151 c -2.113208,0.181132 -2.475472,1.449057 -2.475472,3.2 v 0 c 0.301887,0 0.603774,0 0.845283,0 0.06038,0 0.120755,0 0.241509,-0.06038 0.120755,-0.06038 0.120755,-0.24151 0.06038,-0.483019 0.362264,0.06038 0.422641,0.241509 0.362264,0.543396 0.241509,0.06038 0.422641,0.181132 0.422641,0.24151 0,0.06038 -0.120754,0.181132 -0.422641,0.241509 0.06038,0.241509 0,0.483019 -0.362264,0.543396 0.06038,-0.241509 0.06038,-0.422641 -0.06038,-0.483019 -0.06038,-0.06038 -0.120754,-0.06038 -0.241509,-0.06038 -0.241509,0 -0.543396,0 -0.784906,0 0,1.086792 0,2.173585 0,3.260377 0.301887,0 0.543397,0 0.845283,0 0.06038,0 0.120755,0 0.24151,-0.06038 0.120754,-0.06038 0.120754,-0.241509 0.06038,-0.483019 0.362264,0.06038 0.422642,0.24151 0.362264,0.543396 0.24151,0.06038 0.422642,0.120755 0.422642,0.24151 0,0.06038 -0.120755,0.181132 -0.422642,0.241509 0.06038,0.24151 0,0.483019 -0.362264,0.543396 0.06038,-0.241509 0.06038,-0.422641 -0.06038,-0.483018 -0.06038,-0.06038 -0.120755,-0.06038 -0.24151,-0.06038 -0.241509,0 -0.543396,0 -0.784905,0 0,0.301887 0,0.603774 0,0.905661 l 0.724528,-0.120755 0.724528,-0.181132 0.724529,-0.181132 0.362264,-0.120755 c -0.181132,-2.596226 -0.181132,-5.192453 -0.181132,-7.728302 z m 1.932075,6.822642 h -1.750943 v 0.784905 l 0.120754,-0.06038 0.664151,-0.241509 0.603774,-0.301887 z m 2.898113,-3.260378 h -2.05283 v 0.966038 h 1.932076 l 0.120754,-0.120755 z m 0.664151,0 h -0.543396 v 0.664151 l 0.120755,-0.120754 z m -1.992453,2.173585 h -0.664151 v 0.543396 L 22.4,51.924528 Z m 1.086793,-1.086792 h -0.724528 v 0.724528 l 0.362264,-0.301887 z m 1.328302,-2.113208 h -2.05283 v 0.966038 h 1.690566 l 0.301886,-0.422642 0.06038,-0.120754 z m 0.241509,0 h -0.120755 v 0.181132 z m 0.603774,-1.086792 h -1.750944 v 0.966038 h 1.267925 l 0.301887,-0.543397 z m -2.898113,-1.086793 h 2.05283 v 0.966038 h -2.05283 z m 3.320754,0 h -1.14717 v 0.966038 h 0.724529 l 0.06038,-0.06038 0.301887,-0.664151 z m -2.233962,-1.086792 h 2.05283 v 0.966038 h -2.05283 z m 2.596226,0 h -0.422641 v 0.966038 h 0.120755 L 26.50566,45.94717 Z m -3.683018,-1.086793 h 2.05283 v 0.966038 h -2.05283 z m 4.045283,0 h -1.811321 v 0.966038 h 1.569811 l 0.181132,-0.603773 z m -7.728302,7.54717 h 0.301887 v 0.966038 h -0.301887 z m 2.475471,0 h -2.05283 v 0.966038 h 1.509434 v 0 l 0.543396,-0.362264 z m -2.475471,-2.173585 h 0.301887 v 0.966038 h -0.301887 z m 0.422641,0 h 2.05283 v 0.966038 h -2.05283 z m -0.422641,-2.113207 h 0.301887 v 0.966038 h -0.301887 z m 0.422641,0 h 2.05283 v 0.966038 h -2.05283 z m 2.173585,0 h 2.05283 v 0.966038 h -2.05283 z m -2.173585,-2.173585 h 2.05283 v 0.966038 h -2.05283 z m 2.173585,0 h 2.05283 v 0.966038 h -2.05283 z m -2.596226,5.373585 h 1.388679 v 0.966038 h -1.388679 z m 3.562264,0 h -2.05283 v 0.966038 h 1.932075 l 0.120755,-0.120755 v 0 z m -3.562264,-2.113208 h 1.388679 v 0.966038 h -1.388679 z m 1.509434,0 h 2.05283 v 0.966038 h -2.05283 z m -1.509434,-2.173585 h 1.388679 v 0.966038 h -1.388679 z m 1.509434,0 h 2.05283 v 0.966038 h -2.05283 z m -2.173585,-2.173585 h 2.05283 v 0.966038 h -2.05283 z m -0.483019,0 h 0.362264 v 0.966038 h -0.362264 z m 2.656604,0 h 2.05283 v 0.966038 h -2.05283 z m -1.207547,1.086793 h -1.449057 v 0.724528 h 0.06038 l 0.181132,-0.06038 0.181132,-0.06038 0.181132,-0.06038 h 0.181133 l 0.422641,-0.06038 v 0.422641 h 0.301887 v -0.90566 z m -1.449057,-1.267925 h 8.875472 l 0.06038,-0.181132 0.181132,-0.724528 0.120755,-0.724528 0.06038,-0.483019 h -0.301887 v 0.784905 H 25.96227 v -0.784905 h -0.90566 v 0.784905 h -1.207547 v -0.784905 h -0.905661 v 0.784905 h -1.207547 v -0.784905 h -0.90566 v 0.784905 h -1.207547 v -0.784905 h -0.784906 v 0.784905 h -0.664151 z m 9.418868,-2.716981 h -0.362264 v 0.422642 h 0.301886 v -0.181132 c 0,-0.06038 0,-0.120755 0.06038,-0.24151 z m -1.569811,0.422642 v -0.422642 h -0.905661 v 0.422642 z m -2.113208,0 v -0.422642 h -0.90566 v 0.422642 z m -2.113208,0 v -0.422642 h -0.90566 v 0.422642 z m -2.05283,0 v -0.422642 h -0.90566 v 0.422642 z M 7.909434,51.743396 h 0.845283 v 0.966038 H 7.909434 Z m -2.173585,0 h 2.05283 v 0.966038 H 6.762264 v 0 L 6.218868,52.34717 5.735849,51.984906 Z m -0.301887,0 h 0.181132 v 0.181132 z m 2.475472,-2.173585 h 0.845283 v 0.966038 H 7.909434 Z m -2.173585,0 h 2.05283 v 0.966038 h -2.05283 z m -2.173585,0 h 2.05283 v 0.966038 H 4.226415 L 3.864151,50.113208 3.562264,49.750943 Z m 4.34717,-2.113207 h 0.845283 v 0.966038 H 7.909434 Z m -2.173585,0 h 2.05283 v 0.966038 h -2.05283 z m -3.501887,0 h 1.267925 v 0.966038 H 2.716981 L 2.415094,47.879245 Z m 1.328302,0 h 2.05283 v 0.966038 h -2.05283 z m 4.34717,-2.173585 h 1.992453 v 0.724528 H 9.841507 L 9.660375,45.947167 9.539621,45.886787 9.358489,45.826407 H 9.177356 l -0.422641,-0.06038 v 0.422641 H 7.909432 v -0.90566 z m -2.173585,0 h 2.05283 v 0.966038 h -2.05283 z m -4.3471698,0 H 3.441509 v 0.966038 H 1.690566 L 1.5698113,45.94717 1.3886792,45.403774 Z m 2.1735848,0 h 2.05283 v 0.966038 h -2.05283 z m 3.44151,7.54717 h 1.750943 v 0.845283 L 8.633962,53.615092 7.969811,53.313206 7.366038,53.011319 Z M 6.822642,50.656604 h 1.932075 v 0.966038 H 6.822642 Z m -2.173585,0 h 2.05283 v 0.966038 H 5.313208 L 5.192453,51.562262 4.709434,51.139621 4.649054,51.079241 V 50.6566 Z m -0.301887,0 h 0.241509 v 0.241509 z m 2.475472,-2.113208 h 1.932075 v 0.966038 H 6.822642 Z m -2.173585,0 h 2.05283 v 0.966038 h -2.05283 z m -1.871699,0 h 1.750944 v 0.966038 H 3.381132 L 3.079245,49.086792 Z M 1.7509434,46.369811 H 2.354717 v 0.966038 H 2.1132075 v -0.06038 L 1.8113208,46.611321 Z m 5.0716986,0 h 1.932075 v 0.966038 H 6.822642 Z m -2.173585,0 h 2.05283 v 0.966038 h -2.05283 z m -2.173585,0 h 2.05283 v 0.966038 H 2.475472 Z M 1.0867925,44.196226 H 2.415094 v 0.966038 H 1.3283019 L 1.1471698,44.558491 Z m 5.7358495,0 h 2.05283 v 0.966038 h -2.05283 z m 2.173584,0 h 0.905661 v 0.966038 H 8.996226 Z m -4.347169,0 h 2.05283 v 0.966038 h -2.05283 z m -2.173585,0 h 2.05283 v 0.966038 H 2.475472 Z M 9.901887,44.015094 H 1.0264151 L 0.9660377,43.833962 0.7849057,43.109434 0.6641509,42.384906 0.6037736,41.901887 h 0.3018868 v 0.784905 H 2.1132075 V 41.901887 H 3.018868 v 0.784905 h 1.207547 v -0.784905 h 0.90566 v 0.784905 h 1.207548 v -0.784905 h 0.90566 v 0.784905 H 8.45283 v -0.784905 h 0.905661 v 0.784905 h 0.664151 v 1.328302 z M 0.4830189,41.298113 H 0.845283 v 0.422642 H 0.5433962 v -0.181132 c 0,-0.06038 0,-0.120755 -0.0603773,-0.24151 z m 1.5698113,0.422642 V 41.298113 H 2.958491 v 0.422642 z m 2.1132078,0 v -0.422642 h 0.90566 v 0.422642 z m 2.113207,0 v -0.422642 h 0.905661 v 0.422642 z m 2.05283,0 v -0.422642 h 0.905661 v 0.422642 z m 3.018868,-19.803774 c -0.301886,0 -0.483018,0.24151 -0.483018,0.483019 0,0.301887 0.241509,0.483019 0.483018,0.483019 0.301887,0 0.483019,-0.24151 0.483019,-0.483019 0,-0.241509 -0.241509,-0.483019 -0.483019,-0.483019 z m 5.373585,0 c -0.301886,0 -0.483019,0.24151 -0.483019,0.483019 0,0.301887 0.24151,0.483019 0.483019,0.483019 0.301887,0 0.483019,-0.24151 0.483019,-0.483019 0.06038,-0.241509 -0.181132,-0.483019 -0.483019,-0.483019 z m -1.328302,20.950944 h 1.14717 v 1.569811 h -1.14717 z m -3.864151,0 h 1.14717 v 1.569811 h -1.14717 z m 2.656604,-7.366038 h 0.966038 v 3.260377 h -0.966038 z m 0,-1.811321 h 0.966038 v 1.569811 h -0.966038 z m -1.267924,1.811321 h 0.966037 v 3.260377 h -0.966037 z m 0,-1.811321 h 0.966037 v 1.569811 h -0.966037 z m 14.85283,4.528302 c 0,0.301887 0,0.603774 0,0.90566 l -0.06038,0.845283 -0.06038,0.784906 -0.06038,0.362264 h -0.603774 v 1.328302 h -0.784905 c 0,-0.422641 0,-0.90566 0,-1.328302 h -1.267925 c 0,0.422642 0,0.905661 0,1.328302 h -0.845283 c 0,-0.422641 0,-0.90566 0,-1.328302 h -1.267924 c 0,0.422642 0,0.905661 0,1.328302 H 21.97735 c 0,-0.422641 0,-0.90566 0,-1.328302 h -1.267924 c 0,0.422642 0,0.905661 0,1.328302 h -0.845283 c 0,-0.422641 0,-0.90566 0,-1.328302 h -1.267925 c 0,0.422642 0,0.905661 0,1.328302 h -0.48301 V 31.637736 l 1.750943,-2.29434 h -1.449057 c -0.06038,-0.120754 -0.181132,-0.301887 -0.241509,-0.422641 -0.120755,-0.24151 -0.24151,-0.543397 -0.362264,-0.784906 -0.120755,-0.301887 -0.24151,-0.664151 -0.362264,-0.966038 -0.06038,-0.241509 -0.120755,-0.483019 -0.181132,-0.724528 -0.06038,-0.362264 -0.181133,-0.664151 -0.24151,-1.026415 -0.06038,-0.483019 -0.181132,-0.966038 -0.181132,-1.449057 l -0.06038,-0.845283 c 0.362264,-0.06038 0.603773,-0.362264 0.603773,-0.664151 0,-0.362264 -0.301887,-0.664151 -0.724528,-0.664151 -0.422642,0 -0.664151,0.301887 -0.664151,0.664151 0,0.362265 0.241509,0.664151 0.603774,0.664151 l -0.120755,0.784906 c -0.06038,0.241509 -0.06038,0.483019 -0.06038,0.724528 h -4.830189 c -0.06038,-0.483019 -0.120755,-1.026415 -0.181132,-1.509434 0.301887,-0.06038 0.603773,-0.362264 0.603773,-0.664151 0,-0.362264 -0.301886,-0.664151 -0.724528,-0.664151 -0.362264,0 -0.664151,0.301887 -0.664151,0.664151 0,0.362265 0.24151,0.664151 0.603774,0.664151 l -0.06038,0.845283 c 0,0.120755 -0.06038,0.301887 -0.06038,0.483019 -0.120755,0.784906 -0.241509,1.509434 -0.422642,2.233962 -0.06038,0.120755 -0.06038,0.301887 -0.120754,0.422642 -0.06038,0.301887 -0.181132,0.543396 -0.301887,0.845283 -0.120755,0.301887 -0.241509,0.664151 -0.422642,0.966038 -0.06038,0.181132 -0.181132,0.301887 -0.241509,0.483019 H 8.150932 l 1.750944,2.294339 V 42.50566 H 9.418857 c 0,-0.422641 0,-0.90566 0,-1.328302 H 8.150932 c 0,0.422642 0,0.905661 0,1.328302 H 7.366027 c 0,-0.422641 0,-0.90566 0,-1.328302 H 6.098102 c 0,0.422642 0,0.905661 0,1.328302 H 5.25283 c 0,-0.422641 0,-0.90566 0,-1.328302 H 3.984906 c 0,0.422642 0,0.905661 0,1.328302 H 3.139623 c 0,-0.422641 0,-0.90566 0,-1.328302 H 1.8716981 c 0,0.422642 0,0.905661 0,1.328302 H 1.0867925 V 41.177358 H 0.4830189 C 0.3622642,40.45283 0.3018868,39.728302 0.3018868,39.003774 c 0,-0.24151 0,-0.483019 0,-0.724529 v -16.90566 h 12.9207552 0.422641 0.845283 0.422642 12.920754 c -0.06038,5.615094 -0.06038,11.169811 -0.06038,16.845283 z m -13.766038,9.116981 c 0,0 0,0 0,0 -0.06038,0.06038 -0.06038,0.120755 0,0.120755 0.06038,-0.06038 0.06038,-0.06038 0,-0.120755 0.06038,0 0.06038,0 0,0 z m 0,1.328302 c 0,0 0,0 0,0 -0.06038,0.06038 -0.06038,0.120755 0,0.120755 0.06038,0 0.06038,-0.06038 0,-0.120755 0.06038,0 0.06038,0 0,0 z m -1.267924,-1.328302 c -0.06038,0 -0.06038,0 0,0 -0.06038,0.06038 0,0.120755 0,0.120755 0,-0.06038 0.06038,-0.06038 0,-0.120755 0.06038,0 0,0 0,0 z m 0,1.328302 c -0.06038,0 -0.06038,0 0,0 -0.06038,0.06038 0,0.120755 0,0.120755 0,0 0.06038,-0.06038 0,-0.120755 0.06038,0 0,0 0,0 z m 2.596226,-1.328302 c 0,0 -0.06038,0 0,0 -0.06038,0.06038 0,0.120755 0,0.120755 0.06038,-0.06038 0.06038,-0.06038 0,-0.120755 0.06038,0 0.06038,0 0,0 z m 0,1.328302 c 0,0 -0.06038,0 0,0 -0.06038,0.06038 0,0.120755 0,0.120755 0.06038,0 0.06038,-0.06038 0,-0.120755 0.06038,0 0.06038,0 0,0 z m -3.683019,5.675472 c 0,-1.690566 0,-3.381132 0,-5.132076 0,-0.06038 0,-0.181132 0,-0.241509 h 0.784906 v 0.845283 l 0.301887,0.483019 0.301886,-0.483019 v -0.845283 h 0.784906 v 0.845283 l 0.301887,0.483019 0.301887,-0.483019 v -0.845283 h 0.784905 v 0.845283 l 0.24151,0.483019 0.301887,-0.483019 v -0.845283 h 0.664151 c 0,0.06038 0,0.181132 0,0.241509 v 5.132076 L 15.698113,54.4 14.85283,54.460377 H 14.007547 13.162264 L 12.316981,54.4 Z m 0.06038,-5.916981 c 0.06038,-0.301887 0.120754,-0.543397 0.181132,-0.784906 h 0.543396 v 0.784906 z m 0.422641,-1.328302 c 0.06038,-0.181132 0.181132,-0.24151 0.301887,-0.362265 v 0.362265 z m 1.630189,0.543396 v 0.784906 H 12.981132 V 47.637736 Z M 12.981132,47.09434 v -0.784906 c 0.301887,-0.181132 0.543396,-0.241509 0.784906,-0.241509 v 1.026415 z m 1.328302,-1.026415 c 0.181132,0.06038 0.483019,0.120754 0.784906,0.241509 v 0.784906 h -0.784906 z m 0,2.354717 v -0.784906 h 0.784906 v 0.784906 z m 1.328302,0 v -0.784906 h 0.543396 c 0.06038,0.241509 0.120755,0.483019 0.181132,0.784906 z m 0,-1.328302 v -0.362265 c 0.120755,0.120755 0.181132,0.24151 0.301887,0.362265 z M 8.573585,29.524528 h 10.988679 l -1.569811,2.05283 h -7.849057 z m 1.267924,-0.181132 c 0.724529,-1.388679 1.14717,-2.95849 1.38868,-4.528302 h 0.241509 c 1.750944,0 3.381132,0 5.132076,0 h 0.241509 c 0.241509,1.690566 0.724528,3.2 1.388679,4.528302 -2.777358,0 -5.615094,0 -8.392453,0 z m 1.38868,-4.709434 c 0.06038,-0.241509 0.06038,-0.483019 0.06038,-0.724528 0.06038,0.241509 0.06038,0.483019 0.120755,0.724528 z m 5.433962,0 c 0.06038,-0.241509 0.06038,-0.483019 0.06038,-0.724528 0,0.241509 0.06038,0.483019 0.06038,0.724528 z m -6.460377,24.754717 c -0.06038,0 -0.06038,0.06038 -0.06038,0.06038 0,0.06038 0,0.06038 0.06038,0.06038 0.06038,0 0.06038,-0.06038 0.06038,-0.06038 0,-0.06038 0,-0.06038 -0.06038,-0.06038 z m 0.966037,0 c -0.06038,0 -0.06038,0.06038 -0.06038,0.06038 0,0.06038 0,0.06038 0.06038,0.06038 0.06038,0 0.06038,-0.06038 0.06038,-0.06038 0,-0.06038 -0.06038,-0.06038 -0.06038,-0.06038 z m -0.966037,3.683019 c -0.06038,0 -0.06038,0.06038 -0.06038,0.06038 0,0.06038 0,0.06038 0.06038,0.06038 0.06038,0 0.06038,-0.06038 0.06038,-0.06038 0,0 0,-0.06038 -0.06038,-0.06038 z m 0.966037,0 c -0.06038,0 -0.06038,0.06038 -0.06038,0.06038 0,0.06038 0,0.06038 0.06038,0.06038 0.06038,0 0.06038,-0.06038 0.06038,-0.06038 0,0 -0.06038,-0.06038 -0.06038,-0.06038 z M 8.935849,46.007547 c 2.113208,0.181132 2.475472,1.449057 2.475472,3.2 v 0 c -0.301887,0 -0.603774,0 -0.845283,0 -0.06038,0 -0.181132,0 -0.24151,-0.06038 -0.120754,-0.06038 -0.120754,-0.24151 -0.06038,-0.483019 -0.362264,0.06038 -0.422642,0.241509 -0.422642,0.543396 -0.241509,0.06038 -0.422641,0.181132 -0.422641,0.24151 0,0.06038 0.120755,0.181132 0.422641,0.241509 -0.06038,0.241509 0,0.483019 0.422642,0.543396 -0.06038,-0.241509 -0.06038,-0.422641 0.06038,-0.483019 0.06038,-0.06038 0.120755,-0.06038 0.24151,-0.06038 0.241509,0 0.543396,0 0.845283,0 0,1.086792 0,2.173585 0,3.260377 -0.301887,0 -0.543396,0 -0.845283,0 -0.06038,0 -0.181132,0 -0.24151,-0.06038 -0.120754,-0.06038 -0.120754,-0.241509 -0.06038,-0.483019 -0.362264,0.06038 -0.422642,0.24151 -0.422642,0.543396 -0.241509,0.06038 -0.422641,0.120755 -0.422641,0.24151 0,0.06038 0.120755,0.181132 0.422641,0.241509 -0.06038,0.24151 0,0.483019 0.422642,0.543396 -0.06038,-0.241509 -0.06038,-0.422641 0.06038,-0.483018 0.06038,-0.06038 0.120755,-0.06038 0.24151,-0.06038 0.241509,0 0.543396,0 0.845283,0 0,0.301887 0,0.603774 0,0.905661 L 10.686792,54.218857 9.962264,54.037725 9.237736,53.856593 8.875472,53.735838 c 0.06038,-2.596226 0.06038,-5.192453 0.06038,-7.728302 z m 1.14717,-14.249056 c 2.596226,0 5.25283,0 7.849056,0 v 14.309434 h -0.06038 l -0.120755,0.06038 -0.120754,0.120755 -0.120755,0.06038 -0.120755,0.06038 -0.120754,0.120755 -0.120755,0.120755 -0.06038,0.120754 -0.06038,0.06038 -0.06038,0.120755 -0.06038,0.120754 -0.06038,0.120755 -0.120755,0.241509 -0.06038,0.24151 -0.06038,0.301887 c 0,0.06038 0,0.120754 0,0.181132 V 48 l -0.181132,-0.241509 -0.06038,-0.181133 -0.06038,-0.181132 -0.06038,-0.181132 -0.06038,-0.181132 -0.120755,-0.120754 -0.120754,-0.120755 -0.120755,-0.120755 -0.120755,-0.120755 -0.120755,-0.120754 -0.120754,-0.120755 -0.120755,-0.06038 -0.241509,-0.120755 -0.24151,-0.120755 c -0.120755,-0.06038 -0.181132,-0.06038 -0.301887,-0.120755 h -0.120754 c -0.120755,0 -0.24151,-0.06038 -0.362264,-0.06038 -0.181133,0 -0.301887,0 -0.483019,0.06038 l -0.181132,0.06038 c -0.120755,0.06038 -0.181132,0.06038 -0.301887,0.120755 l -0.24151,0.120754 -0.241509,0.120755 -0.120755,0.06038 -0.120755,0.06038 -0.120754,0.120754 -0.120755,0.120755 -0.120755,0.120755 -0.120754,0.120755 0.06038,0.181132 -0.06038,0.181132 -0.06038,0.181132 -0.06038,0.181132 -0.06038,0.181132 L 11.592453,48 v 0.120755 c 0,-0.06038 0,-0.120755 0,-0.181132 l -0.06038,-0.301887 -0.06038,-0.24151 -0.120755,-0.241509 -0.06038,-0.120755 -0.06038,-0.120754 -0.06038,-0.120755 -0.181132,-0.120755 -0.120754,-0.120755 -0.06038,-0.06038 -0.120755,-0.120755 -0.120754,-0.06038 -0.120755,-0.06038 -0.120755,-0.06038 -0.120754,-0.06038 h -0.06038 V 31.758491 Z M 14.067925,0 c 1.509433,0 2.837735,1.1471698 2.837735,2.716981 0,1.267925 -0.90566,2.29434 -2.113207,2.656604 v 3.924528 c -0.120755,0 -0.24151,-0.06038 -0.422642,-0.06038 V 5.433959 c -0.120754,0 -0.241509,0 -0.362264,0 -0.181132,0 -0.301887,0 -0.483019,-0.06038 v 3.743396 c -0.120754,0 -0.241509,0 -0.362264,0 h -0.06038 V 5.313208 C 11.954717,4.950943 11.109434,3.984906 11.109434,2.716981 11.230189,1.1471698 12.558491,0 14.067925,0 Z m 0.784905,54.762264 v 1.932076 c -0.06038,0 -0.120755,0 -0.181132,0 -0.06038,0 -0.120755,0 -0.241509,0 v -1.932076 c -0.120755,0 -0.301887,0 -0.422642,0 -0.120755,0 -0.301887,0 -0.422641,0 v 1.871698 c -0.120755,0 -0.24151,-0.06038 -0.422642,-0.06038 V 54.762264 C 4.166038,54.339623 0.6037736,47.758491 0,39.184906 0,38.883019 0,38.520755 0,38.218868 0,32.543396 0,26.807547 0,21.132075 h 13.222642 v -8.694339 c 0,0 0.06038,0 0.06038,0 0.120755,0 0.241509,0 0.362264,0 v 8.694339 h 0.845283 v -8.573584 c 0.120755,0 0.241509,0.06038 0.422642,0.06038 v 8.45283 h 13.222641 c 0,5.675472 0,11.350944 0,16.966038 0,0.362264 0,0.724528 0,1.086792 -0.603774,8.633963 -4.286792,15.215095 -13.283019,15.637736 z m -1.267924,5.192453 v 19.622641 c -0.120755,-0.06038 -0.24151,-0.06038 -0.422642,-0.120754 V 71.366038 71.064151 68.649057 68.34717 59.954717 c 0.181132,0 0.301887,0 0.422642,0 z m 1.267924,0.120755 v 8.090566 0.301887 2.294339 0.301887 8.754717 0 -0.120755 h -0.06038 -0.120755 c -0.06038,0 -0.120755,0 -0.181132,0 V 59.954717 c 0.120755,0.06038 0.241509,0.06038 0.362264,0.120755 z M 14.067925,0.3018868 c 1.388679,0 2.535849,1.0867924 2.535849,2.4150942 0,1.328302 -1.14717,2.415094 -2.535849,2.415094 -1.38868,0 -2.53585,-1.086792 -2.53585,-2.415094 0,-1.3283018 1.14717,-2.4150942 2.53585,-2.4150942 z"
   id="path182"
   style="stroke-width:0.603774" />
<path
   fill="#c3001a"
   d="m 234.74717,23.788679 c 0,0.06038 0,0.120755 -0.0604,0.181132 0,0.06038 -0.0604,0.06038 -0.18113,0.120755 -0.0604,0 -0.18113,0.06038 -0.30189,0.06038 -0.12075,0 -0.24151,0 -0.48302,0 -0.18113,0 -0.30188,0 -0.42264,0 -0.12075,0 -0.24151,-0.06038 -0.30188,-0.06038 -0.0604,0 -0.12076,-0.06038 -0.18114,-0.120755 0,-0.06038 -0.0604,-0.120754 -0.0604,-0.181132 v -12.316981 0 l -4.95095,12.377359 c 0,0.06038 -0.0604,0.120754 -0.0604,0.120754 -0.0604,0.06038 -0.12076,0.06038 -0.18114,0.120755 -0.0604,0 -0.18113,0.06038 -0.30188,0.06038 -0.12076,0 -0.24151,0 -0.36227,0 -0.18113,0 -0.30188,0 -0.36226,0 -0.12076,0 -0.18113,-0.06038 -0.30189,-0.06038 -0.0604,0 -0.12075,-0.06038 -0.18113,-0.120755 -0.0604,-0.06038 -0.0604,-0.06038 -0.0604,-0.120754 l -4.70943,-12.377359 v 0 12.316981 c 0,0.06038 0,0.120755 -0.0604,0.181132 0,0.06038 -0.0604,0.06038 -0.18113,0.120755 -0.0604,0 -0.18113,0.06038 -0.30189,0.06038 -0.12075,0 -0.30188,0 -0.48302,0 -0.18113,0 -0.36226,0 -0.42264,0 -0.12075,0 -0.24151,-0.06038 -0.30188,-0.06038 -0.0604,0 -0.12076,-0.06038 -0.12076,-0.120755 0,-0.06038 -0.0604,-0.120754 -0.0604,-0.181132 V 10.807547 c 0,-0.301887 0.0604,-0.543396 0.24151,-0.664151 0.18113,-0.120754 0.36227,-0.181132 0.5434,-0.181132 h 1.14717 c 0.24151,0 0.42264,0 0.60377,0.06038 0.18113,0.06038 0.36227,0.120754 0.48302,0.181132 0.12076,0.120754 0.24151,0.241509 0.36227,0.362264 0.0604,0.120754 0.18113,0.301887 0.2415,0.543396 l 4.04529,10.264151 h 0.0604 l 4.22641,-10.203774 c 0.0604,-0.241509 0.18113,-0.422641 0.24151,-0.543396 0.12075,-0.181132 0.18113,-0.301887 0.30189,-0.362264 0.12075,-0.120755 0.24151,-0.181132 0.36226,-0.181132 0.12076,-0.06038 0.30189,-0.06038 0.48302,-0.06038 h 1.20755 c 0.12075,0 0.24151,0 0.30188,0.06038 0.12076,0.06038 0.18114,0.06038 0.24151,0.181132 0.0604,0.06038 0.12076,0.181132 0.18114,0.241509 0.0604,0.120755 0.0604,0.24151 0.0604,0.362265 v 12.920754 z m -19.07925,-4.950943 c 0,0.845283 -0.12075,1.630189 -0.36226,2.294339 -0.24151,0.664151 -0.60377,1.267925 -1.08679,1.690567 -0.48302,0.483018 -1.02642,0.845283 -1.69057,1.086792 -0.66415,0.241509 -1.44905,0.362264 -2.29434,0.362264 -0.7849,0 -1.50943,-0.120755 -2.11321,-0.362264 -0.66415,-0.241509 -1.20754,-0.543396 -1.63018,-1.026415 -0.48302,-0.422642 -0.78491,-0.966038 -1.0868,-1.630189 -0.24151,-0.664151 -0.36226,-1.449056 -0.36226,-2.294339 v -8.754717 c 0,-0.06038 0,-0.120755 0.0604,-0.181132 0,-0.06038 0.0604,-0.06038 0.18113,-0.120755 0.12075,-0.06038 0.18113,-0.06038 0.30189,-0.06038 0.12075,0 0.24151,0 0.48301,0 0.18114,0 0.30189,0 0.42265,0 0.12075,0 0.24151,0.06038 0.30188,0.06038 0.0604,0 0.12076,0.06038 0.12076,0.120755 0,0.06038 0.0604,0.120754 0.0604,0.181132 v 8.513207 c 0,0.664151 0.0604,1.207547 0.24151,1.690566 0.18114,0.483019 0.36227,0.905661 0.66416,1.207547 0.30188,0.301887 0.66415,0.543397 1.08679,0.724529 0.42264,0.181132 0.90566,0.241509 1.44905,0.241509 0.5434,0 1.02642,-0.06038 1.44906,-0.241509 0.42264,-0.181132 0.78491,-0.422642 1.08679,-0.724529 0.30189,-0.301886 0.5434,-0.724528 0.66415,-1.207547 0.12076,-0.483019 0.24151,-1.026415 0.24151,-1.690566 v -8.513207 c 0,-0.06038 0,-0.120755 0.0604,-0.181132 0,-0.06038 0.0604,-0.06038 0.18113,-0.120755 0.12076,-0.06038 0.18114,-0.06038 0.30189,-0.06038 0.12075,0 0.30189,0 0.48302,0 0.18113,0 0.30189,0 0.42264,0 0.12076,0 0.24151,0.06038 0.30189,0.06038 0.0604,0 0.12075,0.06038 0.18113,0.120755 0.0604,0.06038 0.0604,0.120754 0.0604,0.181132 v 8.633962 z m -16.18113,-4.950944 c 0,-0.543396 -0.12075,-1.026415 -0.36226,-1.388679 -0.24151,-0.362264 -0.66415,-0.664151 -1.26793,-0.845283 -0.18113,-0.06038 -0.36226,-0.06038 -0.60377,-0.120755 -0.24151,0 -0.5434,-0.06038 -0.90566,-0.06038 h -1.56981 v 4.769811 h 1.81132 c 0.48302,0 0.90566,-0.06038 1.26792,-0.181132 0.36227,-0.120754 0.66415,-0.301886 0.90566,-0.483019 0.24151,-0.241509 0.42265,-0.483018 0.5434,-0.784905 0.12076,-0.24151 0.18113,-0.603774 0.18113,-0.905661 z m 2.83774,9.901887 c 0,0.06038 0,0.120755 -0.0604,0.181132 0,0.06038 -0.0604,0.06038 -0.12075,0.120755 -0.0604,0 -0.18114,0.06038 -0.30189,0.06038 -0.12076,0 -0.30189,0 -0.5434,0 -0.18113,0 -0.36226,0 -0.48302,0 -0.12075,0 -0.24151,-0.06038 -0.30188,-0.06038 -0.0604,-0.06038 -0.12076,-0.06038 -0.18113,-0.120755 -0.0604,-0.06038 -0.0604,-0.120754 -0.12076,-0.241509 l -1.3283,-3.320755 c -0.18113,-0.362264 -0.30189,-0.724528 -0.48302,-1.026415 -0.18113,-0.301887 -0.36226,-0.603774 -0.60377,-0.845283 -0.24151,-0.241509 -0.48302,-0.422641 -0.78491,-0.543396 -0.30189,-0.120755 -0.66415,-0.181132 -1.08679,-0.181132 h -1.26793 v 6.037736 c 0,0.06038 0,0.120754 -0.0604,0.181132 -0.0604,0.06038 -0.0604,0.06038 -0.18114,0.120754 -0.0604,0 -0.18113,0.06038 -0.30188,0.06038 -0.12076,0 -0.30189,0 -0.48302,0 -0.18113,0 -0.36227,0 -0.48302,0 -0.12075,0 -0.24151,-0.06038 -0.30189,-0.06038 -0.0604,0 -0.12075,-0.06038 -0.18113,-0.120754 0,-0.06038 -0.0604,-0.120755 -0.0604,-0.181132 V 10.686792 c 0,-0.301886 0.0604,-0.483018 0.24151,-0.603773 0.12076,-0.120755 0.30189,-0.181132 0.48302,-0.181132 h 3.01887 c 0.36226,0 0.66415,0 0.90566,0 0.24151,0 0.42264,0.06038 0.66415,0.06038 0.5434,0.120755 1.02642,0.24151 1.44906,0.422642 0.42264,0.181132 0.7849,0.483019 1.02641,0.784905 0.30189,0.301887 0.48302,0.664151 0.66415,1.086793 0.12076,0.422641 0.24151,0.845283 0.24151,1.328302 0,0.483019 -0.0604,0.90566 -0.18113,1.267924 -0.12075,0.362264 -0.30189,0.724528 -0.5434,0.966038 -0.2415,0.301887 -0.54339,0.543396 -0.84528,0.724528 -0.36226,0.181132 -0.72453,0.362264 -1.14717,0.543396 0.24151,0.120755 0.42264,0.24151 0.66415,0.362265 0.18114,0.181132 0.36227,0.362264 0.5434,0.543396 0.18113,0.241509 0.30189,0.483019 0.48302,0.784905 0.12075,0.301887 0.30188,0.603774 0.42264,0.966038 l 1.26792,3.139623 c 0.12076,0.241509 0.18114,0.422641 0.18114,0.543396 0.18113,0.24151 0.18113,0.301887 0.18113,0.362264 z M 190.85283,10.74717 c 0,0.120755 0,0.241509 0,0.362264 0,0.120755 -0.0604,0.181132 -0.0604,0.241509 -0.0604,0.06038 -0.0604,0.120755 -0.12075,0.120755 -0.0604,0.06038 -0.12076,0.06038 -0.18113,0.06038 h -3.98491 v 12.256604 c 0,0.06038 0,0.120755 -0.0604,0.181132 -0.0604,0.06038 -0.0604,0.06038 -0.18113,0.120755 -0.0604,0 -0.18113,0.06038 -0.30189,0.06038 -0.12075,0 -0.30188,0 -0.48301,0 -0.18114,0 -0.30189,0 -0.42265,0 -0.12075,0 -0.24151,-0.06038 -0.30188,-0.06038 -0.0604,0 -0.12076,-0.06038 -0.18114,-0.120755 0,-0.06038 -0.0604,-0.120754 -0.0604,-0.181132 V 11.532075 h -3.86415 c -0.0604,0 -0.12076,0 -0.18114,-0.06038 -0.0604,0 -0.0604,-0.06038 -0.12075,-0.120755 0,-0.06038 -0.0604,-0.120754 -0.0604,-0.241509 0,-0.120755 0,-0.241509 0,-0.362264 0,-0.120755 0,-0.24151 0,-0.362264 0,-0.120755 0.0604,-0.181132 0.0604,-0.24151 0,-0.06038 0.0604,-0.120754 0.12075,-0.120754 0.0604,0 0.12076,-0.06038 0.18114,-0.06038 h 9.84151 c 0.0604,0 0.12075,0 0.18113,0.06038 0.0604,0 0.0604,0.06038 0.12075,0.120754 0.0604,0.06038 0.0604,0.120755 0.0604,0.24151 0,0.120754 0,0.241509 0,0.362264 z m -12.61887,12.55849 c 0,0.120755 0,0.301887 -0.0604,0.362265 -0.0604,0.120754 -0.12075,0.181132 -0.18113,0.241509 -0.0604,0.06038 -0.18113,0.120755 -0.24151,0.120755 -0.12075,0 -0.18113,0.06038 -0.30188,0.06038 h -0.60378 c -0.18113,0 -0.36226,0 -0.54339,-0.06038 -0.12076,-0.06038 -0.30189,-0.120755 -0.42264,-0.24151 -0.12076,-0.120754 -0.24151,-0.241509 -0.42265,-0.422641 -0.12075,-0.181132 -0.30188,-0.422642 -0.42264,-0.724529 l -4.34717,-8.030188 c -0.24151,-0.422642 -0.48302,-0.845283 -0.66415,-1.328302 C 169.78113,12.8 169.6,12.377358 169.35849,11.954717 v 0 c 0,0.543396 0,1.086792 0.0604,1.630189 0,0.543396 0,1.086792 0,1.630188 v 8.513208 c 0,0.06038 0,0.120755 -0.0604,0.120755 -0.0604,0.06038 -0.0604,0.06038 -0.18113,0.120754 -0.0604,0 -0.18113,0.06038 -0.30189,0.06038 -0.12075,0 -0.30189,0 -0.48302,0 -0.18113,0 -0.36226,0 -0.48302,0 -0.12075,0 -0.24151,-0.06038 -0.30188,-0.06038 -0.0604,0 -0.12076,-0.06038 -0.18113,-0.120754 0,-0.06038 -0.0604,-0.120755 -0.0604,-0.120755 V 10.74717 c 0,-0.301887 0.0604,-0.483019 0.24151,-0.603774 0.18113,-0.120754 0.36226,-0.181132 0.54339,-0.181132 h 0.90566 c 0.24151,0 0.42265,0 0.5434,0.06038 0.12075,0.06038 0.30189,0.120754 0.42264,0.181132 0.12076,0.06038 0.24151,0.181132 0.36227,0.362264 0.12075,0.120754 0.24151,0.362264 0.36226,0.543396 l 3.32075,6.218868 c 0.18114,0.362264 0.42265,0.724528 0.60378,1.086792 0.18113,0.362264 0.36226,0.724529 0.54339,1.086793 0.18114,0.362264 0.36227,0.664151 0.5434,1.026415 0.18113,0.362264 0.36226,0.664151 0.5434,1.026415 v 0 c 0,-0.603774 0,-1.14717 0,-1.811321 0,-0.664151 0,-1.207547 0,-1.811321 v -7.667924 c 0,-0.06038 0,-0.120755 0.0604,-0.120755 0.0604,-0.06038 0.0604,-0.06038 0.18114,-0.120754 0.0604,-0.06038 0.18113,-0.06038 0.30188,-0.06038 0.12076,0 0.30189,0 0.48302,0 0.18113,0 0.30189,0 0.42264,0 0.12076,0 0.24151,0.06038 0.30189,0.06038 0.0604,0.06038 0.12075,0.06038 0.18113,0.120754 0,0.06038 0.0604,0.06038 0.0604,0.120755 V 23.30566 Z m -13.76604,0 c 0,0.120755 0,0.24151 0,0.362265 0,0.120754 -0.0604,0.181132 -0.0604,0.241509 -0.0604,0.06038 -0.0604,0.120755 -0.12076,0.120755 -0.0604,0 -0.12075,0.06038 -0.18113,0.06038 h -6.82264 c -0.18113,0 -0.30189,-0.06038 -0.48302,-0.181132 -0.12075,-0.120755 -0.24151,-0.301887 -0.24151,-0.603774 V 10.686792 c 0,-0.301886 0.0604,-0.483018 0.24151,-0.603773 0.12075,-0.120755 0.30189,-0.181132 0.48302,-0.181132 h 6.70189 c 0.0604,0 0.12075,0 0.18113,0.06038 0.0604,0 0.0604,0.06038 0.12075,0.120755 0,0.06038 0.0604,0.120755 0.0604,0.241509 0,0.120755 0,0.24151 0,0.362264 0,0.120755 0,0.24151 0,0.362265 0,0.120754 -0.0604,0.181132 -0.0604,0.241509 0,0.06038 -0.0604,0.120755 -0.12075,0.120755 -0.0604,0 -0.12076,0.06038 -0.18113,0.06038 h -5.55472 v 4.407547 H 163.2 c 0.0604,0 0.12075,0 0.18113,0.06038 0.0604,0.06038 0.0604,0.06038 0.12076,0.120754 0.0604,0.06038 0.0604,0.120755 0.0604,0.24151 0,0.120755 0,0.241509 0,0.362264 0,0.120755 0,0.241509 0,0.362264 0,0.120755 -0.0604,0.181132 -0.0604,0.24151 -0.0604,0.06038 -0.0604,0.120754 -0.12076,0.120754 -0.0604,0 -0.12075,0.06038 -0.18113,0.06038 h -4.76981 v 5.071698 h 5.61509 c 0.0604,0 0.12076,0 0.18114,0.06038 0.0604,0.06038 0.0604,0.06038 0.12075,0.120755 0.0604,0.06038 0.0604,0.120755 0.0604,0.241509 0.0604,0.120755 0.0604,0.24151 0.0604,0.362264 z m -10.3849,-1.207547 c 0,0.120755 0,0.24151 0,0.301887 0,0.06038 0,0.181132 -0.0604,0.241509 0,0.06038 -0.0604,0.120755 -0.0604,0.181133 0,0.06038 -0.0604,0.120754 -0.18113,0.181132 -0.0604,0.06038 -0.24151,0.181132 -0.48302,0.362264 -0.24151,0.120754 -0.54339,0.301887 -0.84528,0.422641 -0.36226,0.120755 -0.72453,0.24151 -1.20755,0.362264 -0.42264,0.120755 -0.96603,0.120755 -1.44905,0.120755 -0.90566,0 -1.75095,-0.181132 -2.47548,-0.483019 -0.72452,-0.301887 -1.38867,-0.784905 -1.87169,-1.328302 -0.5434,-0.603773 -0.90566,-1.328302 -1.20755,-2.233962 -0.30189,-0.90566 -0.42264,-1.871698 -0.42264,-3.018868 0,-1.14717 0.18113,-2.233962 0.48302,-3.139622 0.30188,-0.905661 0.72453,-1.690567 1.26792,-2.354717 0.5434,-0.664151 1.20755,-1.14717 1.99245,-1.449057 0.78491,-0.362264 1.63019,-0.483019 2.53585,-0.483019 0.42264,0 0.78491,0.06038 1.20755,0.120755 0.36226,0.06038 0.72453,0.181132 1.08679,0.301887 0.30189,0.120754 0.60378,0.241509 0.90566,0.422641 0.24151,0.120755 0.42264,0.301887 0.5434,0.362264 0.12075,0.120755 0.18113,0.181132 0.18113,0.24151 0,0.06038 0.0604,0.120754 0.0604,0.181132 0,0.06038 0.0604,0.181132 0.0604,0.241509 0,0.120755 0,0.181132 0,0.362264 0,0.120755 0,0.301887 0,0.362264 0,0.120755 -0.0604,0.181133 -0.0604,0.24151 0,0.06038 -0.0604,0.120755 -0.12076,0.181132 -0.0604,0.06038 -0.0604,0.06038 -0.12075,0.06038 -0.12076,0 -0.24151,-0.06038 -0.42264,-0.241509 -0.18113,-0.120755 -0.42264,-0.301887 -0.72453,-0.483019 -0.30189,-0.181132 -0.66415,-0.301887 -1.02642,-0.483019 -0.42264,-0.120755 -0.90566,-0.241509 -1.50943,-0.241509 -0.60377,0 -1.20755,0.120754 -1.75094,0.362264 -0.5434,0.241509 -0.96604,0.603773 -1.3283,1.086792 -0.36227,0.483019 -0.66416,1.086793 -0.84529,1.811321 -0.18113,0.724528 -0.30188,1.509434 -0.30188,2.415094 0,0.905661 0.12075,1.690566 0.30188,2.354717 0.18113,0.664151 0.48302,1.267925 0.84529,1.750944 0.36226,0.483019 0.7849,0.784905 1.3283,1.026415 0.54339,0.241509 1.14717,0.362264 1.81132,0.362264 0.54339,0 1.08679,-0.06038 1.50943,-0.181132 0.42264,-0.120755 0.78491,-0.301887 1.08679,-0.483019 0.30189,-0.181132 0.5434,-0.301887 0.72453,-0.483019 0.18113,-0.120754 0.36227,-0.181132 0.42264,-0.181132 0.0604,0 0.12076,0 0.12076,0.06038 0.0604,0 0.0604,0.06038 0.0604,0.120754 0,0.06038 0.0604,0.120755 0.0604,0.24151 -0.12075,0.120754 -0.12075,0.241509 -0.12075,0.422641 z m -22.70189,-5.071698 c 0,-0.784906 -0.0604,-1.569811 -0.24151,-2.233962 -0.12075,-0.664151 -0.36226,-1.267925 -0.72453,-1.811321 -0.30188,-0.483019 -0.7849,-0.90566 -1.3283,-1.207547 -0.54339,-0.301887 -1.26792,-0.422642 -2.05283,-0.422642 -0.84528,0 -1.50943,0.181132 -2.05283,0.483019 -0.54339,0.301887 -1.02641,0.724529 -1.3283,1.207547 -0.36226,0.483019 -0.60377,1.086793 -0.72453,1.811321 -0.12075,0.664151 -0.24151,1.388679 -0.24151,2.113208 0,0.845283 0.0604,1.569811 0.18113,2.294339 0.12076,0.724529 0.36227,1.328302 0.72453,1.811321 0.30189,0.483019 0.78491,0.90566 1.3283,1.14717 0.5434,0.241509 1.26793,0.422641 2.05283,0.422641 0.84529,0 1.50944,-0.181132 2.05284,-0.483018 0.54339,-0.301887 1.02641,-0.724529 1.3283,-1.207548 0.36226,-0.543396 0.60377,-1.147169 0.72453,-1.81132 0.2415,-0.664151 0.30188,-1.38868 0.30188,-2.113208 z m 1.99245,-0.120755 c 0,1.14717 -0.12075,2.173585 -0.42264,3.079246 -0.30188,0.90566 -0.66415,1.690566 -1.20754,2.354717 -0.5434,0.664151 -1.20755,1.147169 -1.99246,1.509434 -0.7849,0.362264 -1.75094,0.543396 -2.83773,0.543396 -1.08679,0 -1.99246,-0.181132 -2.77736,-0.483019 -0.78491,-0.301887 -1.38868,-0.784906 -1.93208,-1.388679 -0.48302,-0.603774 -0.90566,-1.328302 -1.14717,-2.233963 -0.24151,-0.90566 -0.36226,-1.932075 -0.36226,-3.079245 0,-1.086792 0.12075,-2.113207 0.42264,-3.018868 0.30189,-0.90566 0.66415,-1.690566 1.20755,-2.294339 0.54339,-0.664151 1.20755,-1.14717 1.99245,-1.449057 0.78491,-0.362264 1.75094,-0.543396 2.83774,-0.543396 1.02641,0 1.93207,0.181132 2.71698,0.483019 0.7849,0.301886 1.38868,0.784905 1.93207,1.388679 0.5434,0.603773 0.90566,1.328302 1.14717,2.233962 0.30189,0.724528 0.42264,1.750944 0.42264,2.898113 z m -18.53584,6.883019 c 0,0.06038 -0.0604,0.120755 -0.12076,0.181132 -0.0604,0.06038 -0.12075,0.120755 -0.24151,0.120755 -0.0604,0 -0.18113,0.06038 -0.36226,0.06038 -0.12076,0 -0.30189,0 -0.5434,0 -0.18113,0 -0.30189,0 -0.42264,0 -0.12075,0 -0.24151,0 -0.30189,0 -0.0604,0 -0.18113,-0.06038 -0.24151,-0.06038 -0.0604,0 -0.12075,-0.06038 -0.18113,-0.06038 -0.0604,0 -0.0604,-0.06038 -0.12075,-0.120755 0,-0.06038 -0.0604,-0.06038 -0.0604,-0.120755 l -4.64906,-13.162264 c -0.0604,-0.181132 -0.0604,-0.301887 -0.0604,-0.362264 0,-0.120755 0,-0.181132 0.0604,-0.241509 0.0604,-0.06038 0.18113,-0.06038 0.30189,-0.120755 0.12075,0 0.36226,0 0.60377,0 0.18114,0 0.36227,0 0.48302,0 0.12076,0 0.24151,0.06038 0.30189,0.06038 0.0604,0 0.12075,0.06038 0.12075,0.120755 0.0604,0.06038 0.0604,0.120755 0.12076,0.181132 l 4.04528,11.89434 v 0 l 3.92453,-11.89434 c 0,-0.06038 0.0604,-0.120755 0.0604,-0.181132 0,-0.06038 0.0604,-0.120755 0.18113,-0.120755 0.0604,0 0.18113,-0.06038 0.30189,-0.06038 0.12075,0 0.30188,0 0.54339,0 0.24151,0 0.42264,0 0.5434,0 0.12075,0 0.24151,0.06038 0.24151,0.120755 0.0604,0.06038 0.0604,0.120754 0.0604,0.241509 0,0.120755 -0.0604,0.241509 -0.12076,0.362264 z m -10.44529,-6.762264 c 0,-0.784906 -0.0604,-1.569811 -0.24151,-2.233962 -0.12075,-0.664151 -0.36226,-1.267925 -0.72452,-1.811321 -0.30189,-0.483019 -0.78491,-0.90566 -1.32831,-1.207547 -0.54339,-0.301887 -1.26792,-0.422642 -2.05283,-0.422642 -0.84528,0 -1.50943,0.181132 -2.05283,0.483019 -0.54339,0.301887 -1.02641,0.724529 -1.3283,1.207547 -0.36226,0.483019 -0.60377,1.086793 -0.72453,1.811321 -0.12075,0.664151 -0.24151,1.388679 -0.24151,2.113208 0,0.845283 0.0604,1.569811 0.18114,2.294339 0.12075,0.724529 0.36226,1.328302 0.72452,1.811321 0.30189,0.483019 0.78491,0.90566 1.32831,1.14717 0.54339,0.241509 1.26792,0.422641 2.05283,0.422641 0.84528,0 1.50943,-0.181132 2.05283,-0.483018 0.54339,-0.301887 1.02641,-0.724529 1.3283,-1.207548 0.36226,-0.543396 0.60377,-1.147169 0.72453,-1.81132 0.24151,-0.664151 0.30188,-1.38868 0.30188,-2.113208 z m 1.99246,-0.120755 c 0,1.14717 -0.12076,2.173585 -0.42265,3.079246 -0.30188,0.90566 -0.66415,1.690566 -1.20754,2.354717 -0.5434,0.664151 -1.20755,1.147169 -1.99246,1.509434 -0.7849,0.362264 -1.75094,0.543396 -2.83773,0.543396 -1.08679,0 -1.99245,-0.181132 -2.77736,-0.483019 -0.78491,-0.301887 -1.38868,-0.784906 -1.93208,-1.388679 -0.48301,-0.603774 -0.90566,-1.328302 -1.14717,-2.233963 -0.2415,-0.90566 -0.36226,-1.932075 -0.36226,-3.079245 0,-1.086792 0.12076,-2.113207 0.42264,-3.018868 0.30189,-0.90566 0.66415,-1.690566 1.20755,-2.294339 0.5434,-0.664151 1.20755,-1.14717 1.99245,-1.449057 0.78491,-0.362264 1.75095,-0.543396 2.83774,-0.543396 1.02641,0 1.93207,0.181132 2.71698,0.483019 0.7849,0.301886 1.38868,0.784905 1.93207,1.388679 0.5434,0.603773 0.90566,1.328302 1.14717,2.233962 0.30189,0.724528 0.42265,1.750944 0.42265,2.898113 z M 93.16226,10.74717 c 0,0.120755 0,0.241509 0,0.362264 0,0.120755 -0.0604,0.181132 -0.0604,0.241509 -0.0604,0.06038 -0.0604,0.120755 -0.12076,0.120755 -0.0604,0 -0.12075,0.06038 -0.18113,0.06038 h -3.984906 v 12.256604 c 0,0.06038 0,0.120755 -0.06038,0.181132 -0.06038,0.06038 -0.06038,0.06038 -0.181132,0.120755 -0.06038,0 -0.181132,0.06038 -0.301887,0.06038 -0.120755,0 -0.301887,0 -0.483019,0 -0.181132,0 -0.301887,0 -0.422641,0 -0.120755,0 -0.24151,-0.06038 -0.301887,-0.06038 -0.06038,0 -0.120755,-0.06038 -0.181132,-0.120755 0,-0.06038 -0.06038,-0.120754 -0.06038,-0.181132 V 11.532075 H 82.8377 c -0.06038,0 -0.120755,0 -0.181132,-0.06038 -0.06038,0 -0.06038,-0.06038 -0.120755,-0.120755 0,-0.06038 -0.06038,-0.120754 -0.06038,-0.241509 0,-0.120755 0,-0.241509 0,-0.362264 0,-0.120755 0,-0.24151 0,-0.362264 0,-0.120755 0.06038,-0.181132 0.06038,-0.24151 0,-0.06038 0.06038,-0.120754 0.120755,-0.120754 0.06038,0 0.120754,-0.06038 0.181132,-0.06038 h 9.84151 c 0.0604,0 0.12075,0 0.18113,0.06038 0.0604,0 0.0604,0.06038 0.12075,0.120754 0.0604,0.06038 0.0604,0.120755 0.0604,0.24151 0.12075,0.120754 0.12075,0.241509 0.12075,0.362264 z M 80.543396,23.849057 c 0,0.06038 0,0.120754 -0.06038,0.181132 0,0.06038 -0.06038,0.06038 -0.181132,0.120754 -0.06038,0 -0.181132,0.06038 -0.301887,0.06038 -0.120755,0 -0.301887,0 -0.483019,0 -0.181132,0 -0.301887,0 -0.422641,0 -0.120755,0 -0.24151,-0.06038 -0.301887,-0.06038 -0.06038,0 -0.120755,-0.06038 -0.181132,-0.120754 0,-0.06038 -0.06038,-0.120755 -0.06038,-0.181132 V 10.264151 c 0,-0.06038 0,-0.120755 0.06038,-0.181132 0.06038,-0.06038 0.06038,-0.06038 0.181132,-0.120755 0.06038,0 0.181132,-0.06038 0.301887,-0.06038 0.120754,0 0.241509,0 0.422641,0 0.181132,0 0.301887,0 0.483019,0 0.120755,0 0.241509,0.06038 0.301887,0.06038 0.06038,0 0.120755,0.06038 0.181132,0.120755 0,0.06038 0.06038,0.120755 0.06038,0.181132 z m -8.875471,-0.06038 c 0,0.06038 -0.06038,0.120755 -0.120755,0.181132 -0.06038,0.06038 -0.120755,0.120755 -0.24151,0.120755 -0.06038,0 -0.181132,0.06038 -0.362264,0.06038 -0.120754,0 -0.301887,0 -0.543396,0 -0.181132,0 -0.301887,0 -0.422642,0 -0.120754,0 -0.241509,0 -0.301886,0 -0.06038,0 -0.181132,-0.06038 -0.24151,-0.06038 -0.06038,0 -0.120754,-0.06038 -0.181132,-0.06038 -0.06038,0 -0.06038,-0.06038 -0.120755,-0.120755 0,-0.06038 -0.06038,-0.06038 -0.06038,-0.120755 L 64.422642,10.626415 c -0.06038,-0.181132 -0.06038,-0.301887 -0.06038,-0.362264 0,-0.120755 0,-0.181132 0.06038,-0.241509 0.06038,-0.06038 0.181132,-0.06038 0.301886,-0.120755 0.120755,0 0.362264,0 0.603774,0 0.181132,0 0.362264,0 0.483019,0 0.120754,0 0.241509,0.06038 0.301887,0.06038 0.06038,0 0.120754,0.06038 0.120754,0.120755 0.06038,0.06038 0.06038,0.120755 0.120755,0.181132 L 70.4,22.158491 v 0 l 3.924528,-11.89434 c 0,-0.06038 0.06038,-0.120755 0.06038,-0.181132 0.06038,-0.06038 0.06038,-0.120755 0.181132,-0.120755 0.06038,0 0.181132,-0.06038 0.301887,-0.06038 0.120754,0 0.301886,0 0.543396,0 0.241509,0 0.422641,0 0.543396,0 0.120755,0 0.241509,0.06038 0.241509,0.120755 0.06038,0.06038 0.06038,0.120754 0.06038,0.241509 0,0.120755 -0.06038,0.241509 -0.120755,0.362264 z m -8.754717,-0.422641 c 0,0.120754 0,0.241509 0,0.362264 0,0.120755 -0.06038,0.181132 -0.06038,0.241509 -0.06038,0.06038 -0.06038,0.120755 -0.120755,0.120755 -0.06038,0 -0.120754,0.06038 -0.181132,0.06038 H 55.7283 c -0.181132,0 -0.301887,-0.06038 -0.483019,-0.181132 -0.120755,-0.120754 -0.241509,-0.301886 -0.241509,-0.603773 V 10.74717 c 0,-0.301887 0.06038,-0.483019 0.241509,-0.603774 0.120755,-0.120754 0.301887,-0.181132 0.483019,-0.181132 h 6.701887 c 0.06038,0 0.120754,0 0.181132,0.06038 0.06038,0 0.06038,0.06038 0.120754,0.120754 0,0.06038 0.06038,0.120755 0.06038,0.24151 0,0.120754 0,0.241509 0,0.362264 0,0.120755 0,0.241509 0,0.362264 0,0.120755 -0.06038,0.181132 -0.06038,0.241509 0,0.06038 -0.06038,0.120755 -0.120754,0.120755 -0.06038,0 -0.120755,0.06038 -0.181132,0.06038 H 56.87547 v 4.407548 h 4.769811 c 0.06038,0 0.120755,0 0.181132,0.06038 0.06038,0.06038 0.06038,0.06038 0.120755,0.120755 0.06038,0.06038 0.06038,0.120754 0.06038,0.241509 0,0.120755 0,0.24151 0,0.362264 0,0.120755 0,0.24151 0,0.362264 0,0.120755 -0.06038,0.181133 -0.06038,0.24151 -0.06038,0.06038 -0.06038,0.120755 -0.120755,0.120755 -0.06038,0 -0.120755,0.06038 -0.181132,0.06038 H 56.87547 v 5.071698 h 5.615094 c 0.06038,0 0.120755,0 0.181132,0.06038 0.06038,0 0.06038,0.06038 0.120755,0.120755 0.06038,0.06038 0.06038,0.120755 0.06038,0.24151 0.06038,0.06038 0.06038,0.181132 0.06038,0.362264 z m -9.962265,-0.06038 c 0,0.120755 0,0.301887 0,0.362265 0,0.120754 -0.06038,0.181132 -0.06038,0.241509 -0.06038,0.06038 -0.06038,0.120755 -0.120755,0.181132 -0.06038,0.06038 -0.120754,0.06038 -0.181132,0.06038 h -6.279245 c -0.181132,0 -0.301887,-0.06038 -0.483019,-0.181132 -0.120755,-0.120754 -0.241509,-0.301886 -0.241509,-0.603773 V 10.264151 c 0,-0.06038 0,-0.120755 0.06038,-0.181132 0,-0.06038 0.06038,-0.06038 0.181132,-0.120755 0.06038,0 0.181132,-0.06038 0.301887,-0.06038 0.120755,0 0.301887,0 0.422641,0 0.181132,0 0.362265,0 0.483019,0 0.120755,0 0.24151,0.06038 0.301887,0.06038 0.06038,0 0.120755,0.06038 0.181132,0.120755 0,0.06038 0.06038,0.120755 0.06038,0.181132 v 12.256604 h 5.071699 c 0.06038,0 0.120754,0 0.181132,0.06038 0.06038,0.06038 0.06038,0.06038 0.120754,0.120755 0.06038,0.06038 0.06038,0.120755 0.06038,0.241509 -0.06038,0.06038 -0.06038,0.181132 -0.06038,0.362264 z"
   id="path184"
   style="stroke-width:0.603774" />
<path
   fill="#c3001a"
   d="m 191.15472,48.362264 c 0,0.120755 0,0.24151 0,0.362264 0,0.120755 -0.0604,0.181132 -0.0604,0.24151 -0.0604,0.06038 -0.0604,0.120754 -0.12076,0.120754 -0.0604,0.06038 -0.12075,0.06038 -0.18113,0.06038 h -6.82264 c -0.18113,0 -0.30189,-0.06038 -0.48302,-0.181132 -0.12075,-0.120755 -0.24151,-0.301887 -0.24151,-0.603774 v -12.61887 c 0,-0.301887 0.0604,-0.483019 0.24151,-0.603773 0.12076,-0.120755 0.30189,-0.181132 0.48302,-0.181132 h 6.70189 c 0.0604,0 0.12075,0 0.18113,0.06038 0.0604,0 0.0604,0.06038 0.12075,0.120755 0,0.06038 0.0604,0.120754 0.0604,0.241509 0,0.120755 0,0.24151 0,0.362264 0,0.120755 0,0.24151 0,0.362264 0,0.120755 -0.0604,0.181132 -0.0604,0.24151 0,0.06038 -0.0604,0.120755 -0.12075,0.120755 -0.0604,0 -0.12075,0.06038 -0.18113,0.06038 h -5.55472 v 4.407547 h 4.76981 c 0.0604,0 0.12076,0 0.18113,0.06038 0.0604,0.06038 0.0604,0.06038 0.12076,0.120755 0.0604,0.06038 0.0604,0.120755 0.0604,0.24151 0,0.120754 0,0.241509 0,0.362264 0,0.120754 0,0.241509 0,0.362264 0,0.120755 -0.0604,0.181132 -0.0604,0.241509 -0.0604,0.06038 -0.0604,0.120755 -0.12076,0.120755 -0.0604,0 -0.12075,0.06038 -0.18113,0.06038 h -4.76981 v 5.071698 h 5.6151 c 0.0604,0 0.12075,0 0.18113,0.06038 0.0604,0 0.0604,0.06038 0.12075,0.120755 0.0604,0.06038 0.0604,0.120754 0.0604,0.241509 0.0604,0.06038 0.0604,0.181132 0.0604,0.362264 m -14.7321,-14.49058 c -0.18113,0 -0.30189,0 -0.36226,0 -0.12076,0 -0.18113,0 -0.24151,-0.06038 -0.0604,0 -0.12076,-0.06038 -0.18113,-0.120755 -0.0604,-0.06038 -0.12076,-0.120755 -0.18114,-0.181132 l -2.35471,-2.475472 c -0.0604,-0.06038 -0.12076,-0.120754 -0.12076,-0.181132 0,-0.06038 0,-0.120755 0.0604,-0.120755 0.0604,-0.06038 0.12075,-0.06038 0.24151,-0.06038 0.12075,0 0.24151,0 0.42264,0 0.24151,0 0.42264,0 0.5434,0 0.12075,0 0.24151,0 0.30188,0.06038 0.0604,0 0.12076,0.06038 0.18114,0.06038 0.0604,0.06038 0.0604,0.06038 0.12075,0.120755 l 1.69057,1.871698 1.75094,-1.811321 c 0.0604,-0.06038 0.12075,-0.120755 0.18113,-0.120755 0.0604,-0.06038 0.12076,-0.06038 0.24151,-0.120755 0.0604,0 0.18113,-0.06038 0.30189,-0.06038 0.12075,0 0.30188,0 0.48302,0 0.18113,0 0.30188,0 0.42264,0 0.12075,0 0.18113,0.06038 0.24151,0.06038 0.0604,0.06038 0.0604,0.06038 0,0.120755 0,0.06038 -0.0604,0.120755 -0.12076,0.181132 l -2.41509,2.475472 c -0.0604,0.06038 -0.12076,0.120755 -0.18113,0.181132 -0.0604,0.06038 -0.12076,0.06038 -0.24151,0.120755 -0.0604,0 -0.18113,0.06038 -0.30189,0.06038 -0.18113,0 -0.30189,0 -0.48302,0 z m 4.34717,13.283019 c 0,0.120755 0,0.241509 0,0.301887 0,0.06038 0,0.181132 -0.0604,0.241509 0,0.06038 -0.0604,0.120755 -0.0604,0.181132 -0.0604,0.06038 -0.0604,0.120755 -0.18114,0.181132 -0.0604,0.06038 -0.2415,0.181132 -0.48301,0.362265 -0.24151,0.120754 -0.5434,0.301886 -0.84529,0.422641 -0.36226,0.120755 -0.72453,0.241509 -1.20754,0.362264 -0.42265,0.120755 -0.96604,0.120755 -1.44906,0.120755 -0.90566,0 -1.75094,-0.181132 -2.47547,-0.483019 -0.72453,-0.301887 -1.38868,-0.784906 -1.8717,-1.328302 -0.5434,-0.603773 -0.90566,-1.328302 -1.20755,-2.233962 -0.30188,-0.905661 -0.42264,-1.871698 -0.42264,-3.018868 0,-1.14717 0.18113,-2.233962 0.48302,-3.139623 0.30189,-0.90566 0.72453,-1.690566 1.26792,-2.354717 0.5434,-0.664151 1.20755,-1.147169 1.99246,-1.449056 0.7849,-0.362264 1.63019,-0.483019 2.53585,-0.483019 0.42264,0 0.7849,0.06038 1.20754,0.120755 0.36227,0.06038 0.72453,0.181132 1.0868,0.301886 0.30188,0.120755 0.60377,0.24151 0.90566,0.422642 0.24151,0.120755 0.42264,0.301887 0.54339,0.362264 0.12076,0.120755 0.18113,0.181132 0.18113,0.241509 0,0.06038 0.0604,0.120755 0.0604,0.181133 0,0.06038 0.0604,0.181132 0.0604,0.241509 0,0.120755 0,0.181132 0,0.362264 0,0.120755 0,0.301887 0,0.362264 0,0.120755 -0.0604,0.181132 -0.0604,0.24151 0,0.06038 -0.0604,0.120754 -0.12075,0.181132 -0.0604,0.06038 -0.0604,0.06038 -0.12076,0.06038 -0.12075,0 -0.24151,-0.06038 -0.42264,-0.241509 -0.18113,-0.120755 -0.42264,-0.301887 -0.72453,-0.483019 -0.30188,-0.181132 -0.66415,-0.301887 -1.02641,-0.483019 -0.42264,-0.120755 -0.90566,-0.241509 -1.50944,-0.241509 -0.66415,0 -1.20754,0.120754 -1.75094,0.362264 -0.5434,0.241509 -0.96604,0.603773 -1.3283,1.086792 -0.36227,0.483019 -0.66415,1.086793 -0.84529,1.811321 -0.18113,0.724528 -0.30188,1.509434 -0.30188,2.415094 0,0.905661 0.12075,1.690566 0.30188,2.354717 0.18114,0.664151 0.48302,1.267925 0.84529,1.750944 0.36226,0.483018 0.7849,0.784905 1.3283,1.026415 0.5434,0.241509 1.14717,0.362264 1.81132,0.362264 0.5434,0 1.08679,-0.06038 1.50943,-0.181132 0.42265,-0.120755 0.78491,-0.301887 1.0868,-0.483019 0.30188,-0.181132 0.54339,-0.301887 0.72453,-0.483019 0.18113,-0.120755 0.36226,-0.181132 0.42264,-0.181132 0.0604,0 0.12075,0 0.12075,0.06038 0.0604,0 0.0604,0.06038 0.0604,0.120755 0,0.06038 0.0604,0.120755 0.0604,0.241509 -0.12076,0.120755 -0.12076,0.24151 -0.12076,0.422642 z M 165.97736,31.09434 c 0.0604,-0.120755 0.18113,-0.181132 0.24151,-0.24151 0.0604,-0.06038 0.18113,-0.120755 0.24151,-0.120755 0.12075,0 0.18113,-0.06038 0.36226,-0.06038 0.12076,0 0.30189,0 0.48302,0 0.24151,0 0.36226,0 0.5434,0.06038 0.12075,0.06038 0.24151,0.06038 0.24151,0.120755 0.0604,0.06038 0.0604,0.120755 0.0604,0.181132 0,0.06038 -0.0604,0.120755 -0.12075,0.181132 l -2.47547,2.29434 c -0.0604,0.06038 -0.12076,0.120755 -0.18114,0.181132 -0.0604,0.06038 -0.12075,0.06038 -0.2415,0.120755 -0.0604,0 -0.18114,0.06038 -0.30189,0.06038 -0.12076,0 -0.24151,0 -0.36227,0 -0.18113,0 -0.30188,0 -0.42264,0 -0.12075,0 -0.18113,-0.06038 -0.18113,-0.06038 -0.0604,-0.06038 -0.0604,-0.06038 -0.0604,-0.120755 0,-0.06038 0.0604,-0.120755 0.12076,-0.181132 z m 2.59622,17.267924 c 0,0.120755 0,0.24151 0,0.362264 0,0.120755 -0.0604,0.181132 -0.0604,0.24151 -0.0604,0.06038 -0.0604,0.120754 -0.12076,0.120754 -0.0604,0.06038 -0.12075,0.06038 -0.18113,0.06038 h -6.82264 c -0.18113,0 -0.30189,-0.06038 -0.48302,-0.181132 -0.12075,-0.120755 -0.24151,-0.301887 -0.24151,-0.603774 v -12.61887 c 0,-0.301887 0.0604,-0.483019 0.24151,-0.603773 0.12076,-0.120755 0.30189,-0.181132 0.48302,-0.181132 h 6.70189 c 0.0604,0 0.12075,0 0.18113,0.06038 0.0604,0 0.0604,0.06038 0.12075,0.120755 0,0.06038 0.0604,0.120754 0.0604,0.241509 0,0.120755 0,0.24151 0,0.362264 0,0.120755 0,0.24151 0,0.362264 0,0.120755 -0.0604,0.181132 -0.0604,0.24151 0,0.06038 -0.0604,0.120755 -0.12075,0.120755 -0.0604,0 -0.12076,0.06038 -0.18113,0.06038 h -5.55472 v 4.407547 h 4.76981 c 0.0604,0 0.12076,0 0.18113,0.06038 0.0604,0.06038 0.0604,0.06038 0.12076,0.120755 0.0604,0.06038 0.0604,0.120755 0.0604,0.24151 0,0.120754 0,0.241509 0,0.362264 0,0.120754 0,0.241509 0,0.362264 0,0.120755 -0.0604,0.181132 -0.0604,0.241509 -0.0604,0.06038 -0.0604,0.120755 -0.12076,0.120755 -0.0604,0 -0.12075,0.06038 -0.18113,0.06038 h -4.76981 v 5.071698 h 5.61509 c 0.0604,0 0.12076,0 0.18114,0.06038 0.0604,0 0.0604,0.06038 0.12075,0.120755 0.0604,0.06038 0.0604,0.120754 0.0604,0.241509 0.0604,0.06038 0.0604,0.181132 0.0604,0.362264 z M 155.83396,39.30566 c 0,-0.603773 -0.12075,-1.086792 -0.30188,-1.449056 -0.24151,-0.362264 -0.48302,-0.664151 -0.78491,-0.845283 -0.30189,-0.181132 -0.66415,-0.301887 -0.96604,-0.362264 -0.36226,-0.06038 -0.66415,-0.06038 -0.96604,-0.06038 h -1.75094 v 5.675472 h 1.69057 c 0.54339,0 1.02641,-0.06038 1.38868,-0.241509 0.36226,-0.120755 0.66415,-0.362265 0.96603,-0.603774 0.24151,-0.24151 0.42265,-0.543396 0.60378,-0.90566 0.0604,-0.422642 0.12075,-0.784906 0.12075,-1.207548 z m 1.99246,-0.181132 c 0,0.724529 -0.12076,1.328302 -0.36227,1.932076 -0.24151,0.543396 -0.5434,1.026415 -1.02641,1.449056 -0.42265,0.422642 -0.96604,0.724529 -1.56982,0.905661 -0.60377,0.241509 -1.38867,0.301887 -2.23396,0.301887 h -1.63019 v 5.071698 c 0,0.06038 0,0.120754 -0.0604,0.181132 -0.0604,0.06038 -0.0604,0.06038 -0.18114,0.120754 -0.0604,0 -0.18113,0.06038 -0.30188,0.06038 -0.12076,0 -0.30189,0 -0.48302,0 -0.18113,0 -0.30189,0 -0.48302,0 -0.12076,0 -0.24151,-0.06038 -0.30189,-0.06038 -0.0604,0 -0.12075,-0.06038 -0.18113,-0.120754 0,-0.06038 -0.0604,-0.120755 -0.0604,-0.181132 V 35.803774 c 0,-0.301887 0.0604,-0.483019 0.24151,-0.603774 0.18113,-0.120755 0.30189,-0.181132 0.48302,-0.181132 h 3.01887 c 0.30189,0 0.60377,0 0.90566,0.06038 0.30189,0 0.60377,0.06038 0.96604,0.181132 0.36226,0.06038 0.7849,0.24151 1.14717,0.483019 0.42264,0.24151 0.72453,0.543396 1.02641,0.845283 0.30189,0.362264 0.48302,0.724529 0.66415,1.14717 0.30189,0.362264 0.42265,0.845283 0.42265,1.388679 z M 137.11698,31.09434 c 0.0604,-0.120755 0.18113,-0.181132 0.24151,-0.24151 0.0604,-0.06038 0.18113,-0.120755 0.24151,-0.120755 0.12075,0 0.18113,-0.06038 0.36226,-0.06038 0.12076,0 0.30189,0 0.48302,0 0.24151,0 0.36227,0 0.5434,0.06038 0.12075,0.06038 0.24151,0.06038 0.24151,0.120755 0.0604,0.06038 0.0604,0.120755 0.0604,0.181132 0,0.06038 -0.0604,0.120755 -0.12076,0.181132 l -2.47547,2.29434 c -0.0604,0.06038 -0.12076,0.120755 -0.18113,0.181132 -0.0604,0.06038 -0.12076,0.06038 -0.24151,0.120755 -0.0604,0 -0.18113,0.06038 -0.30189,0.06038 -0.12075,0 -0.24151,0 -0.36226,0 -0.18113,0 -0.30189,0 -0.42264,0 -0.12076,0 -0.18114,-0.06038 -0.18114,-0.06038 -0.0604,-0.06038 -0.0604,-0.06038 -0.0604,-0.120755 0,-0.06038 0.0604,-0.120755 0.12075,-0.181132 z m 2.59623,17.267924 c 0,0.120755 0,0.24151 0,0.362264 0,0.120755 -0.0604,0.181132 -0.0604,0.24151 -0.0604,0.06038 -0.0604,0.120754 -0.12075,0.120754 -0.0604,0.06038 -0.12076,0.06038 -0.18114,0.06038 h -6.82264 c -0.18113,0 -0.30188,-0.06038 -0.48302,-0.181132 -0.12075,-0.120755 -0.24151,-0.301887 -0.24151,-0.603774 v -12.61887 c 0,-0.301887 0.0604,-0.483019 0.24151,-0.603773 0.12076,-0.120755 0.30189,-0.181132 0.48302,-0.181132 h 6.70189 c 0.0604,0 0.12075,0 0.18113,0.06038 0.0604,0 0.0604,0.06038 0.12076,0.120755 0,0.06038 0.0604,0.120754 0.0604,0.241509 0,0.120755 0,0.24151 0,0.362264 0,0.120755 0,0.24151 0,0.362264 0,0.120755 -0.0604,0.181132 -0.0604,0.24151 0,0.06038 -0.0604,0.120755 -0.12076,0.120755 -0.0604,0 -0.12075,0.06038 -0.18113,0.06038 h -5.55472 v 4.407547 h 4.76981 c 0.0604,0 0.12076,0 0.18114,0.06038 0.0604,0.06038 0.0604,0.06038 0.12075,0.120755 0.0604,0.06038 0.0604,0.120755 0.0604,0.24151 0,0.120754 0,0.241509 0,0.362264 0,0.120754 0,0.241509 0,0.362264 0,0.120755 -0.0604,0.181132 -0.0604,0.241509 -0.0604,0.06038 -0.0604,0.120755 -0.12075,0.120755 -0.0604,0 -0.12076,0.06038 -0.18114,0.06038 h -4.76981 v 5.071698 h 5.6151 c 0.0604,0 0.12075,0 0.18113,0.06038 0.0604,0 0.0604,0.06038 0.12075,0.120755 0.0604,0.06038 0.0604,0.120754 0.0604,0.241509 0.0604,0.06038 0.0604,0.181132 0.0604,0.362264 z m -11.59246,0 c 0,0.120755 0,0.301887 -0.0604,0.362264 -0.0604,0.120755 -0.12076,0.181132 -0.18113,0.24151 -0.0604,0.06038 -0.18114,0.120754 -0.24151,0.120754 -0.12076,0.06038 -0.18114,0.06038 -0.30189,0.06038 h -0.60377 c -0.18114,0 -0.36227,0 -0.5434,-0.06038 -0.12076,-0.06038 -0.30189,-0.120754 -0.42264,-0.241509 -0.12076,-0.120755 -0.24151,-0.241509 -0.42264,-0.422641 C 125.22264,48.241509 125.04151,48 124.92075,47.698113 l -4.34717,-8.030188 c -0.2415,-0.422642 -0.48301,-0.845283 -0.66415,-1.328302 -0.24151,-0.483019 -0.42264,-0.905661 -0.66415,-1.328302 v 0 c 0,0.543396 0,1.086792 0.0604,1.630188 0,0.543397 0,1.086793 0,1.630189 v 8.513208 c 0,0.06038 0,0.120754 -0.0604,0.120754 -0.0604,0.06038 -0.0604,0.06038 -0.18113,0.120755 -0.0604,0 -0.18113,0.06038 -0.30189,0.06038 -0.12075,0 -0.30188,0 -0.48301,0 -0.18114,0 -0.36227,0 -0.48302,0 -0.12076,0 -0.24151,-0.06038 -0.30189,-0.06038 -0.0604,0 -0.12076,-0.06038 -0.18113,-0.120755 0,-0.06038 -0.0604,-0.120754 -0.0604,-0.120754 V 35.803774 c 0,-0.301887 0.0604,-0.483019 0.24151,-0.603774 0.18113,-0.120755 0.36226,-0.181132 0.5434,-0.181132 h 0.90566 c 0.24151,0 0.42264,0 0.54339,0.06038 0.12076,0.06038 0.30189,0.120755 0.42264,0.181132 0.12076,0.06038 0.24151,0.181132 0.36227,0.362265 0.12075,0.120754 0.24151,0.362264 0.36226,0.543396 l 3.32076,6.218868 c 0.18113,0.362264 0.42264,0.724528 0.60377,1.086792 0.18113,0.362264 0.36226,0.724528 0.5434,1.086793 0.18113,0.362264 0.36226,0.664151 0.54339,1.026415 0.18114,0.362264 0.36227,0.664151 0.5434,1.026415 v 0 c 0,-0.603774 0,-1.14717 0,-1.811321 0,-0.603774 0,-1.207547 0,-1.811321 v -7.667924 c 0,-0.06038 0,-0.120755 0.0604,-0.120755 0.0604,-0.06038 0.0604,-0.06038 0.18113,-0.120755 0.0604,-0.06038 0.18113,-0.06038 0.30189,-0.06038 0.12075,0 0.30188,0 0.48301,0 0.18114,0 0.30189,0 0.42265,0 0.12075,0 0.24151,0.06038 0.30188,0.06038 0.0604,0.06038 0.12076,0.06038 0.18113,0.120755 0,0.06038 0.0604,0.120755 0.0604,0.120755 v 13.041509 z m -15.57735,-6.4 c 0,-0.784906 -0.12076,-1.449056 -0.30189,-2.113207 -0.18113,-0.664151 -0.48302,-1.207548 -0.90566,-1.690566 -0.42264,-0.483019 -0.90566,-0.845283 -1.56981,-1.14717 -0.60378,-0.24151 -1.38868,-0.422642 -2.4151,-0.422642 h -1.93207 v 10.988679 h 1.93207 c 0.90566,0 1.69057,-0.120754 2.29434,-0.362264 0.60378,-0.241509 1.14717,-0.543396 1.56981,-1.026415 0.42265,-0.483019 0.72453,-1.026415 0.90566,-1.750943 0.30189,-0.724528 0.42265,-1.569811 0.42265,-2.475472 z m 1.99245,-0.120755 c 0,1.207548 -0.18113,2.29434 -0.48302,3.2 -0.30189,0.905661 -0.78491,1.690566 -1.38868,2.29434 -0.60377,0.603774 -1.3283,1.026415 -2.23396,1.328302 -0.90566,0.301887 -1.93208,0.422641 -3.13962,0.422641 h -3.01887 c -0.18113,0 -0.30189,-0.06038 -0.48302,-0.181132 -0.12076,-0.120754 -0.24151,-0.301886 -0.24151,-0.603773 V 35.743396 c 0,-0.301887 0.0604,-0.483019 0.24151,-0.603773 0.12075,-0.120755 0.30189,-0.181132 0.48302,-0.181132 h 3.2 c 1.20755,0 2.23396,0.181132 3.07924,0.483018 0.84529,0.301887 1.56981,0.784906 2.11321,1.38868 0.5434,0.603773 1.02642,1.328302 1.3283,2.173585 0.36227,0.845283 0.5434,1.81132 0.5434,2.837735 z m -13.94717,6.520755 c 0,0.120755 0,0.24151 0,0.362264 0,0.120755 -0.0604,0.181132 -0.0604,0.24151 -0.0604,0.06038 -0.0604,0.120754 -0.12075,0.120754 -0.0604,0.06038 -0.12076,0.06038 -0.18113,0.06038 h -6.82265 c -0.18113,0 -0.30188,-0.06038 -0.48302,-0.181132 -0.12075,-0.120755 -0.2415,-0.301887 -0.2415,-0.603774 v -12.61887 c 0,-0.301887 0.0604,-0.483019 0.2415,-0.603773 0.12076,-0.120755 0.30189,-0.181132 0.48302,-0.181132 h 6.70189 c 0.0604,0 0.12076,0 0.18113,0.06038 0.0604,0 0.0604,0.06038 0.12076,0.120755 0,0.06038 0.0604,0.120754 0.0604,0.241509 0,0.120755 0,0.24151 0,0.362264 0,0.120755 0,0.24151 0,0.362264 0,0.120755 -0.0604,0.181132 -0.0604,0.24151 0,0.06038 -0.0604,0.120755 -0.12076,0.120755 -0.0604,0 -0.12075,0.06038 -0.18113,0.06038 h -5.55472 v 4.407547 h 4.76981 c 0.0604,0 0.12076,0 0.18114,0.06038 0.0604,0.06038 0.0604,0.06038 0.12075,0.120755 0.0604,0.06038 0.0604,0.120755 0.0604,0.24151 0,0.120754 0,0.241509 0,0.362264 0,0.120754 0,0.241509 0,0.362264 0,0.120755 -0.0604,0.181132 -0.0604,0.241509 -0.0604,0.06038 -0.0604,0.120755 -0.12075,0.120755 -0.0604,0 -0.12076,0.06038 -0.18114,0.06038 h -4.76981 v 5.071698 h 5.6151 c 0.0604,0 0.12075,0 0.18113,0.06038 0.0604,0 0.0604,0.06038 0.12075,0.120755 0.0604,0.06038 0.0604,0.120754 0.0604,0.241509 0.0604,0.06038 0.0604,0.181132 0.0604,0.362264 z m -9.962265,-0.06038 c 0,0.120755 0,0.301887 0,0.362264 0,0.120755 -0.06038,0.181132 -0.06038,0.241509 -0.06038,0.06038 -0.06038,0.120755 -0.120755,0.181132 -0.06038,0.06038 -0.120755,0.06038 -0.181132,0.06038 h -6.279245 c -0.181132,0 -0.301887,-0.06038 -0.483019,-0.181132 -0.120755,-0.120755 -0.24151,-0.301887 -0.24151,-0.603774 V 35.260377 c 0,-0.06038 0,-0.120754 0.06038,-0.181132 0,-0.06038 0.06038,-0.06038 0.181132,-0.120754 0.06038,0 0.181132,-0.06038 0.301887,-0.06038 0.120754,0 0.301886,0 0.422641,0 0.181132,0 0.362264,0 0.483019,0 0.120755,0 0.241509,0.06038 0.301887,0.06038 0.06038,0 0.120754,0.06038 0.181132,0.120754 0,0.06038 0.06038,0.120755 0.06038,0.181132 v 12.256604 h 5.071698 c 0.06038,0 0.120755,0 0.181132,0.06038 0.06038,0.06038 0.06038,0.06038 0.120755,0.120755 0.06038,0.06038 0.06038,0.120755 0.06038,0.24151 -0.06038,0.120754 -0.06038,0.241509 -0.06038,0.362264 z m -10.022641,-3.13962 c 0,0.664151 -0.120755,1.267925 -0.362265,1.750944 -0.241509,0.543396 -0.603773,0.966037 -1.026415,1.328301 -0.422641,0.362265 -0.966037,0.603774 -1.509434,0.784906 -0.603773,0.181132 -1.207547,0.301887 -1.871698,0.301887 -0.483019,0 -0.90566,-0.06038 -1.328302,-0.120755 -0.422641,-0.06038 -0.784905,-0.181132 -1.086792,-0.301887 -0.301887,-0.120754 -0.603774,-0.241509 -0.784906,-0.362264 -0.241509,-0.120754 -0.362264,-0.241509 -0.422641,-0.301887 -0.06038,-0.06038 -0.120755,-0.181132 -0.181132,-0.301886 -0.06038,-0.120755 -0.06038,-0.301887 -0.06038,-0.543397 0,-0.181132 0,-0.301886 0,-0.422641 0,-0.120755 0.06038,-0.181132 0.06038,-0.24151 0,-0.06038 0.06038,-0.120754 0.120754,-0.120754 0.06038,0 0.120755,-0.06038 0.181132,-0.06038 0.120755,0 0.24151,0.06038 0.422642,0.181132 0.181132,0.120755 0.422641,0.24151 0.724528,0.422642 0.301887,0.120755 0.664151,0.301887 1.026415,0.422641 0.422642,0.120755 0.905661,0.181133 1.449057,0.181133 0.422641,0 0.784906,-0.06038 1.14717,-0.181133 0.362264,-0.120754 0.603773,-0.241509 0.845283,-0.483018 0.241509,-0.181132 0.422641,-0.422642 0.543396,-0.724529 0.120755,-0.301886 0.181132,-0.603773 0.181132,-0.966037 0,-0.422642 -0.06038,-0.724529 -0.301887,-1.026416 C 78.188679,44.075472 77.94717,43.833962 77.645283,43.65283 77.343396,43.411321 76.981132,43.230189 76.618868,43.049057 76.256604,42.867925 75.833962,42.686792 75.471698,42.50566 75.049057,42.324528 74.686792,42.143396 74.324528,41.901887 73.962264,41.660377 73.6,41.418868 73.298113,41.116981 72.996226,40.815094 72.754717,40.45283 72.573585,40.030189 c -0.181132,-0.422642 -0.301887,-0.905661 -0.301887,-1.449057 0,-0.603774 0.120755,-1.14717 0.301887,-1.569811 0.241509,-0.483019 0.543396,-0.845283 0.90566,-1.14717 0.362264,-0.301887 0.845283,-0.543396 1.38868,-0.724528 0.543396,-0.181132 1.086792,-0.24151 1.690566,-0.24151 0.301886,0 0.603773,0 0.966037,0.06038 0.301887,0.06038 0.603774,0.120754 0.905661,0.241509 0.301886,0.06038 0.543396,0.181132 0.724528,0.301887 0.241509,0.120755 0.362264,0.181132 0.422641,0.301887 0.06038,0.06038 0.120755,0.120754 0.120755,0.181132 0,0.06038 0.06038,0.120754 0.06038,0.181132 0,0.06038 0,0.120754 0.06038,0.241509 0,0.06038 0,0.181132 0,0.362264 0,0.120755 0,0.24151 0,0.362264 0,0.120755 0,0.181133 -0.06038,0.24151 0,0.06038 -0.06038,0.120755 -0.06038,0.181132 -0.06038,0.06038 -0.06038,0.06038 -0.120755,0.06038 -0.06038,0 -0.181132,-0.06038 -0.362264,-0.181132 -0.181132,-0.120754 -0.362264,-0.241509 -0.603773,-0.362264 -0.24151,-0.120755 -0.543396,-0.241509 -0.905661,-0.362264 -0.362264,-0.120755 -0.724528,-0.181132 -1.147169,-0.181132 -0.362265,0 -0.724529,0.06038 -1.026416,0.181132 -0.301886,0.120755 -0.543396,0.241509 -0.724528,0.422641 -0.181132,0.181133 -0.301887,0.362265 -0.422641,0.603774 -0.120755,0.241509 -0.120755,0.483019 -0.120755,0.784906 0,0.362264 0.06038,0.724528 0.301887,1.026415 0.181132,0.301887 0.422641,0.543396 0.724528,0.724528 0.301887,0.24151 0.664151,0.422642 1.026415,0.603774 0.362264,0.181132 0.784906,0.362264 1.207547,0.543396 0.422642,0.181132 0.784906,0.362264 1.207547,0.603774 0.362265,0.241509 0.724529,0.483018 1.026416,0.784905 0.301886,0.301887 0.543396,0.664151 0.724528,1.086793 0.06038,0.241509 0.120755,0.724528 0.120755,1.267924 z M 65.871698,31.09434 c 0.06038,-0.120755 0.181132,-0.181132 0.24151,-0.24151 0.06038,-0.06038 0.181132,-0.120755 0.241509,-0.120755 0.120755,0 0.181132,-0.06038 0.362264,-0.06038 0.181132,0 0.301887,0 0.483019,0 0.241509,0 0.362264,0 0.543396,0.06038 0.120755,0.06038 0.24151,0.06038 0.24151,0.120755 0.06038,0.06038 0.06038,0.120755 0.06038,0.181132 0,0.06038 -0.06038,0.120755 -0.120755,0.181132 l -2.475471,2.29434 c -0.06038,0.06038 -0.120755,0.120755 -0.181132,0.181132 -0.06038,0.06038 -0.120755,0.06038 -0.24151,0.120755 -0.06038,0 -0.181132,0.06038 -0.301887,0.06038 -0.120754,0 -0.241509,0 -0.362264,0 -0.181132,0 -0.301887,0 -0.422641,0 -0.120755,0 -0.181132,-0.06038 -0.181132,-0.06038 -0.06038,-0.06038 -0.06038,-0.06038 -0.06038,-0.120755 0,-0.06038 0.06038,-0.120755 0.120755,-0.181132 z m -1.328302,5.796226 v 0 l -2.475471,7.064151 h 4.890566 z m 6.098113,11.592453 c 0.06038,0.181132 0.06038,0.301887 0.120755,0.362264 0,0.120755 0,0.181132 -0.06038,0.241509 -0.06038,0.06038 -0.181132,0.06038 -0.301887,0.120755 -0.120755,0 -0.301887,0 -0.543396,0 -0.24151,0 -0.422642,0 -0.543396,0 -0.120755,0 -0.24151,0 -0.301887,-0.06038 -0.06038,0 -0.120755,-0.06038 -0.181132,-0.120755 -0.06038,-0.06038 -0.06038,-0.120755 -0.120755,-0.181132 L 67.501884,45.403771 H 61.64528 l -1.14717,3.381132 c 0,0.06038 -0.06038,0.120754 -0.06038,0.181132 -0.06038,0.06038 -0.06038,0.06038 -0.181132,0.120754 -0.06038,0.06038 -0.181132,0.06038 -0.301887,0.06038 -0.120755,0 -0.301887,0 -0.483019,0 -0.241509,0 -0.362264,0 -0.543396,0 -0.120755,0 -0.24151,-0.06038 -0.301887,-0.120755 -0.06038,-0.06038 -0.06038,-0.120755 -0.06038,-0.241509 0,-0.120755 0.06038,-0.24151 0.120754,-0.362264 l 4.769812,-13.162265 c 0,-0.06038 0.06038,-0.120754 0.120754,-0.181132 0.06038,-0.06038 0.120755,-0.120754 0.181133,-0.120754 0.06038,0 0.181132,-0.06038 0.362264,-0.06038 0.120754,0 0.301887,0 0.543396,0 0.241509,0 0.422641,0 0.603774,0 0.181132,0 0.301886,0.06038 0.362264,0.06038 0.120754,0 0.181132,0.06038 0.241509,0.120754 0.06038,0.06038 0.120755,0.120755 0.120755,0.181132 z M 56.332075,48.362264 c 0,0.120755 0,0.301887 -0.06038,0.362264 -0.06038,0.120755 -0.120755,0.181132 -0.181132,0.24151 -0.06038,0.06038 -0.181132,0.120754 -0.241509,0.120754 -0.120755,0.06038 -0.181132,0.06038 -0.301887,0.06038 h -0.603774 c -0.181132,0 -0.362264,0 -0.543396,-0.06038 C 54.279242,49.026412 54.09811,48.966038 53.977355,48.845283 53.856604,48.724528 53.735849,48.603774 53.554717,48.422642 53.373585,48.241509 53.25283,48 53.132075,47.698113 l -4.347169,-8.030188 c -0.24151,-0.422642 -0.483019,-0.845283 -0.664151,-1.328302 -0.24151,-0.483019 -0.422642,-0.905661 -0.664151,-1.328302 v 0 c 0,0.543396 0,1.086792 0.06038,1.630188 0,0.543397 0,1.086793 0,1.630189 v 8.513208 c 0,0.06038 0,0.120754 -0.06038,0.120754 -0.06038,0.06038 -0.06038,0.06038 -0.181132,0.120755 -0.06038,0 -0.181132,0.06038 -0.301887,0.06038 -0.120755,0 -0.301887,0 -0.483019,0 -0.181132,0 -0.362264,0 -0.483019,0 -0.120755,0 -0.241509,-0.06038 -0.301887,-0.06038 -0.06038,0 -0.120754,-0.06038 -0.181132,-0.120755 0,-0.06038 -0.06038,-0.120754 -0.06038,-0.120754 V 35.803774 c 0,-0.301887 0.06038,-0.483019 0.241509,-0.603774 0.181132,-0.120755 0.362265,-0.181132 0.543397,-0.181132 h 0.90566 c 0.241509,0 0.422641,0 0.543396,0.06038 0.120755,0.06038 0.301887,0.120755 0.422642,0.181132 0.120754,0.06038 0.241509,0.181132 0.362264,0.362265 0.120755,0.120754 0.241509,0.362264 0.362264,0.543396 l 3.320755,6.218868 c 0.181132,0.362264 0.422641,0.724528 0.603773,1.086792 0.181132,0.362264 0.362264,0.724528 0.543397,1.086793 0.181132,0.362264 0.362264,0.664151 0.543396,1.026415 0.181132,0.362264 0.362264,0.664151 0.543396,1.026415 v 0 c 0,-0.603774 0,-1.14717 0,-1.811321 0,-0.603774 0,-1.207547 0,-1.811321 v -7.667924 c 0,-0.06038 0,-0.120755 0.06038,-0.120755 0.06038,-0.06038 0.06038,-0.06038 0.181132,-0.120755 0.06038,-0.06038 0.181133,-0.06038 0.301887,-0.06038 0.120755,0 0.301887,0 0.483019,0 0.181132,0 0.301887,0 0.422642,0 0.120754,0 0.241509,0.06038 0.301886,0.06038 0.06038,0.06038 0.120755,0.06038 0.181132,0.120755 0,0.06038 0.06038,0.120755 0.06038,0.120755 v 13.041509 z"
   id="path186"
   style="stroke-width:0.603774" />
<path
   fill="#2b2a29"
   d="m 112.18113,74.083019 c 0,0.120755 0,0.241509 0,0.362264 0,0.120755 -0.0604,0.181132 -0.0604,0.241509 -0.0604,0.06038 -0.0604,0.120755 -0.12075,0.120755 -0.0604,0 -0.12075,0.06038 -0.18113,0.06038 h -6.82264 c -0.18114,0 -0.30189,-0.06038 -0.48302,-0.181133 -0.12076,-0.120754 -0.24151,-0.301886 -0.24151,-0.603773 v -12.61887 c 0,-0.301887 0.0604,-0.483019 0.24151,-0.603774 0.12075,-0.120754 0.30188,-0.181132 0.48302,-0.181132 h 6.70188 c 0.0604,0 0.12076,0 0.18114,0.06038 0.0604,0 0.0604,0.06038 0.12075,0.120754 0,0.06038 0.0604,0.120755 0.0604,0.24151 0,0.120755 0,0.241509 0,0.362264 0,0.120755 0,0.241509 0,0.362264 0,0.120755 -0.0604,0.181132 -0.0604,0.24151 0,0.06038 -0.0604,0.120754 -0.12075,0.120754 -0.0604,0 -0.12076,0.06038 -0.18114,0.06038 h -5.55471 v 4.407547 h 4.76981 c 0.0604,0 0.12075,0 0.18113,0.06038 0.0604,0.06038 0.0604,0.06038 0.12075,0.120755 0.0604,0.06038 0.0604,0.120755 0.0604,0.241509 0,0.120755 0,0.24151 0,0.362264 0,0.120755 0,0.24151 0,0.362265 0,0.120754 -0.0604,0.181132 -0.0604,0.241509 -0.0604,0.06038 -0.0604,0.120755 -0.12075,0.120755 -0.0604,0 -0.12076,0.06038 -0.18113,0.06038 h -4.76981 v 5.071698 h 5.61509 c 0.0604,0 0.12076,0 0.18113,0.06038 0.0604,0 0.0604,0.06038 0.12076,0.120754 0.0604,0.06038 0.0604,0.120755 0.0604,0.24151 0.0604,0.120754 0.0604,0.241509 0.0604,0.362264 M 101.8566,72.875472 c 0,0.120754 0,0.241509 0,0.301886 0,0.06038 0,0.181133 -0.0604,0.24151 0,0.06038 -0.0604,0.120755 -0.0604,0.181132 0,0.06038 -0.0604,0.120755 -0.18113,0.181132 -0.0604,0.06038 -0.24151,0.181132 -0.48302,0.362264 -0.24151,0.120755 -0.5434,0.301887 -0.84528,0.422642 -0.36227,0.120754 -0.72453,0.241509 -1.20755,0.362264 -0.42264,0.120755 -0.96604,0.120755 -1.44906,0.120755 -0.90566,0 -1.75094,-0.181132 -2.47547,-0.483019 -0.72453,-0.301887 -1.38868,-0.784906 -1.8717,-1.38868 -0.54339,-0.603773 -0.90566,-1.328301 -1.207546,-2.233962 -0.301886,-0.90566 -0.422641,-1.871698 -0.422641,-3.018868 0,-1.14717 0.181132,-2.233962 0.483019,-3.139622 0.301888,-0.905661 0.724528,-1.690566 1.267928,-2.354717 0.54339,-0.664151 1.20754,-1.14717 1.99245,-1.449057 0.7849,-0.362264 1.63019,-0.483019 2.53585,-0.483019 0.42264,0 0.7849,0.06038 1.20755,0.120755 0.36226,0.06038 0.72452,0.181132 1.08679,0.301887 0.30188,0.120754 0.60377,0.241509 0.90566,0.422641 0.24151,0.120755 0.42264,0.301887 0.54339,0.362264 0.12076,0.120755 0.18114,0.181132 0.18114,0.24151 0,0.06038 0.0604,0.120755 0.0604,0.181132 0,0.06038 0.0604,0.181132 0.0604,0.241509 0,0.120755 0,0.181132 0,0.362264 0,0.120755 0,0.301887 0,0.362265 0,0.120754 -0.0604,0.181132 -0.0604,0.241509 0,0.06038 -0.0604,0.120755 -0.12075,0.181132 -0.0604,0.06038 -0.0604,0.06038 -0.12076,0.06038 -0.12075,0 -0.24151,-0.06038 -0.42264,-0.241509 -0.18113,-0.120755 -0.42264,-0.301887 -0.72453,-0.483019 -0.30188,-0.181132 -0.66415,-0.301887 -1.02641,-0.483019 -0.42264,-0.120754 -0.90566,-0.241509 -1.50943,-0.241509 -0.66416,0 -1.20755,0.120755 -1.75095,0.362264 -0.54339,0.241509 -0.96604,0.603774 -1.3283,1.086792 -0.36226,0.483019 -0.66415,1.086793 -0.84528,1.811321 -0.18113,0.724529 -0.30189,1.509434 -0.30189,2.415095 0,0.90566 0.12076,1.690566 0.30189,2.354717 0.18113,0.664151 0.48302,1.267924 0.84528,1.750943 0.36226,0.483019 0.78491,0.784906 1.3283,1.026415 0.5434,0.241509 1.14717,0.362264 1.81132,0.362264 0.5434,0 1.0868,-0.06038 1.50944,-0.181132 0.42264,-0.120755 0.7849,-0.301887 1.08679,-0.483019 0.30189,-0.181132 0.5434,-0.301887 0.72453,-0.483019 0.18113,-0.120754 0.36226,-0.181132 0.42264,-0.181132 0.0604,0 0.12075,0 0.12075,0.06038 0,0.06038 0.0604,0.06038 0.0604,0.120754 0,0.06038 0.0604,0.120755 0.0604,0.24151 -0.18113,0.181132 -0.12076,0.301887 -0.12076,0.483019 z m -13.222638,1.690566 c 0,0.06038 0,0.120754 -0.06038,0.181132 0,0.06038 -0.06038,0.06038 -0.181132,0.120755 -0.06038,0 -0.181132,0.06038 -0.301887,0.06038 -0.120755,0 -0.301887,0 -0.483019,0 -0.181132,0 -0.301887,0 -0.422641,0 -0.120755,0 -0.24151,-0.06038 -0.301887,-0.06038 -0.06038,0 -0.120755,-0.06038 -0.181132,-0.120755 0,-0.06038 -0.06038,-0.120755 -0.06038,-0.181132 V 60.981132 c 0,-0.06038 0,-0.120755 0.06038,-0.181132 0.06038,-0.06038 0.06038,-0.06038 0.181132,-0.120755 0.06038,0 0.181132,-0.06038 0.301887,-0.06038 0.120754,0 0.241509,0 0.422641,0 0.181132,0 0.362264,0 0.483019,0 0.120755,0 0.241509,0.06038 0.301887,0.06038 0.06038,0 0.120755,0.06038 0.181132,0.120755 0,0.06038 0.06038,0.120755 0.06038,0.181132 z M 78.550943,59.65283 c -0.181132,0 -0.301886,0 -0.362264,0 -0.120754,0 -0.181132,0 -0.241509,-0.06038 -0.06038,0 -0.120755,-0.06038 -0.181132,-0.120755 -0.06038,-0.06038 -0.120755,-0.120755 -0.181132,-0.181132 l -2.354717,-2.475472 c -0.06038,-0.06038 -0.120755,-0.120754 -0.120755,-0.181132 0,-0.06038 0,-0.120754 0.06038,-0.120754 0.06038,-0.06038 0.120755,-0.06038 0.24151,-0.06038 0.120754,0 0.241509,0 0.422641,0 0.24151,0 0.422642,0 0.543396,0 0.120755,0 0.24151,0 0.301887,0.06038 0.06038,0 0.120755,0.06038 0.181132,0.06038 0.06038,0.06038 0.06038,0.06038 0.120755,0.120755 l 1.690566,1.871698 1.750944,-1.871698 c 0.06038,-0.06038 0.120754,-0.120755 0.181132,-0.120755 0.06038,-0.06038 0.120754,-0.06038 0.241509,-0.120755 0.06038,0 0.181132,-0.06038 0.301887,-0.06038 0.120755,0 0.301887,0 0.483019,0 0.181132,0 0.301886,0 0.422641,0 0.120755,0 0.181132,0.06038 0.24151,0.06038 0.06038,0.06038 0.06038,0.06038 0,0.120755 0,0.06038 -0.06038,0.120755 -0.120755,0.181132 l -2.415094,2.475472 c -0.06038,0.06038 -0.120755,0.120754 -0.181133,0.181132 -0.06038,0.06038 -0.120754,0.06038 -0.241509,0.120754 -0.06038,0 -0.181132,0.06038 -0.301887,0.06038 -0.181132,0.06038 -0.301887,0.06038 -0.483019,0.06038 z m 2.656604,5.011321 c 0,-0.543396 -0.120755,-1.026415 -0.362264,-1.388679 -0.241509,-0.362264 -0.664151,-0.664151 -1.267925,-0.845283 -0.181132,-0.06038 -0.362264,-0.06038 -0.603773,-0.120755 -0.24151,0 -0.543396,-0.06038 -0.90566,-0.06038 h -1.569812 v 4.769811 h 1.811321 c 0.483019,0 0.90566,-0.06038 1.267924,-0.181132 0.362265,-0.120755 0.664151,-0.301887 0.905661,-0.483019 0.241509,-0.241509 0.422641,-0.483019 0.543396,-0.784906 0.120755,-0.241509 0.181132,-0.603773 0.181132,-0.90566 z m 2.837736,9.901887 c 0,0.06038 0,0.120754 -0.06038,0.181132 0,0.06038 -0.06038,0.06038 -0.120755,0.120755 -0.06038,0 -0.181132,0.06038 -0.301887,0.06038 -0.120755,0 -0.301887,0 -0.543396,0 -0.181132,0 -0.362264,0 -0.483019,0 -0.120755,0 -0.241509,-0.06038 -0.301887,-0.06038 -0.06038,-0.06038 -0.120754,-0.06038 -0.181132,-0.120755 -0.06038,-0.06038 -0.06038,-0.120755 -0.120755,-0.24151 l -1.328301,-3.320754 c -0.181132,-0.362264 -0.301887,-0.724529 -0.483019,-1.026415 -0.181132,-0.301887 -0.362264,-0.603774 -0.603774,-0.845283 -0.241509,-0.24151 -0.483019,-0.422642 -0.784906,-0.543397 -0.301886,-0.120754 -0.66415,-0.181132 -1.086792,-0.181132 h -1.267925 v 6.037736 c 0,0.06038 0,0.120755 -0.06038,0.181132 -0.06038,0.06038 -0.06038,0.06038 -0.181132,0.120755 -0.06038,0 -0.181132,0.06038 -0.301887,0.06038 -0.120754,0 -0.301887,0 -0.483019,0 -0.181132,0 -0.301886,0 -0.483018,0 -0.120755,0 -0.24151,-0.06038 -0.301887,-0.06038 -0.06038,0 -0.120755,-0.06038 -0.181132,-0.120755 -0.06038,-0.06038 -0.06038,-0.120755 -0.06038,-0.181132 V 61.524528 c 0,-0.301886 0.06038,-0.483019 0.24151,-0.603773 0.120754,-0.120755 0.301887,-0.181132 0.483019,-0.181132 h 3.018868 c 0.362264,0 0.66415,0 0.90566,0 0.241509,0 0.422641,0.06038 0.664151,0.06038 0.543396,0.120755 1.026415,0.241509 1.449056,0.422642 0.422642,0.181132 0.784906,0.483018 1.026416,0.784905 0.301886,0.301887 0.483018,0.664151 0.66415,1.086793 0.120755,0.422641 0.24151,0.845283 0.24151,1.328302 0,0.483018 -0.06038,0.90566 -0.181132,1.267924 -0.120755,0.362264 -0.301887,0.724528 -0.543396,0.966038 -0.24151,0.301887 -0.543397,0.543396 -0.845283,0.724528 -0.362265,0.181132 -0.724529,0.362264 -1.14717,0.543396 0.241509,0.120755 0.422641,0.24151 0.664151,0.362264 0.181132,0.181133 0.362264,0.362265 0.543396,0.543397 0.181132,0.241509 0.301887,0.483019 0.483019,0.784905 0.120755,0.301887 0.301887,0.603774 0.422641,0.966038 l 1.267925,3.139623 c 0.120755,0.241509 0.181132,0.422641 0.181132,0.543396 0.120755,0.181132 0.181132,0.241509 0.181132,0.301887 z M 69.615094,67.743396 c 0,-0.784905 -0.06038,-1.569811 -0.241509,-2.233962 -0.120755,-0.664151 -0.362264,-1.267925 -0.724528,-1.811321 -0.301887,-0.483019 -0.784906,-0.90566 -1.328302,-1.207547 -0.543397,-0.301887 -1.267925,-0.422641 -2.05283,-0.422641 -0.845283,0 -1.509434,0.181132 -2.052831,0.483018 -0.543396,0.301887 -1.026415,0.724529 -1.328302,1.207548 -0.362264,0.483018 -0.603773,1.086792 -0.724528,1.81132 -0.120755,0.664151 -0.241509,1.38868 -0.241509,2.113208 0,0.845283 0.06038,1.569811 0.181132,2.294339 0.120755,0.724529 0.362264,1.328302 0.724528,1.811321 0.301887,0.483019 0.784906,0.905661 1.328302,1.14717 0.543396,0.301887 1.267925,0.422642 2.05283,0.422642 0.845283,0 1.509434,-0.181133 2.05283,-0.483019 0.543397,-0.301887 1.026415,-0.724529 1.328302,-1.207547 0.362264,-0.543397 0.603774,-1.14717 0.724529,-1.811321 0.241509,-0.603774 0.301886,-1.328302 0.301886,-2.113208 z m 1.992453,-0.120754 c 0,1.147169 -0.120755,2.173584 -0.422641,3.079245 -0.301887,0.90566 -0.664151,1.690566 -1.207548,2.354717 -0.543396,0.664151 -1.207547,1.14717 -1.992452,1.509434 -0.784906,0.362264 -1.750944,0.543396 -2.837736,0.543396 -1.086793,0 -1.992453,-0.181132 -2.777359,-0.483019 -0.784905,-0.301887 -1.388679,-0.784906 -1.932075,-1.388679 -0.483019,-0.603774 -0.905661,-1.328302 -1.14717,-2.233962 -0.241509,-0.905661 -0.362264,-1.932076 -0.362264,-3.079246 0,-1.086792 0.120755,-2.113207 0.422641,-3.018868 0.301887,-0.90566 0.664151,-1.690566 1.207548,-2.294339 0.543396,-0.664151 1.207547,-1.14717 1.992452,-1.449057 0.784906,-0.362264 1.750944,-0.543396 2.837736,-0.543396 1.026415,0 1.932076,0.181132 2.716981,0.483019 0.784906,0.301887 1.38868,0.784905 1.932076,1.388679 0.543396,0.603774 0.90566,1.328302 1.14717,2.233962 0.301886,0.724529 0.422641,1.750944 0.422641,2.898114 z m -15.577358,6.943396 c 0,0.06038 0,0.120754 -0.06038,0.181132 0,0.06038 -0.06038,0.06038 -0.181132,0.120755 -0.120754,0.06038 -0.181132,0.06038 -0.301887,0.06038 -0.120754,0 -0.241509,0 -0.422641,0 -0.181132,0 -0.362264,0 -0.483019,0 -0.120755,0 -0.241509,-0.06038 -0.301887,-0.06038 -0.06038,0 -0.120754,-0.06038 -0.181132,-0.120755 0,-0.06038 -0.06038,-0.120755 -0.06038,-0.181132 v -6.279246 h -6.339623 v 6.279246 c 0,0.06038 0,0.120754 -0.06038,0.181132 -0.06038,0.06038 -0.06038,0.06038 -0.181132,0.120755 -0.06038,0 -0.181132,0.06038 -0.301887,0.06038 -0.120755,0 -0.301887,0 -0.483019,0 -0.181132,0 -0.301887,0 -0.422641,0 -0.120755,0 -0.24151,-0.06038 -0.301887,-0.06038 -0.06038,0 -0.120755,-0.06038 -0.181132,-0.120755 0,-0.06038 -0.06038,-0.120755 -0.06038,-0.181132 V 60.981132 c 0,-0.06038 0,-0.120755 0.06038,-0.181132 0.06038,-0.06038 0.06038,-0.06038 0.181132,-0.120755 0.06038,0 0.181132,-0.06038 0.301887,-0.06038 0.120754,0 0.301886,0 0.422641,0 0.181132,0 0.301887,0 0.483019,0 0.120755,0 0.241509,0.06038 0.301887,0.06038 0.06038,0 0.120754,0.06038 0.181132,0.120755 0,0.06038 0.06038,0.120755 0.06038,0.181132 v 5.675472 h 6.4 v -5.675472 c 0,-0.06038 0,-0.120755 0.06038,-0.181132 0,-0.06038 0.06038,-0.06038 0.181132,-0.120755 0.06038,0 0.181132,-0.06038 0.301886,-0.06038 0.120755,0 0.24151,0 0.483019,0 0.181132,0 0.301887,0 0.422642,0 0.120755,0 0.241509,0.06038 0.301887,0.06038 0.06038,0 0.120754,0.06038 0.181132,0.120755 0,0.06038 0.06038,0.120755 0.06038,0.181132 v 13.584906 z"
   id="path188"
   style="stroke-width:0.603774" />
<path
   fill-rule="evenodd"
   clip-rule="evenodd"
   fill="#c3001a"
   d="M 13.886792,59.65283 C 9.720755,59.59245 6.279245,56.392453 5.977358,52.286792 L 5.675472,52.10566 c 0.181132,4.286793 3.743396,7.607548 7.969811,7.849057 0.181132,0 0.362264,0 0.543396,0 1.871698,0.120755 3.743396,1.086792 4.407547,2.898113 0.120755,0.422642 0.24151,0.784906 0.24151,1.207547 0,0.422642 -0.06038,0.845283 -0.24151,1.207548 -0.603773,1.569811 -2.113207,2.535849 -3.743396,2.837735 v 0.301887 c 1.750944,-0.301887 3.381132,-1.328302 4.045283,-3.018868 0.181132,-0.422641 0.24151,-0.90566 0.24151,-1.328302 0,-0.483019 -0.06038,-0.90566 -0.24151,-1.328302 -0.724528,-1.871698 -2.656604,-2.95849 -4.528302,-3.079245 -0.181132,0 -0.301886,0 -0.483019,0 m -0.66415,8.69434 C 10.324528,68.890566 7.969811,71.30566 7.969811,74.445283 7.969811,78.007547 11.230189,80 14.671698,80 h 0.120755 0.06038 v -0.301887 h -0.06038 -0.120755 c -2.354717,0 -4.226415,-1.932075 -4.226415,-4.34717 0,-1.871698 1.14717,-3.441509 2.777359,-4.045283 v -0.301886 c -1.811321,0.603773 -3.079246,2.354717 -3.079246,4.347169 0,1.690566 0.905661,3.2 2.29434,4.045283 -2.354717,-0.664151 -4.166038,-2.354717 -4.166038,-5.01132 0,-2.958491 2.233962,-5.252831 4.950944,-5.796227 z M 13.645283,56.633962 C 11.89434,56.45283 10.264151,55.426415 9.418868,53.977358 L 8.996226,53.856604 c 0.845283,1.750943 2.596227,2.898113 4.58868,3.079245 0.362264,0.06038 0.664151,0.06038 1.086792,0.06038 3.622642,0.120755 6.701887,3.139623 6.701887,6.883019 0,3.683019 -2.958491,6.520755 -6.460377,6.883019 v 0.301887 c 3.683018,-0.362264 6.762264,-3.320755 6.762264,-7.184906 0,-3.924528 -3.018868,-7.003773 -6.943397,-7.184905 -0.362264,0 -0.784905,-0.06038 -1.086792,-0.06038 z M 13.283019,12.437736 v 0 0 0 0 0 0 0 0 0 0 0 0 h 0.06038 v 0 0 0 0 0 0 0 0 0 0 0 0 0 0 0 0 0 0 0 0 0 0 0 0 0 0 0 0 0 0 0 0 0 0 0 0 0 0 0 0 0 0 0 0 0 c 0.301887,0 0.603774,0.06038 0.905661,0.120755 v 0 0 0 0 0 0 0 0 0 0 0 0 0 0 0 0 0 0 0 0 0 0 0 0 0 0 0 0 0 0 0 0 0 0 0 0 0 0 0 0 0 0 0 0 0 0 0 0 0 0 0 0 0 0 0 0 0 0 0 0 0 0 0 0 0 c 0.301886,0.06038 0.664151,0.181132 0.966037,0.301886 1.449057,0.603774 2.596227,1.690566 3.44151,3.018868 0.90566,1.449057 1.328302,3.139623 1.328302,4.830189 0,0.120755 0,0.181132 0,0.301887 h 0.301886 c 0,-0.120755 0,-0.181132 0,-0.301887 0,-1.750943 -0.483018,-3.441509 -1.388679,-4.950943 -0.845283,-1.328302 -1.992453,-2.475472 -3.501887,-3.139623 -0.90566,-0.362264 -1.81132,-0.603774 -2.777358,-0.603774 -0.422642,0 -1.750943,0.06038 -2.113208,0.301887 -1.630188,0.966038 -3.803773,1.267925 -6.339622,1.207547 -0.543396,0 -0.966038,-0.603773 -0.422642,-0.90566 0.483019,-0.301887 0.483019,-0.724528 0,-0.664151 -0.301887,0.06038 -0.241509,0.06038 -0.543396,0 C 2.596229,11.833962 2.415097,11.230189 3.018871,10.867925 4.105663,10.203774 5.373588,9.660377 6.581135,9.116981 7.184909,8.815094 7.969814,8.815094 8.815097,8.996226 c 1.932076,0.301887 1.509434,0.301887 3.864151,0.301887 1.207547,0 2.415095,0.24151 3.562264,0.724529 1.932076,0.845283 3.562265,2.294339 4.709434,4.10566 1.207548,1.932075 1.871699,4.226415 1.871699,6.520755 0,0.120754 0,0.181132 0,0.301886 h 0.845283 c 0,-0.120754 0,-0.181132 0,-0.301886 0,-2.354717 -0.664151,-4.649057 -1.871699,-6.64151 C 20.64906,12.196226 19.018871,10.686792 17.086795,9.781132 16.362267,9.479245 15.698116,9.237736 14.913211,9.116981 v 0 0 0 0 0 0 0 0 0 0 0 0 0 0 0 0 0 0 0 0 0 0 0 0 0 0 0 0 0 0 0 0 0 0 0 0 0 0 0 0 0 0 0 0 0 0 0 0 0 0 0 0 0 0 0 0 0 0 0 0 0 0 0 0 0 0 0 0 0 0 c -0.301887,-0.06038 -0.603774,-0.06038 -0.845283,-0.06038 v 0 0 0 0 0 0 0 0 0 0 0 0 0 0 h -0.06038 v 0 0 0 0 0 0 0 0 0 0 0 0 0 0 0 0 0 0 0 0 0 0 0 0 0 0 0 0 0 0 0 0 0 0 0 0 0 0 h -0.06038 c -1.992453,0 -1.449057,0.120754 -3.743396,-0.301887 C 9.418866,8.633959 8.513206,8.573582 7.788677,8.935846 6.58113,9.479242 5.313206,10.022639 4.226413,10.686789 c -0.784906,0.483019 -0.603773,1.38868 0.24151,1.630189 0.301886,0.06038 0.301886,0.06038 0.543396,0 -0.06038,0.06038 -0.06038,0.06038 -0.120755,0.06038 -0.784906,0.483019 -0.241509,1.509434 0.603774,1.509434 2.113207,0 4.649056,-0.120754 6.520754,-1.267924 -0.543396,0 0.845283,-0.120755 1.267925,-0.181132 v 0 0 0 0 0 0 0 0 0 0 0 0 0 0 0 0 0 0 0 0 0 0 0 0 0 0 0 0 0 0 0 0 0 0 0 0 0 0 0 0 0 0 0 0 0 0 0 0 0 0 0 0 0 0 0 0 0 0 0 0 0 0 0 0 z M 7.849057,10.566038 c 0.301886,-0.06038 0.241509,-0.362264 -0.301887,-0.422642 -0.422642,-0.06038 -0.905661,-0.06038 -1.207547,0.301887 -0.181132,0.241509 -0.06038,0.483019 0.181132,0.603774 0.483019,0.120754 0.724528,-0.422642 1.328302,-0.483019 z"
   id="path190"
   style="stroke-width:0.603774" />
</svg>
