<svg width="57" height="57" viewBox="0 0 57 57" fill="none" xmlns="http://www.w3.org/2000/svg">
<g clip-path="url(#clip0_109_316)">
<path d="M46.3125 22.2656C46.3125 38.2969 28.5 50.7656 28.5 50.7656C28.5 50.7656 10.6875 38.2969 10.6875 22.2656C10.6875 17.5415 12.5642 13.0108 15.9047 9.67029C19.2452 6.32979 23.7758 4.45313 28.5 4.45312C33.2242 4.45313 37.7548 6.32979 41.0953 9.67029C44.4358 13.0108 46.3125 17.5415 46.3125 22.2656Z" fill="#1A1C21"/>
</g>
<path fill-rule="evenodd" clip-rule="evenodd" d="M23.1639 17C23.8852 17 24.4973 17.1148 24.7814 17.1803L24.0164 19.1476C23.8415 19.0983 23.5137 19.0328 23.0984 19.0328C21.4808 19.0328 20.1694 20.1639 20.1694 23C20.1694 25.8688 21.4808 27 23.0984 27C24.7159 27 26.0273 25.8688 26.0273 23C26.0273 20.5574 25.0874 19.6885 24.5191 19.2131L26.8142 17.8033C27.5136 18.2459 29.1967 19.8689 29.1967 23C29.1967 26.8688 26.5956 29 23.0984 29C19.6011 29 17 26.8688 17 23C17 19.1312 19.5793 17 23.1639 17ZM40.3242 26.6845V28.7501H30.2196V26.6845H34.4727V20.9796H34.4509L31.6093 24.0124L29.3798 22.7173L35.3908 17.0124L37.4454 18.2255L35.0192 20.5534H37.5329V26.6845H40.3242Z" fill="white"/>
<defs>
<clipPath id="clip0_109_316">
<rect width="57" height="57" fill="white"/>
</clipPath>
</defs>
</svg>
