<svg width="57" height="57" viewBox="0 0 57 57" fill="none" xmlns="http://www.w3.org/2000/svg">
<g clip-path="url(#clip0_109_319)">
<path d="M46.3125 22.2656C46.3125 38.2969 28.5 50.7656 28.5 50.7656C28.5 50.7656 10.6875 38.2969 10.6875 22.2656C10.6875 17.5415 12.5642 13.0108 15.9047 9.67029C19.2452 6.32979 23.7758 4.45313 28.5 4.45312C33.2242 4.45313 37.7548 6.32979 41.0953 9.67029C44.4358 13.0108 46.3125 17.5415 46.3125 22.2656Z" fill="#1A1C21"/>
</g>
<path fill-rule="evenodd" clip-rule="evenodd" d="M23.1639 17C23.8852 17 24.4973 17.1148 24.7814 17.1803L24.0164 19.1476C23.8415 19.0983 23.5137 19.0328 23.0984 19.0328C21.4808 19.0328 20.1694 20.1639 20.1694 23C20.1694 25.8688 21.4808 27 23.0984 27C24.7159 27 26.0273 25.8688 26.0273 23C26.0273 20.5574 25.0874 19.6885 24.5191 19.2131L26.8142 17.8033C27.5136 18.2459 29.1967 19.8689 29.1967 23C29.1967 26.8688 26.5956 29 23.0984 29C19.6011 29 17 26.8688 17 23C17 19.1312 19.5793 17 23.1639 17ZM33.9044 27.0492H33.8825L31.5875 29L29.5546 27.5246L35.1066 23.2295C36.2869 22.3115 37.0082 21.6885 37.0082 20.7049C37.0082 19.7213 36.1339 19 34.8443 19C33.4891 19 32.5273 19.7705 32.5055 21.2131L29.3798 21.0983C29.3798 18.6885 31.3907 17 34.8443 17C38.2978 17 40.2432 18.7377 40.2432 20.6066C40.2432 22.342 38.8812 23.3868 37.5409 24.415C37.4506 24.4843 37.3603 24.5536 37.2705 24.623L34.6038 26.6721H40.3525V28.7377H33.9044V27.0492Z" fill="white"/>
<defs>
<clipPath id="clip0_109_319">
<rect width="57" height="57" fill="white"/>
</clipPath>
</defs>
</svg>
