<svg width="24" height="16" viewBox="0 0 24 16" fill="none" xmlns="http://www.w3.org/2000/svg">
<path fill-rule="evenodd" clip-rule="evenodd" d="M6.16391 0C6.88522 0 7.49727 0.153026 7.78141 0.240436L7.0164 2.8634C6.84152 2.79778 6.51367 2.71037 6.09835 2.71037C4.48084 2.71037 3.16939 4.21855 3.16939 8C3.16939 11.8251 4.48084 13.3333 6.09835 13.3333C7.71586 13.3333 9.02731 11.8251 9.02731 8C9.02731 4.74313 8.08741 3.58471 7.51912 2.95081L9.81418 1.07101C10.5136 1.66121 12.1967 3.82515 12.1967 8C12.1967 13.1585 9.59559 16 6.09835 16C2.60111 16 0 13.1585 0 8C0 2.84155 2.57926 0 6.16391 0ZM16.9044 13.3989H16.8825L14.5875 16L12.5546 14.0328L18.1066 8.30599C19.2869 7.08195 20.0082 6.25138 20.0082 4.93987C20.0082 3.62842 19.1339 2.66667 17.8443 2.66667C16.4891 2.66667 15.5273 3.69397 15.5055 5.61748L12.3798 5.46445C12.3798 2.25135 14.3907 0 17.8443 0C21.2978 0 23.2432 2.31697 23.2432 4.80875C23.2432 7.12263 21.8812 8.51574 20.5409 9.8866C20.4506 9.97906 20.3603 10.0714 20.2705 10.1639L17.6038 12.8962H23.3525V15.6502H16.9044V13.3989Z" fill="#707070"/>
</svg>
