<svg width="57" height="57" viewBox="0 0 57 57" fill="none" xmlns="http://www.w3.org/2000/svg">
<g clip-path="url(#clip0_109_322)">
<path d="M46.3125 22.2656C46.3125 38.2969 28.5 50.7656 28.5 50.7656C28.5 50.7656 10.6875 38.2969 10.6875 22.2656C10.6875 17.5415 12.5642 13.0108 15.9047 9.67029C19.2452 6.32979 23.7758 4.45313 28.5 4.45312C33.2242 4.45313 37.7548 6.32979 41.0953 9.67029C44.4358 13.0108 46.3125 17.5415 46.3125 22.2656Z" fill="#1A1C21"/>
</g>
<path fill-rule="evenodd" clip-rule="evenodd" d="M23.1639 17C23.8852 17 24.4973 17.1148 24.7814 17.1803L24.0164 19.1476C23.8415 19.0983 23.5137 19.0328 23.0984 19.0328C21.4808 19.0328 20.1694 20.1639 20.1694 23C20.1694 25.8688 21.4808 27 23.0984 27C24.7159 27 26.0273 25.8688 26.0273 23C26.0273 20.5574 25.0874 19.6885 24.5191 19.2131L26.8142 17.8033C27.5136 18.2459 29.1967 19.8689 29.1967 23C29.1967 26.8688 26.5956 29 23.0984 29C19.6011 29 17 26.8688 17 23C17 19.1312 19.5793 17 23.1639 17ZM40.8552 25.1312C40.8552 27.1803 38.2979 29 35.1285 29C31.9591 29 29.7296 27.2459 29.3798 25.6558L32.4618 25.1967C32.6585 26.0984 33.5328 27 35.1285 27C36.6585 27 37.664 26.1311 37.664 25.1312C37.664 24.164 36.746 23.3934 35.4782 23.2787L34.6695 24.1147L32.4837 23.0164L36.0465 19.3279H30.1011V17.2623H36.4399V18.9181H36.4618L38.2979 17L40.4181 18.1147L36.9646 21.7049C38.7132 21.8689 40.8552 23.082 40.8552 25.1312Z" fill="white"/>
<defs>
<clipPath id="clip0_109_322">
<rect width="57" height="57" fill="white"/>
</clipPath>
</defs>
</svg>
