<svg width="24" height="16" viewBox="0 0 24 16" fill="none" xmlns="http://www.w3.org/2000/svg">
<path fill-rule="evenodd" clip-rule="evenodd" d="M6.16391 0C6.88522 0 7.49727 0.153026 7.78141 0.240436L7.0164 2.8634C6.84152 2.79778 6.51367 2.71037 6.09835 2.71037C4.48084 2.71037 3.16939 4.21855 3.16939 8C3.16939 11.8251 4.48084 13.3333 6.09835 13.3333C7.71586 13.3333 9.02731 11.8251 9.02731 8C9.02731 4.74313 8.08741 3.58471 7.51912 2.95081L9.81418 1.07101C10.5136 1.66121 12.1967 3.82515 12.1967 8C12.1967 13.1585 9.59559 16 6.09835 16C2.60111 16 0 13.1585 0 8C0 2.84155 2.57926 0 6.16391 0ZM23.8552 10.8415C23.8552 13.5738 21.2979 16 18.1285 16C14.9591 16 12.7296 13.6612 12.3798 11.541L15.4618 10.929C15.6585 12.1311 16.5328 13.3333 18.1285 13.3333C19.6585 13.3333 20.664 12.1748 20.664 10.8415C20.664 9.55195 19.746 8.52458 18.4782 8.37161L17.6695 9.48633L15.4837 8.02185L19.0465 3.10384H13.1011V0.34976H19.4399V2.5574H19.4618L21.2979 0L23.4181 1.48633L19.9646 6.27323C21.7132 6.49182 23.8552 8.10932 23.8552 10.8415Z" fill="#707070"/>
</svg>
