<svg width="57" height="57" viewBox="0 0 57 57" fill="none" xmlns="http://www.w3.org/2000/svg">
<g clip-path="url(#clip0_109_325)">
<path d="M46.3125 22.2656C46.3125 38.2969 28.5 50.7656 28.5 50.7656C28.5 50.7656 10.6875 38.2969 10.6875 22.2656C10.6875 17.5415 12.5642 13.0108 15.9047 9.67029C19.2452 6.32979 23.7758 4.45313 28.5 4.45312C33.2242 4.45313 37.7548 6.32979 41.0953 9.67029C44.4358 13.0108 46.3125 17.5415 46.3125 22.2656Z" fill="#1A1C21"/>
</g>
<path fill-rule="evenodd" clip-rule="evenodd" d="M22.1639 17C22.8852 17 23.4973 17.1148 23.7814 17.1803L23.0164 19.1476C22.8415 19.0983 22.5137 19.0328 22.0984 19.0328C20.4808 19.0328 19.1694 20.1639 19.1694 23C19.1694 25.8688 20.4808 27 22.0984 27C23.7159 27 25.0273 25.8688 25.0273 23C25.0273 20.5574 24.0874 19.6885 23.5191 19.2131L25.8142 17.8033C26.5136 18.2459 28.1967 19.8689 28.1967 23C28.1967 26.8688 25.5956 29 22.0984 29C18.6011 29 16 26.8688 16 23C16 19.1312 18.5793 17 22.1639 17ZM38.5219 26.1593V28.897H35.4618V26.1593H28.4891V24.2085H30.0192L28.3798 23.1429L35.8115 17.1593L37.735 18.52L35.8989 19.9954H38.5219V24.2085H40.817V26.1593H38.5219ZM35.4618 24.2085V20.3396L30.6531 24.2085H35.4618Z" fill="white"/>
<defs>
<clipPath id="clip0_109_325">
<rect width="57" height="57" fill="white"/>
</clipPath>
</defs>
</svg>
