<svg width="25" height="16" viewBox="0 0 25 16" fill="none" xmlns="http://www.w3.org/2000/svg">
<path fill-rule="evenodd" clip-rule="evenodd" d="M6.16391 0C6.88522 0 7.49727 0.153026 7.78141 0.240436L7.0164 2.8634C6.84152 2.79778 6.51367 2.71037 6.09835 2.71037C4.48084 2.71037 3.16939 4.21855 3.16939 8C3.16939 11.8251 4.48084 13.3333 6.09835 13.3333C7.71586 13.3333 9.02731 11.8251 9.02731 8C9.02731 4.74313 8.08741 3.58471 7.51912 2.95081L9.81418 1.07101C10.5136 1.66121 12.1967 3.82515 12.1967 8C12.1967 13.1585 9.59559 16 6.09835 16C2.60111 16 0 13.1585 0 8C0 2.84155 2.57926 0 6.16391 0ZM22.5219 12.2124V15.8627H19.4618V12.2124H12.4891V9.61128H14.0192L12.3798 8.19057L19.8115 0.21242L21.735 2.0266L19.8989 3.9938H22.5219V9.61128H24.817V12.2124H22.5219ZM19.4618 9.61128V4.45283L14.6531 9.61128H19.4618Z" fill="#707070"/>
</svg>
