<svg width="57" height="57" viewBox="0 0 57 57" fill="none" xmlns="http://www.w3.org/2000/svg">
<g clip-path="url(#clip0_109_328)">
<path d="M46.3125 22.2656C46.3125 38.2969 28.5 50.7656 28.5 50.7656C28.5 50.7656 10.6875 38.2969 10.6875 22.2656C10.6875 17.5415 12.5642 13.0108 15.9047 9.67029C19.2452 6.32979 23.7758 4.45313 28.5 4.45312C33.2242 4.45313 37.7548 6.32979 41.0953 9.67029C44.4358 13.0108 46.3125 17.5415 46.3125 22.2656Z" fill="#1A1C21"/>
</g>
<path fill-rule="evenodd" clip-rule="evenodd" d="M22.1639 17C22.8852 17 23.4973 17.1148 23.7814 17.1803L23.0164 19.1476C22.8415 19.0983 22.5137 19.0328 22.0984 19.0328C20.4808 19.0328 19.1694 20.1639 19.1694 23C19.1694 25.8688 20.4808 27 22.0984 27C23.7159 27 25.0273 25.8688 25.0273 23C25.0273 20.5574 24.0874 19.6885 23.5191 19.2131L25.8142 17.8033C26.5136 18.2459 28.1967 19.8689 28.1967 23C28.1967 26.8688 25.5956 29 22.0984 29C18.6011 29 16 26.8688 16 23C16 19.1312 18.5793 17 22.1639 17ZM39.6803 25.0039C39.6803 27.0531 37.276 28.9875 34.0192 28.9875C30.7623 28.9875 28.7295 27.1187 28.3798 25.7416L31.3962 25.2663C31.7022 26.2007 32.5984 26.9875 34.0192 26.9875C35.3525 26.9875 36.4891 26.2007 36.4891 25.0531C36.4891 23.9056 35.3525 23.1187 33.9099 23.1187C33.3634 23.1187 32.9918 23.217 32.7733 23.299L31.7022 22.004H31.6803L31.3088 24.0367L28.6858 23.7744L29.888 17.2499H38.6967V19.3154H32.1831L31.7678 21.4958C32.0956 21.3974 33.0137 21.1515 34.2814 21.1515C37.6039 21.1515 39.6803 22.9548 39.6803 25.0039Z" fill="white"/>
<defs>
<clipPath id="clip0_109_328">
<rect width="57" height="57" fill="white"/>
</clipPath>
</defs>
</svg>
