<svg width="24" height="16" viewBox="0 0 24 16" fill="none" xmlns="http://www.w3.org/2000/svg">
<path fill-rule="evenodd" clip-rule="evenodd" d="M6.16391 0C6.88522 0 7.49727 0.153026 7.78142 0.240436L7.0164 2.8634C6.84152 2.79778 6.51367 2.71037 6.09835 2.71037C4.48085 2.71037 3.16939 4.21855 3.16939 8C3.16939 11.8251 4.48085 13.3333 6.09835 13.3333C7.71586 13.3333 9.02731 11.8251 9.02731 8C9.02731 4.74313 8.08741 3.58471 7.51913 2.95081L9.81418 1.07101C10.5136 1.66121 12.1967 3.82515 12.1967 8C12.1967 13.1585 9.59559 16 6.09835 16C2.60111 16 0 13.1585 0 8C0 2.84155 2.57926 0 6.16391 0ZM23.6803 10.6719C23.6803 13.4041 21.276 15.9834 18.0192 15.9834C14.7623 15.9834 12.7295 13.4916 12.3798 11.6555L15.3962 11.0217C15.7022 12.2676 16.5984 13.3167 18.0192 13.3167C19.3525 13.3167 20.4891 12.2676 20.4891 10.7375C20.4891 9.20743 19.3525 8.15827 17.9099 8.15827C17.3634 8.15827 16.9918 8.28939 16.7733 8.39871L15.7022 6.67194H15.6803L15.3088 9.38231L12.6858 9.03255L13.888 0.333152H22.6967V3.08723H16.1831L15.7678 5.99433C16.0956 5.86316 17.0137 5.53531 18.2814 5.53531C21.6039 5.53531 23.6803 7.93969 23.6803 10.6719Z" fill="#707070"/>
</svg>
