<svg width="57" height="57" viewBox="0 0 57 57" fill="none" xmlns="http://www.w3.org/2000/svg">
<g clip-path="url(#clip0_109_331)">
<path d="M46.3125 22.2656C46.3125 38.2969 28.5 50.7656 28.5 50.7656C28.5 50.7656 10.6875 38.2969 10.6875 22.2656C10.6875 17.5415 12.5642 13.0108 15.9047 9.67029C19.2452 6.32979 23.7758 4.45313 28.5 4.45312C33.2242 4.45313 37.7548 6.32979 41.0953 9.67029C44.4358 13.0108 46.3125 17.5415 46.3125 22.2656Z" fill="#1A1C21"/>
</g>
<path fill-rule="evenodd" clip-rule="evenodd" d="M22.1639 17C22.8852 17 23.4973 17.1148 23.7814 17.1803L23.0164 19.1476C22.8415 19.0983 22.5137 19.0328 22.0984 19.0328C20.4808 19.0328 19.1694 20.1639 19.1694 23C19.1694 25.8688 20.4808 27 22.0984 27C23.7159 27 25.0273 25.8688 25.0273 23C25.0273 20.5574 24.0874 19.6885 23.5191 19.2131L25.8142 17.8033C26.5136 18.2459 28.1967 19.8689 28.1967 23C28.1967 26.8688 25.5956 29 22.0984 29C18.6011 29 16 26.8688 16 23C16 19.1312 18.5793 17 22.1639 17ZM40.0082 25.082C40.0082 27.2295 37.6039 29 34.194 29C30.7842 29 28.3798 27.1476 28.3798 25.0656C28.3798 23.8197 29.1667 22.8525 30.347 22.0328L29.3853 21.1803L36.052 17L37.9099 18.623L33.4072 21.4098V21.4263C33.735 21.3443 34.1503 21.2623 34.9372 21.2623C37.6913 21.2623 40.0082 22.9344 40.0082 25.082ZM31.5711 25.082C31.5711 26.2131 32.7514 27.0328 34.194 27.0328C35.6367 27.0328 36.817 26.2131 36.817 25.082C36.817 23.9508 35.6367 23.1148 34.194 23.1148C32.7514 23.1148 31.5711 23.9508 31.5711 25.082Z" fill="white"/>
<defs>
<clipPath id="clip0_109_331">
<rect width="57" height="57" fill="white"/>
</clipPath>
</defs>
</svg>
