<svg width="25" height="16" viewBox="0 0 25 16" fill="none" xmlns="http://www.w3.org/2000/svg">
<path fill-rule="evenodd" clip-rule="evenodd" d="M6.66122 -1.90735e-06C7.38254 -1.90735e-06 7.99459 0.153027 8.27873 0.240436L7.51371 2.8634C7.33883 2.79778 7.01098 2.71037 6.59567 2.71037C4.97816 2.71037 3.66671 4.21855 3.66671 8C3.66671 11.8251 4.97816 13.3333 6.59567 13.3333C8.21317 13.3333 9.52462 11.8251 9.52462 8C9.52462 4.74313 8.58473 3.58471 8.01644 2.95081L10.3115 1.07101C11.011 1.66121 12.694 3.82515 12.694 8C12.694 13.1585 10.0929 16 6.59567 16C3.09842 16 0.497314 13.1585 0.497314 8C0.497314 2.84155 3.07657 -1.90735e-06 6.66122 -1.90735e-06ZM24.5056 10.776C24.5056 13.6393 22.1012 16 18.6913 16C15.2815 16 12.8771 13.5301 12.8771 10.7541C12.8771 9.09293 13.664 7.80327 14.8443 6.7104L13.8826 5.57377L20.5493 -1.90735e-06L22.4072 2.16394L17.9045 5.87977V5.90168C18.2323 5.79236 18.6476 5.68309 19.4345 5.68309C22.1886 5.68309 24.5056 7.91259 24.5056 10.776ZM16.0684 10.776C16.0684 12.2842 17.2487 13.377 18.6913 13.377C20.134 13.377 21.3143 12.2842 21.3143 10.776C21.3143 9.26775 20.134 8.15303 18.6913 8.15303C17.2487 8.15303 16.0684 9.26775 16.0684 10.776Z" fill="#707070"/>
</svg>
