<svg width="12" height="13" viewBox="0 0 12 13" fill="none" xmlns="http://www.w3.org/2000/svg">
<path d="M1.2 0.593018C0.5352 0.593018 0 1.12822 0 1.79302V11.393C0 12.0578 0.5352 12.593 1.2 12.593H10.8C11.4648 12.593 12 12.0578 12 11.393V1.79302C12 1.12822 11.4648 0.593018 10.8 0.593018H1.2ZM6.909 2.75377H8.0835V4.09927H7.37925C6.8181 4.09927 6.73875 4.28228 6.73875 4.64377V5.44402H8.0835L7.92375 6.78952H6.73875V10.8245H4.99425V6.78952H4.0485V5.44402H4.99425V4.54702C4.99425 3.4142 5.46934 2.75377 6.909 2.75377Z" fill="#CC0033"/>
</svg>
