<svg width="12" height="13" viewBox="0 0 12 13" fill="none" xmlns="http://www.w3.org/2000/svg">
<path d="M8.32653 0.593018C10.3528 0.599069 11.9939 2.2402 12 4.26649V8.91955C11.9939 10.9458 10.3528 12.587 8.32653 12.593H3.67347C1.64718 12.587 0.00605167 10.9458 0 8.91955V4.26649C0.00605167 2.2402 1.64718 0.599069 3.67347 0.593018H8.32653ZM6.03306 3.46689C4.29705 3.47028 2.89222 4.87985 2.89469 6.61587C2.89718 8.35188 4.30602 9.75744 6.04204 9.75587C7.77805 9.75429 9.18435 8.34618 9.18367 6.61016C9.18335 5.77534 8.85107 4.97491 8.26008 4.38529C7.66908 3.79568 6.86788 3.46527 6.03306 3.46689ZM6.03306 4.44649C6.9089 4.44599 7.69876 4.97327 8.03416 5.78235C8.36955 6.59143 8.18441 7.52288 7.5651 8.1422C6.94579 8.76151 6.01433 8.94665 5.20525 8.61125C4.39617 8.27586 3.86889 7.486 3.86939 6.61016C3.87141 5.41603 4.83894 4.44851 6.03306 4.44649ZM9.20082 2.67465C8.81332 2.67465 8.49918 2.98878 8.49918 3.37628C8.49918 3.76378 8.81332 4.07792 9.20082 4.07792C9.58832 4.07792 9.90245 3.76378 9.90245 3.37628C9.90245 3.1902 9.82853 3.01174 9.69695 2.88015C9.56536 2.74857 9.3869 2.67465 9.20082 2.67465Z" fill="#CC0033"/>
</svg>
