<?xml version="1.0" encoding="UTF-8"?>
<svg xmlns="http://www.w3.org/2000/svg" version="1.1" viewBox="0 0 141.7 141.7">
  <defs>
    <style>
      .cls-1 {
        fill: #e2e5db;
      }

      .cls-2 {
        fill: #5db479;
      }

      .cls-3 {
        fill: #e1e7dd;
      }

      .cls-4 {
        fill: #5eb578;
      }

      .cls-5 {
        fill: #259a3f;
      }

      .cls-6 {
        fill: #e6eee5;
      }

      .cls-7 {
        fill: #1d1d1b;
      }
    </style>
  </defs>
  <!-- Generator: Adobe Illustrator 28.6.0, SVG Export Plug-In . SVG Version: 1.2.0 Build 709)  -->
  <g>
    <g id="Vrstva_1">
      <path class="cls-7" d="M-321.5,56.8c4.9,0,9.9,0,14.8,0,2.8,0,5.1.8,7,2.9,3.8,4,7.6,8,11.4,12,.7.7,1.4,1.3,2.1,2,.4.5.9.4,1.4.4,5.9,0,11.8,0,17.7,0,4.8,0,8.7,2.3,10.4,6.6,1,2.6.5,5.4.4,8,0,3.5-1.7,5.9-4.7,7.5-1.6.9-3.4.8-5.1.9-.6,0-.4-.4-.4-.7.1-4.3-1.3-8-4.8-10.6-4.2-3.1-8.8-3.8-13.6-1.7-5.1,2.1-7.7,6.1-8,11.6,0,1.9,0,1.8-1.9,1.9-2.2,0-4.4.2-6.6.1-3.9-.2-7.7,0-11.6-.1-5,0-10,0-15.1,0-1.1,0-1.4-.3-1.4-1.4-.1-8.1-5.6-13.3-13.8-13-6.6.3-12.9,6.1-12.5,12.9,0,.9-.1,1.2-1.2,1.2-4.7.2-8.4-3.7-8.3-8.2,0-2.7,0-5.4,0-8.2.2-2.9,1.9-4.7,4.3-5.9,2.6-1.3,4.5-3.4,6.7-5.1,3-2.2,5.4-5,8.1-7.7,1.2-1.2,2.1-2.7,3.5-3.7,1.4-1,2.9-1.5,4.5-1.5,5.5,0,11.1,0,16.6,0,0,0,0,0,0,0ZM-350.7,74.4c3.8-.2,7.3-.4,10.8-.4,5.2,0,10.4,0,15.6,0,.5,0,1.1.2,1.1-.8-.2-3.7-.3-7.5,0-11.2,0-.6-.1-.8-.8-.8-4.4.4-8.8.2-13.1.2-.6,0-1.1,0-1.6.5-4.1,3.9-7.7,8.1-11.9,12.3ZM-293.2,74.1c-.6-.7-1.2-1.3-1.8-1.9-3.1-3.4-6.3-6.7-9.4-10.1-.4-.4-.6-.8-1.3-.8-3.9.4-7.8.2-11.7,0-.9,0-1,.3-1,1.1,0,3.6,0,7.3,0,10.9,0,.7.2.9.9.9,2.4-.2,4.9-.1,7.3-.1,5.7,0,11.3,0,17,0ZM-314.6,82.1h0c1,0,2,0,3,0,1.2,0,.8-1,.8-1.7,0-.6,0-1.2-.9-1.2-1.9,0-3.8,0-5.6.1-.8,0-.9.3-1,1.1-.1,1.3.2,1.9,1.6,1.7.7,0,1.4,0,2.1,0ZM-262.4,80.7c-2.3,0-2.3,0-2.3,2.9,0,.6-.4,1.5.9,1.5,4.3-.2,3.3.2,3.5-2.3.1-2,0-2-2.1-2.1ZM-358.2,84.1c3,0,3,0,2.9-2.1,0-1.2-.5-1.8-1.8-1.6-.6,0-1.2,0-1.8,0-.8,0-1.2.3-1.3,1.2-.2,2.3-.2,2.4,2.1,2.4,0,0,.2,0-.1,0Z"/>
      <path class="cls-7" d="M-266.4,65.6c-8,0-14.5,0-20.9,0-1,0-1.3-.1-1.3-1.2,0-1.1.4-1.2,1.3-1.1,1.3,0,2.6,0,3.9,0,.9,0,1.2-.2,1.2-1.1,0-3.4,0-6.8,0-10.2,0-.8-.2-1.1-1-.9-.3,0-.5,0-.8.1-.7,0-1.3-.1-1.6-.8-.3-.6.1-1.1.6-1.6,2.1-2.2,4.6-4,6.9-6,2.7-2.3,5.3-4.7,7.9-7.1.9-.9,1.6-1,2.4,0,1.1,1.5,2.6,2.5,4.1,3.5.3.2.7.6,1.1.4.4-.2,0-.7,0-1-.2-2.7-.2-2.7,2.4-2.7,2.1,0,2.1,0,2,2.2,0,1.6,0,3.1-.3,4.7-.2,1.3,1.1,2,1.8,2.7,1.3,1.1,2.5,2.3,3.9,3.3.5.4,1,.9.5,1.6-.4.7-1.1,1.2-2,.8-1.4-.8-1.6-.1-1.6,1.2,0,3.3,0,6.5,0,9.8,0,.8.2,1.1,1.1,1.1,2,0,4,0,5.9,0,.8,0,1.7-.2,1.6,1.2,0,1.3-.6,1.3-1.6,1.3-6.4-.1-12.8-.3-17.6-.2ZM-270,62.7c.4.3.8.2,1.2.2,2.5.2,5.1,0,7.6,0,1,0,1.3-.3,1.2-1.3-.3-3-.2-6.1-.2-9.1,0-.8-.3-.9-.9-.9-1.8,0-3.7,0-5.5,0-.7,0-.9.3-.9.9,0,1.9-.3,3.8-.2,5.6.1,2-1.1,3.2-2.2,4.5ZM-274.6,58.9s0,0,0,0c1,0,1.9-.1,2.9,0,.8.1,1-.2,1-.9,0-1.8,0-3.6,0-5.4,0-.6-.3-.7-.8-.6-2,0-4,0-6.1,0-.6,0-.8.2-.8.8,0,1.7,0,3.4,0,5.1,0,.6.1.8.7.8,1.1,0,2.1,0,3.2,0Z"/>
      <path class="cls-7" d="M-342.6,85.6c6.1.1,10.5,3.8,10.8,10.4.3,5.4-4.7,10.8-10.4,10.7-6.3,0-11-4.1-11.3-9.7-.4-6.4,5.6-11.8,10.9-11.5ZM-342.5,90.4c-3.5,0-6,2.4-6,5.8,0,3.2,2.7,6,5.9,6,3.2,0,5.9-2.7,6-6,0-3.5-2.4-5.9-5.9-5.9Z"/>
      <path class="cls-7" d="M-280.9,106.7c-2.8.2-5-1.2-6.8-3.2-2-2.2-2.9-4.9-2.8-7.9.2-5.6,5.2-10.3,10.9-10.1,6.7.2,11.1,4.8,10.7,11.5-.3,5-4.9,10-11.9,9.6ZM-285.8,96.4c0,3.1,2.8,5.7,6.1,5.7,3.1,0,6.1-3,6.1-6.2,0-3.2-2.7-5.6-6.1-5.6-3.3,0-6,2.7-6,6.1Z"/>
      <path class="cls-1" d="M-350.7,74.4c4.2-4.2,7.8-8.5,11.9-12.3.5-.5,1-.5,1.6-.5,4.4,0,8.8.2,13.1-.2.7,0,.8.2.8.8-.3,3.7-.1,7.5,0,11.2,0,.9-.5.8-1.1.8-5.2,0-10.4,0-15.6,0-3.5,0-7,.2-10.8.4Z"/>
      <path class="cls-1" d="M-293.2,74.1c-5.7,0-11.3,0-17,0-2.4,0-4.9-.1-7.3.1-.8,0-.9-.1-.9-.9,0-3.6,0-7.3,0-10.9,0-.8.1-1.1,1-1.1,3.9.2,7.8.4,11.7,0,.7,0,1,.3,1.3.8,3.1,3.4,6.3,6.8,9.4,10.1.6.6,1.1,1.2,1.8,1.9Z"/>
      <path class="cls-1" d="M-314.6,82.1c-.7,0-1.4,0-2.1,0-1.4.2-1.7-.4-1.6-1.7,0-.8.3-1.1,1-1.1,1.9,0,3.8,0,5.6-.1.9,0,1,.5.9,1.2,0,.6.4,1.6-.8,1.7-1,0-2,0-3,0h0Z"/>
      <path class="cls-1" d="M-262.4,80.7c2.1,0,2.2,0,2.1,2.1-.1,2.4.8,2.1-3.5,2.3-1.3,0-.9-.8-.9-1.5,0-2.9,0-2.9,2.3-2.9Z"/>
      <path class="cls-1" d="M-358.2,84.1c.3,0,.2,0,.1,0-2.3,0-2.3-.1-2.1-2.4,0-.9.5-1.2,1.3-1.2.6,0,1.2,0,1.8,0,1.3-.1,1.7.5,1.8,1.6,0,2.1.1,2.1-2.9,2.1Z"/>
      <path class="cls-2" d="M-270,62.7c1.2-1.3,2.3-2.5,2.2-4.5-.1-1.9.2-3.8.2-5.6,0-.6.2-.9.9-.9,1.8,0,3.7,0,5.5,0,.7,0,1,.2.9.9,0,3-.2,6.1.2,9.1.1,1-.2,1.3-1.2,1.3-2.5-.1-5.1.2-7.6,0-.4,0-.8,0-1.2-.2Z"/>
      <path class="cls-1" d="M-274.6,58.9c-1.1,0-2.1,0-3.2,0-.6,0-.8-.3-.7-.8,0-1.7,0-3.4,0-5.1,0-.6.2-.8.8-.8,2,0,4,0,6.1,0,.5,0,.8,0,.8.6,0,1.8,0,3.6,0,5.4,0,.6-.1,1-1,.9-.9-.1-1.9,0-2.9,0,0,0,0,0,0,0Z"/>
      <path class="cls-1" d="M-342.5,90.4c3.5,0,5.9,2.4,5.9,5.9,0,3.3-2.7,6-6,6-3.3,0-6-2.8-5.9-6,0-3.4,2.6-5.8,6-5.8ZM-342.5,99.8c2.1,0,3.6-1.4,3.6-3.4,0-2-1.6-3.6-3.6-3.6-1.8,0-3.5,1.9-3.6,3.7,0,1.6,1.8,3.2,3.6,3.2Z"/>
      <path class="cls-1" d="M-285.8,96.4c0-3.3,2.7-6.1,6-6.1,3.4,0,6.1,2.4,6.1,5.6,0,3.1-3,6.2-6.1,6.2-3.2,0-6.1-2.7-6.1-5.7ZM-279.7,92.8c-1.9,0-3.8,1.8-3.8,3.7,0,1.8,1.8,3.4,3.7,3.3,1.9,0,3.6-1.8,3.6-3.6,0-1.9-1.5-3.4-3.6-3.4Z"/>
      <path class="cls-7" d="M-342.5,99.8c-1.8,0-3.6-1.6-3.6-3.2,0-1.8,1.8-3.7,3.6-3.7,2,0,3.6,1.5,3.6,3.6,0,2-1.5,3.4-3.6,3.4Z"/>
      <path class="cls-7" d="M-279.7,92.8c2,0,3.6,1.4,3.6,3.4,0,1.8-1.8,3.6-3.6,3.6-1.9,0-3.7-1.6-3.7-3.3,0-1.9,1.8-3.6,3.8-3.7Z"/>
      <path class="cls-7" d="M-88.8,70.8c0,15-.2,30,0,45,0,5.7-3.1,9.8-9.8,9.7-21.3-.2-42.6-.1-63.8-.2-1.2,0-2.4,0-3.6,0-4.3,0-7.2-2.4-7.9-6.7-.3-1.6-.3-3.1-.3-4.7,0-29.7,0-59.3,0-89,0-6.3,2.9-9,9.2-9,6.4,0,12.8.4,19.1.1,1.3,0,2.2.2,1.9,1.8,0,.1,0,.2,0,.4,0,3.3,0,3.3-3.1,3.9-2.1.4-4,1.5-5.5,3.1-1.7,1.8-3.6,2.5-6,2.4-2.1,0-4.1.2-6.2,0-1.3,0-1.5.3-1.5,1.5,0,6.4,0,12.8,0,19.1,0,19.3-.1,38.7-.2,58,0,3.3,0,6.6,0,9.8,0,.9.2,1.3,1.3,1.3,15.6,0,31.2-.1,46.9,0,6.8,0,13.6-.4,20.4.3,1.2.1,1.2-.4,1.2-1.4-.5-26.9-.1-53.7-.4-80.6,0-2.2,0-4.5,0-6.7,0-1.1-.2-1.5-1.4-1.5-3.2,0-6.3,0-9.5,0-.5,0-.9,0-1.3-.5-2.2-2.9-5.4-4.5-8.9-5.2-1.2-.2-1.7-.6-1.6-2,.3-3.5.2-3.5,3.7-3.6,6.2,0,12.4-.1,18.6-.2,5,0,8.3,3.2,8.4,8.2,0,11.4,0,22.9,0,34.3,0,4.1,0,8.1,0,12.2,0,0,0,0,0,0Z"/>
      <path class="cls-7" d="M-515.8,70c0,1.7,0,3.4,0,5.1,0,10.5-.3,21,.2,31.5.2,4.1-1.4,7.2-3.9,10-3.3,3.5-7,6.5-10.8,9.4-2.4,1.8-5.1,2.1-7.9,2.1-16.4.2-32.8.4-49.2.2-3.2,0-6.4.1-9.7.1-4.5,0-7.5-2.9-7.5-7.3,0-19.8,0-39.6,0-59.4,0-12.7,0-25.4,0-38.1,0-1.8-.3-3.7.9-5.3,1.3-1.8,2.9-2.8,5.1-2.9,6.7,0,13.5-.1,20.2-.1,18.8,0,37.7,0,56.5-.1,3.3,0,5.3,1.6,6.1,5,.4,1.6.1,3.1.2,4.7,0,2.5-.1,4.9-.1,7.4,0,12.6,0,25.2,0,37.8ZM-543.2,122.3c.5,0,1,0,1.5,0,2.9.1,2.9.1,2.9-2.9,0-2.4,0-4.8,0-7.2,2.9.6,5.6.2,8.3.2,2.2,0,4.4,0,6.5-.3,1.2-.2,1.9-.7,1.8-2.1-.1-2.4,0-4.7,0-7.1.1-17.9.2-35.8.3-53.8,0-.9.2-1.8-.3-2.7.4-7.5,0-15.1.2-22.6,0-1.7-.4-2.3-2.2-2.3-13.7.1-27.3.1-41,.1-10.5,0-21,0-31.5-.1-.9,0-1.8-.2-1.8,1.3.1,7.8-.2,15.7.1,23.5,0,6.8,0,13.6,0,20.4,0,18-.1,36-.2,53.9,0,.9-.1,1.8,1.2,1.4,5.5-.1,11,.3,16.5,0,10-.3,20.1,0,30.1,0,2.5,0,4.9,0,7.4,0Z"/>
      <path class="cls-7" d="M-496.6,83.3c0-1.8,0-3.6,0-5.5,0-1,.4-1.4,1.4-1.3.8,0,1.6,0,2.4,0,1,0,1.6-.4,1.8-1.6.5-3.4.4-3.5-3.1-3.6-2,0-2.1-.2-1.4-2,1-2.5,2.9-3.8,5.5-4,1.8,0,3-.9,4-2.3,2.7-3.7,5.5-7.3,8.2-10.9,2.9-3.7,6.6-5.5,11.3-5.5,8.4,0,16.9.3,25.3,0,5.3-.2,8.9,2,12,5.9,2.8,3.6,5.3,7.4,8.3,10.9.9,1.1,1.8,1.6,3.3,1.5,2.5,0,5-.1,7.5.1,3.3.3,6.1,1.5,7.5,4.9.4.9.4,1.4-.8,1.3-.6,0-1.3-.1-1.8,0-.8.2-2.2-.7-2.4,1-.2,2.3.7,3.7,2.5,4q3.4.6,3.4,3.9c0,2.9,0,5.8.1,8.8,0,1-.3,1.2-1.2,1.3-4,.4-3.9.4-4.4-3.6-.7-5.2-3.9-8.5-8.6-10.4-8.7-3.4-17.6,1.4-19.3,10.1,0,.4-.1.7-.1,1.1-.3,3.1-.3,3.1-3.3,3.1-7.7,0-15.3,0-23-.1-2.6,0-2.6,0-2.9-2.6-.9-6.6-5.9-11.6-12.4-12.4-8.3-1.1-14.7,4.3-15.3,12.7,0,.7.4,1.8-.4,1.9-1.3.3-2.7.4-4,0-.4-.1-.3-.7-.3-1.2,0-1.9,0-3.8,0-5.6.1,0,.2,0,.3,0ZM-465.8,64.9s0,0,0,0c3.4,0,6.8,0,10.2,0,1.1,0,1.6-.2,1.6-1.5-.1-3.5,0-6.9,0-10.4,0-.9-.2-1.3-1.2-1.3-4,0-7.9,0-11.9,0-.8,0-1.4.2-1.9.8-2.9,3.5-5.5,7.1-8,10.8-.7,1-.5,1.5.8,1.4,3.5,0,6.9,0,10.4,0ZM-426.9,64.7c-3.2-4.5-6.4-8.6-10.4-12.1-.7-.6-1.6-.8-2.5-.8-2.7,0-5.5,0-8.2,0-1.1,0-1.3.3-1.3,1.3,0,3.6,0,7.2,0,10.7,0,.9.3,1,1.2,1,5,0,10.1,0,15.1,0,1.9,0,3.9.2,6.2-.2ZM-470.7,71.6h0c.8.1,1.6.2,2.4.2.7,0,1.4.1,1.4-.9,0-.8,0-1.7-1.3-1.6-1.5.1-3,0-4.5,0-.8,0-1.4,0-1.4,1.1,0,1.1.5,1.2,1.3,1.1.7,0,1.5,0,2.2,0ZM-430.7,69.4s0,0,0,0c-.7,0-1.5,0-2.2,0-.6,0-1.3,0-1.2.9,0,.7.1,1.3,1.1,1.3,1.3,0,2.7,0,4,.2,1.1.1,1.3-.4,1.3-1.4,0-1.1-.5-1.2-1.4-1.1-.5,0-1.1,0-1.6,0Z"/>
      <path class="cls-7" d="M81.5,12.2c1.7,0,4.1-.8,5.1.3.9,1,.2,3.2.3,4.9,0,1.1.1,1.7-1.5,1.7-16.1,0-32.2,0-48.3,0-1.6,0-1.8.5-1.8,2,0,15.1,0,30.3,0,45.4,0,16.9,0,33.8.1,50.7,0,1.2.4,1.3,1.5,1.3,14.2,0,28.5,0,42.7,0,.5,0,1.1,0,1.6,0,2.2-.5,3.7,0,4.6,2.4.6,1.6,2.4,2.3,3.6,3.5-.4.6-.9.4-1.4.4-17.8,0-35.6,0-53.4,0-.8,0-1.6,0-2.4-.2-2.3-.4-3.3-1.4-3.5-3.7-.1-1.5-.1-3-.1-4.6,0-34,0-68.1,0-102.1,0-1.6.6-2,2-2,2.5,0,5,0,7.5,0,6.9,0,13.9,0,20.8,0,7.6.3,15.3.2,22.9,0Z"/>
      <path class="cls-5" d="M-131.6,38.6c-8,0-16,0-24.1,0-3.6,0-4.2-.7-2.1-3.7,3.7-5.2,8.3-9.4,15-10.1,1.2-.1,1.4-.5,1.4-1.5,0-2.4,0-4.9,0-7.3,0-3.9,2.6-6.4,5.5-8.1,2.8-1.6,6-1.5,8.9.6,3.5,2.6,5.6,5.7,5,10.3-.2,1.6-.7,3.5-.2,4.9.6,1.6,2.8.8,4.3,1.2,4.8,1.5,8,5.1,11.3,8.5.7.7,1.3,1.6,1.7,2.5.9,1.7.2,2.7-1.7,2.7-6.8,0-13.6-.1-20.4-.2-1.6,0-3.2,0-4.7,0h0ZM-128.2,16.3c0-2.4-1.6-4.1-3.9-4.1-1.9,0-3.3,1.6-3.4,3.7,0,2,1.7,3.9,3.7,3.9,2,0,3.5-1.6,3.6-3.6Z"/>
      <path class="cls-7" d="M90.1,12.1c8.5,9.4,17.9,18.1,26.4,27.6-.4.7-.9.4-1.3.4-7.9,0-15.8,0-23.7.1-1.4,0-1.8-.3-1.8-1.8,0-8.6,0-17.1,0-25.7,0-.2-.1-.5.3-.7Z"/>
      <path class="cls-7" d="M116.7,89.4c-2.2-1.7-4.1-2.9-6.3-3.4-1-.2-.6-1.1-.6-1.7,0-8.9,0-17.7,0-26.6,0-4.6,0-9.1,0-13.7,0-1.2.4-1.4,1.4-1.3,1.8.2,4.1-.8,5.2.4,1,1.1.3,3.4.3,5.1,0,12.1,0,24.3,0,36.4,0,1.4,0,2.8,0,4.7Z"/>
      <path class="cls-7" d="M-409.8,88.8c0,6-5.5,11.7-11.2,11.7-4.7,0-11.8-4.1-11.8-11.6,0-6.3,5-11.3,11.3-11.3,6.7,0,11.7,4.7,11.7,11.1ZM-414.5,89c0-3.5-3.2-6.8-6.7-6.9-3.5,0-6.8,3.2-6.9,6.7,0,3.5,3.2,7,6.8,7,3.3,0,6.8-3.4,6.8-6.9Z"/>
      <path class="cls-7" d="M-489.8,89.5c-.2-6.3,4.7-11.6,10.7-11.8,6.3-.1,11.5,4.6,11.8,10.7.3,7.2-6.2,11.9-10.6,12-4.7.1-12.3-4.4-11.8-11ZM-478.7,82.3c-3.3,0-6.4,3-6.5,6.6,0,3.4,3,6.8,6.3,6.8,3.6,0,6.7-2.9,6.7-6.5,0-3.6-2.9-6.8-6.6-6.9Z"/>
      <path class="cls-7" d="M40.8,102.7c.3-5.1,6.7-11.9,10.9-11,3.1.7,6.5,1.9,8.7,4.5,1.7,2,2.4,4.6,2.2,7.1-.2,2.6-1,5.1-2.9,7.1-2.3,2.4-5.4,3.5-8.5,3.6-6.1,0-11.1-5.7-10.5-11.3ZM57.7,99h0c0-.2,0-.5-.2-.7-1.9-2.6-5.4-3.5-9-2.1-2.5.9-4.5,4.1-4.3,7,.2,2.9,2.3,5.7,5,6.6,3.4,1.1,6.4.3,8.2-2.1,2-2.7,2.1-5.7.3-8.6Z"/>
      <path class="cls-7" d="M-109.6,93.4c-2.1,4.7-7,6.4-10.4,10,2.8-.2,4.8-1.5,6.7-2.9,1.7-1.1,3.3-2.3,5.3-2.8.9-.2,1.9-.5,2.2.9-3.2.8-5.9,2.7-8.5,5.2,2.8,0,5.6,0,8.4,0,.7,0,1.3,0,2,0,.7,0,1.2.1,1.2,1,0,.8-.3,1.2-1.2,1.2-.9,0-1.8,0-2.7,0-4.1,0-8.1,0-12.2,0-4.4,0-7.5,2.2-9.8,5.7-.6,1-1.3.8-2,.5-.8-.4-.2-1.1.1-1.5,1.5-1.8,3-3.6,5.1-5.3-2.8.4-5.2.5-7.7,0-1.6-.3-2-.9-.9-2.1,1.3-1.5,2.8-2.9,4.3-4.2,3.7-3.2,8.2-4.9,13-5.8.4,0,.9-.3,1.1.2.1.4-.2.7-.5.9-1.2,1.2-2.7,1.7-4.2,2.1-3.2.9-5.9,2.7-8.7,4.4-.7.4-1.4,1-1.9,1.7-.5.7-.4,1,.5,1,1.9,0,3.9,0,5.8-.2,1.5-.1,2.5-1.2,3.5-2.1,3.5-3.1,8-4.7,11.5-7.9Z"/>
      <path class="cls-7" d="M49.3,46.2c2.3-.2,4.6-.3,6.9-.4,1,0,2,0,2,1.4,0,5,.3,10.1-.2,15.1-.2,1.8-.9,2-2.8,1.8-2.2-.2-4.5-.1-6.7-.1-2.1,0-4.2,0-6.4,0-1.1,0-1.6-.3-1.6-1.4,0-5,0-9.9,0-14.9,0-1,.4-1.3,1.4-1.3,2.4,0,4.9,0,7.3,0h0ZM47.7,55.2c-.3-.4-.6-.9-1-1.3-.8-.9-1.6-1.1-2.3,0-2,1.7-.8,4-1,6-.1,1.1.4,1.4,1.4,1.4,3,0,6.1,0,9.1,0,1.3,0,1.6-.5,1.6-1.7,0-2.6-.5-5.2-.2-7.8.3-.7.3-1.5.1-2.3,0-.7-.6-.7-1.1-.7-3.3,0-6.7-.2-10-.2-.5,0-.9,0-.9.6,0,1-.1,2.1.8,2.9.8.6,1.3,0,1.9-.5.5-.4,1.2-.4,1.7,0,.5.4.3.9,0,1.3-.5.8.2,1.5,0,2.3Z"/>
      <path class="cls-7" d="M-144,54.6c0,2.4,0,4.7,0,7.1,0,1.4-.4,2.1-2.1,2.1-4.4-.1-8.7-.2-13.1.2-1.5.1-2.6-1.1-2.2-2.6.6-2.6.5-5.1,0-7.6-.4-2.3.6-4.5.5-6.8,0-.7.5-.7,1-.7,4.7-.3,9.5-.3,14.2-.3,1.4,0,1.9.6,1.8,2-.1,2.2,0,4.5,0,6.7,0,0,0,0,0,0ZM-146.7,49.4c-.7-.9-1.7-1-2.8-1-2.4,0-4.7,0-7.1,0-1.3,0-1.7.4-1.7,1.7,0,3.1,0,6.2,0,9.3,0,1.1.3,1.5,1.5,1.5,2.9,0,5.8-.1,8.7.2.9.1,1.4-.2,1.4-1.2,0-2.7,0-5.5,0-8.2.4-.8.4-1.6,0-2.4Z"/>
      <path class="cls-7" d="M49.6,24c2.4,0,4.9,0,7.3,0,.9,0,1.5,0,1.5,1.3,0,4.4,0,8.9,0,13.3,0,1.5-.4,2.1-2.1,2-4.6-.1-9.2,0-13.8,0-1.3,0-1.6-.3-1.6-1.6,0-4.4,0-8.7,0-13.1,0-1.3.3-1.8,1.7-1.8,2.4.1,4.7,0,7.1,0,0,0,0-.1,0-.2ZM55.4,27.6c-.1-.7-.8-.8-1.3-.8-3.2,0-6.3,0-9.5,0-1.1,0-1.3.7-1.3,1.6,0,2.7,0,5.3.4,8,.1.9.6,1.4,1.4,1.2,3-.4,5.9.5,8.8.6.9,0,1.2-.2,1.2-1.1,0-2.4,0-4.8,0-7.3,0-.7,0-1.5.1-2.2Z"/>
      <path class="cls-7" d="M72.4,71.4c9.4,0,18.8,0,28.2,0,.8,0,1.6,0,2.4,0,1.1,0,.9.9.9,1.6,0,.9-.5.7-1.1.7-15.4,0-30.8,0-46.3,0-4.7,0-9.4-.4-14,.2-1.4.2-1-.8-1-1.5,0-.7-.3-1.3,1-1.3,10,0,19.9,0,29.9,0Z"/>
      <path class="cls-7" d="M75,79c-12.4,0-22.4,0-32.5,0-.8,0-1.2-.1-1.2-1.1,0-.8.3-.8,1-.8,19.6,0,39.1-.1,58.7-.2.5,0,1.1,0,1.6,0,.8,0,1,.4,1.1,1.1,0,1-.6.8-1.2.8-10,.2-19.9-.3-27.5,0Z"/>
      <path class="cls-7" d="M69.3,84c-6.5-.2-16.4.2-26.3.3-.8,0-1.7.2-1.7-1.2,0-1.4,1-.9,1.7-.9,16-.1,32.1-.3,48.1-.3,3.7,0,7.4.2,11.1.3.8,0,1.4.1,1.4,1.2,0,1.3-.9.7-1.4.7-9.8,0-19.7,0-33,0Z"/>
      <path class="cls-7" d="M-131.4,81.2c-9.1,0-18.2,0-27.3,0-.5,0-1.4.5-1.5-.7,0-1.1.8-1,1.5-1,18.2,0,36.3,0,54.5,0,.3,0,.6,0,.9,0,.7,0,.9.5.9,1.1,0,.8-.5.7-1,.7-1.7,0-3.4,0-5.1,0-7.7,0-15.3,0-23,0,0,0,0,0,0-.1Z"/>
      <path class="cls-7" d="M-131.4,74.7c8.7,0,17.5,0,26.2,0,.7,0,1.3,0,2,0,.5,0,.8.3.8.8,0,.6-.4.6-.9.7-1.4,0-2.8.2-4.2.2-17,0-33.9,0-50.9,0-.3,0-.6,0-.9,0-.7,0-1.2-.2-1.2-1,0-.9.8-.6,1.2-.6,7.4,0,14.7,0,22.1-.1,1.9,0,3.8,0,5.7,0h0Z"/>
      <path class="cls-7" d="M-131.2,72.3c-9.2,0-18.3,0-27.5,0-.5,0-1.5.6-1.6-.6-.1-1.2.8-1,1.5-1,18.3-.6,36.7-.4,55,0,.3,0,.6,0,.9,0,.5,0,.8.2.8.8,0,.6-.3.8-.8.8-.6,0-1.2,0-1.8,0-8.9,0-17.7,0-26.6,0h0Z"/>
      <path class="cls-7" d="M78.1,105.1c-3.1,0-6,0-8.8-.4-1.6-.3-1.8-.6-.9-1.9,2.8-3.8,6.4-6.4,10.7-8.2,1.7-.7,3.5-1.2,5.3-1.8.3-.1.7-.3,1,0,.4.4.2.8,0,1.2-.8,1.3-1.8,2.2-3.5,2.5-3.6.5-6.7,2.3-9.5,4.5-.5.4-.9,1-.6,1.6.2.6,1,.3,1.5.3,1,0,2.1-.1,3.1,0,2.7.3,4.6-1,6.4-2.9-.5,2-.7,3.9-1.2,5.8-.2.9-1.1,1.2-1.9,1.6-2.1,1.1-4,2.3-5,4.6-.5,1.1-1.5,1-2.3.6-1-.5-.2-1.3,0-1.8,1.4-2.2,3.5-3.7,5.6-5.6Z"/>
      <path class="cls-7" d="M66.9,88.7c-8.1,0-16.1,0-24.2,0-.5,0-1.3.5-1.3-.7,0-.8.2-1.1,1.2-1.1,16.3.1,32.7-.2,49,.3.2,0,.5,0,.7,0,.3,0,.8,0,.9.4,0,.5-.3.8-.8.9-.6,0-1.2.1-1.8.1-7.9,0-15.8,0-23.7,0,0,0,0,0,0,0Z"/>
      <path class="cls-7" d="M83.2,51.5c-6.9.2-13.4-.2-19.9-.3-1.2,0-1.1-.9-1.2-1.4-.2-.8.5-.9,1.2-.9,3.8,0,7.6,0,11.5.3,9.2.5,18.4.1,27.7-.2.5,0,1.4-.6,1.5.6,0,1.1-.5,1.3-1.4,1.3-6.6.2-13.1.6-19.2.5Z"/>
      <path class="cls-7" d="M-102.4,84.8c-1.2.3-2.2,1.1-3.5.5-.4-.2-1.1,0-1.6,0-16.4,0-32.8-.2-49.2,0-.8,0-1.6,0-2.4,0-.4,0-1.1.3-1.1-.6,0-.8.5-.8,1.1-.8,3.3,0,6.6-.2,9.8-.2,13.5,0,27,0,40.5.1,1.6,0,3.2.1,4.7.2.6,0,1.2-.2,1.7.7Z"/>
      <path class="cls-7" d="M-121.4,55.4c-5.8,0-11.5,0-17.3,0-.5,0-1.3.5-1.3-.6,0-1,.4-1.2,1.3-1.2,11.5-.2,23.1-.4,34.6,0,.5,0,1.4-.3,1.6.5.3,1,0,1.5-1.3,1.5-5.9,0-11.8,0-17.7,0,0,0,0,0,0,0Z"/>
      <path class="cls-7" d="M82.8,60.7c-6.4,0-12.9,0-19.3,0-.7,0-1.4,0-1.3-.9,0-1,.6-.9,1.4-1,12.9-.2,25.8-.3,38.7-.1.8,0,1.7-.1,1.7,1.1,0,1.2-1.1.7-1.7.7-6.4,0-12.9,0-19.3,0,0,0,0,.1,0,.2Z"/>
      <path class="cls-7" d="M-121.2,64.7c-5.9,0-11.8,0-17.7,0-.6,0-1.2.2-1.2-.8,0-.9.5-.9,1.2-.9,6.2,0,12.5-.2,18.7-.3,5.2,0,10.4,0,15.7,0,.5,0,1,0,1.5,0,.7,0,.9.6.9,1.2,0,.8-.6.6-1.1.5-6-.3-12,0-18,.3Z"/>
      <path class="cls-7" d="M-140.4,48.4c1.4-.1,2.7-.3,3.9-.3,10.6,0,21.2,0,31.9-.1.4,0,.8,0,1.3,0,.7,0,1,.3.9,1,0,.7-.5.7-1,.7-1,0-2.1,0-3.1,0-10.8,0-21.6,0-32.4.1-1.2,0-1.1-.8-1.5-1.6Z"/>
      <path class="cls-7" d="M-121.6,59.8c-5.7,0-11.4,0-17.1,0-.7,0-1.3.2-1.3-.9,0-1,.6-.8,1.2-.8,11,0,22.1,0,33.1-.1.7,0,1.5,0,2.2,0,.5,0,.8.3.8.8,0,.6-.4.6-.9.6-1,0-1.9,0-2.9,0-5,0-10.1,0-15.1,0,0,.1,0,.2,0,.3Z"/>
      <path class="cls-7" d="M82.6,54.6c6.8-.3,13.1-.3,19.5-.2.6,0,1.5-.3,1.5.8,0,1.2-.9.7-1.5.7-12.9-.2-25.8.2-38.7-.1-.6,0-1.2.2-1.2-.8,0-1.1.7-.7,1.2-.7,6.5.2,13,.6,19.1.4Z"/>
      <path class="cls-7" d="M103.6,64.3c-.2.6-.5.6-.7.6-10.8-.8-21.6.2-32.4.1-2.3,0-4.6,0-6.9-.2-.4,0-1.2.3-1.2-.7,0-.9.8-.6,1.3-.6,6.4,0,12.7,0,19.1.2,5.8.1,11.5,0,17.3,0,1.2,0,2.4,0,3.5.5Z"/>
      <path class="cls-7" d="M73.6,36.7c-3.1,0-6.2,0-9.3,0-.7,0-1.8.5-1.9-1,0-1.3.8-1.3,1.7-1.3,6.4,0,12.8,0,19.3.1.8,0,2.3,0,2.3.8,0,1.2-1.5,1-2.4,1.1-3.3,0-6.5,0-9.8,0,0,0,0,.2,0,.2Z"/>
      <path class="cls-7" d="M73.7,30.4c-3.2,0-6.4,0-9.6,0-.6,0-1.6.5-1.6-.8,0-1,.7-1,1.5-1.1,6.4-.4,12.7-.3,19.1.1.9,0,2.4-.1,2.4,1.1,0,1.1-1.5.7-2.3.7-3.2,0-6.3,0-9.5,0,0,0,0,0,0,0Z"/>
      <path class="cls-7" d="M83.2,40.4c-.9.5-1.6.7-2.5.6-2.5-.1-5-.1-7.6.3-2.1.3-4.3,0-6.4-.1-1,0-2.1,0-3.1,0-.4,0-1,.2-1-.4,0-.5,0-1.1.8-1.2.8,0,1.6-.1,2.4-.2,5-.2,9.9,0,14.9,0,.9,0,1.6.4,2.5.8Z"/>
      <path class="cls-7" d="M-117.5,88.9c-9.8.3-19.5.5-29-.1,8-.9,16.3-.5,24.5-.3,1.6,0,3.1-.3,4.7.2,0,0-.1.2-.2.3Z"/>
      <path class="cls-5" d="M-515.8,70c0-12.6,0-25.2,0-37.8,0-2.5,0-5,.1-7.4,0,13.4,0,26.7,0,40.1,0,1.7,0,3.4,0,5.1Z"/>
      <path class="cls-5" d="M81.5,12.2c-7.6.2-15.3.3-22.9,0,7.6,0,15.3,0,22.9,0Z"/>
      <path class="cls-6" d="M-550.6,122.3c-10,0-20.1-.4-30.1,0-5.5.1-11-.3-16.5,0-1.4.3-1.2-.5-1.2-1.4,0-18,.1-36,.2-53.9,0-6.8,0-13.6,0-20.4,13.1.4,26.2.2,39.4.4,12.3.2,24.5-.6,36.8-.3.5.8.3,1.8.3,2.7,0,17.9-.2,35.8-.3,53.8,0,2.4-.1,4.7,0,7.1,0,1.5-.6,1.9-1.8,2.1-2.2.4-4.4.3-6.5.3-2.7,0-5.4.4-8.3-.2,0,2.4,0,4.8,0,7.2,0,3,0,3-2.9,2.9-.5,0-1,0-1.4,0-2.5-.3-4.9-.3-7.4,0ZM-560.1,76.4s0,0,0,0c1.9,0,3.9,0,5.8,0,8.3,0,16.5-.2,24.8.1.6,0,1.5.3,1.4-.8,0-.9-.4-1.6-1.4-1.5-.2,0-.4,0-.5,0-20.2.2-40.3.4-60.5,0-1.5,0-1.1,1.2-1.2,1.7-.3,1.2.8.3,1.2.4.4.1.8,0,1.3,0,9.7,0,19.4,0,29.2,0ZM-560,66.5c6.4-.4,12.8-.2,19.1-.1,3.6,0,7.2,0,10.8-.1.6,0,1.6.5,1.7-.8,0-1.4-1-1.1-1.8-1.1-.7,0-1.5,0-2.2,0-13.2,0-26.4,0-39.6,0-6.1,0-12.1.3-18.2.5-1.1,0-1.7.4-1.2,1.5.2.6,1,.3,1.5.3,10,0,19.9,0,29.9,0ZM-560.1,71.3s0,0,0,.1c10.1,0,20.3,0,30.4,0,.4,0,1.1.2,1.1-.5,0-.6-.2-1.2-1-1.2-.5,0-1.1,0-1.6,0-4.1,0-8.3,0-12.4,0-15.7.1-31.3,0-47-.3-.7,0-1.3-.3-1.3.9,0,1.1.4,1.2,1.4,1.2,10.1,0,20.3,0,30.4,0ZM-552.7,97.6h0c-7.5,0-15.1,0-22.6,0-1.6,0-1.4.8-1.2,1.7.2.9,1.1.4,1.7.5,11.1,0,22.1-.3,33.2,0,3.9,0,7.8,0,11.7-.1.6,0,1.6.4,1.6-.9,0-1.2-.9-1.1-1.7-1,0,0-.1,0-.2,0-7.5,0-14.9,0-22.4,0ZM-580.6,92.3c0,0,.1,0,.2,0,0-1.5,0-3,0-4.5,0-1-.4-1.5-1.4-1.3-2.8.4-5.7.4-8.5.4-.7,0-1.2.3-1.2,1-.1,3.2-.3,6.4,0,9.6.1,1.2.7,1.5,1.8,1.4,2.5-.2,5.1-.4,7.6-.1,1.1.1,1.4-.4,1.4-1.4,0-1.7,0-3.4,0-5.1ZM-552.5,53.8s0,0,0,0c-7.5,0-15,0-22.4,0-.7,0-1.6-.4-1.6,1,0,1.5.9,1.1,1.7,1.1,9.6,0,19.2,0,28.8,0,5.5,0,11.1-.2,16.6-.3.5,0,1.2.3,1.2-.7,0-.9-.4-1.2-1.2-1.2-.5,0-1,0-1.5,0-7.2,0-14.3,0-21.5,0ZM-552.5,89.5c7.1.2,14.2.5,21.3.2.7,0,1.3,0,2-.1.5,0,.7-.3.7-.9,0-.5-.1-.9-.7-.9-.5,0-1.1,0-1.6,0-14.7.2-29.4-.2-44-.7-.7,0-1.5-.4-1.4.9,0,1.1.4,1.3,1.4,1.3,7.5-.3,14.9.2,22.4.3ZM-585.9,61.7s0,0,0,0c1.3,0,2.5.1,3.8.2.7,0,1.1,0,1.2-.9.2-2.5.2-5.1.2-7.6,0-.8-.4-1.4-1.3-1.4-2.8,0-5.6,0-8.4,0-.9,0-1.3.4-1.3,1.3,0,2.3,0,4.6,0,6.9,0,.9.3,1.3,1.2,1.3,1.5,0,3,0,4.5,0ZM-552.7,59.1s0,0,0,.1c-7.6,0-15.2,0-22.8,0-.7,0-1.3,0-1.3,1,0,1.1.7.9,1.4.9,8.3,0,16.5,0,24.8,0,6.9,0,13.7,0,20.6-.2.6,0,1.6.3,1.7-.9,0-1.3-1-.9-1.7-.9-7.5,0-15.1,0-22.6,0ZM-547.9,109.6c-1.3-.7-2.3-.6-3.3-.7-9-.5-18-.7-27-.6-4,0-8,.1-12,.1-.8,0-1.1.2-1.1.9,0,.8.5.8,1.1.9.4,0,.7,0,1.1,0,12.6,0,25.2-.4,37.7-.2,1,0,2.1,0,3.5-.5ZM-552.8,92.8c0-.1,0-.3,0-.4-7.6,0-15.3,0-22.9,0-.6,0-1.2-.2-1.2.8,0,.9.3,1.2,1.1,1.1.3,0,.6,0,.9,0,14.9,0,29.7.2,44.6.2.6,0,1.5.4,1.6-.9,0-1.3-.9-.9-1.5-.9-7.5,0-15.1,0-22.6,0ZM-546.2,104c-1.6-.2-2.7-.5-3.8-.6-8.6-.6-17.1-.3-25.7-.5-.4,0-1.1-.2-1.3.4-.4,1.2-1.1,1.1-1.9.6-.8-.4-1.8-.4-2.7-.3-2.6,0-5.2,0-7.8.2-.7,0-2.1-.5-2.1.7,0,1.5,1.4.7,2.2.7,4.4.4,8.7-.7,13.1-.6,9.1.2,18.2.4,27.3,0,.7,0,1.5,0,2.7-.7ZM-556.2,114.1v-.8c-2.9,0-5.9,0-8.9,0-8.3,0-16.6,0-24.9.3-.6,0-1.3-.2-1.2.8,0,.6.4.5.9.5,8.9,0,17.8-.1,26.8-.2,2.5,0,4.9-.2,7.4-.6ZM-569.3,84.7c0,0,0-.1,0-.2,1.9,0,3.8,0,5.6,0,.4,0,1.2.4,1.3-.5,0-.9-.7-1.1-1.4-1.1-2.1,0-4.1,0-6.2,0-1.8,0-3.6,0-5.4.4-.5.1-1,.2-.9.9,0,.8.7.4,1.1.4,1.9,0,3.9,0,5.8,0ZM-534.4,104c2.1.2,3.8.3,5.5.4,0-.2,0-.4,0-.6-1.7-.2-3.4-.3-5.5.2Z"/>
      <path class="cls-5" d="M-522.2,46.5c-12.3-.3-24.5.5-36.8.3-13.1-.2-26.2,0-39.4-.4-.3-7.8,0-15.7-.1-23.5,0-1.5.9-1.3,1.8-1.3,10.5,0,21,.1,31.5.1,13.7,0,27.3,0,41-.1,1.8,0,2.3.5,2.2,2.3-.3,7.5.1,15.1-.2,22.6ZM-582.7,43.6c4.3,0,8.8-4.5,8.7-8.5,0-4.5-4.3-8.8-8.6-8.7-4.2,0-8.4,4.2-8.4,8.3,0,4.5,4.2,9,8.3,9ZM-548.8,41.7c4.8.1,10.2-.3,15.7-.4.9,0,2.1.1,2.1-1.2,0-1.2-1.2-.9-2-.9-4.4.3-8.8.3-13.3.1-6.5-.2-13,0-19.5,0-.9,0-1.7-.1-1.8,1.3,0,1.6,1.1,1,1.7,1,5.5,0,10.9,0,17.1,0ZM-547.8,30.1c-7,0-12.7,0-18.3,0-1,0-1.5.3-1.4,1.3,0,1.1.8.8,1.4.8,1.9,0,3.8,0,5.6,0,8.7.1,17.4-.3,26.1.4.9,0,1.8-.2,2.7-.4.5,0,.7-.4.7-.9,0-.6-.2-1-.8-1-.5,0-1.1-.1-1.6-.1-5.3,0-10.6.1-14.5,0Z"/>
      <path class="cls-5" d="M-597.2,122.2c5.5-.4,11,0,16.5,0-5.5.3-11,0-16.5,0Z"/>
      <path class="cls-5" d="M-550.6,122.3c2.5-.3,4.9-.3,7.4,0-2.5,0-4.9,0-7.4,0Z"/>
      <path class="cls-6" d="M-465.8,64.9c-3.5,0-6.9,0-10.4,0-1.3,0-1.5-.4-.8-1.4,2.5-3.7,5.2-7.3,8-10.8.5-.6,1.1-.8,1.9-.8,4,0,7.9,0,11.9,0,1,0,1.2.3,1.2,1.3,0,3.5,0,6.9,0,10.4,0,1.3-.5,1.5-1.6,1.5-3.4,0-6.8,0-10.2,0,0,0,0,0,0,0Z"/>
      <path class="cls-6" d="M-426.9,64.7c-2.3.4-4.3.2-6.2.2-5,0-10.1,0-15.1,0-.8,0-1.2,0-1.2-1,0-3.6,0-7.2,0-10.7,0-1,.3-1.4,1.3-1.3,2.7,0,5.5,0,8.2,0,.9,0,1.8.2,2.5.8,4,3.5,7.2,7.6,10.4,12.1Z"/>
      <path class="cls-6" d="M-470.7,71.6c-.7,0-1.5,0-2.2,0-.8,0-1.3,0-1.3-1.1,0-1.1.6-1.1,1.4-1.1,1.5,0,3,0,4.5,0,1.4-.1,1.2.9,1.3,1.6,0,1-.7.9-1.4.9-.8,0-1.6-.1-2.4-.2h0Z"/>
      <path class="cls-6" d="M-430.7,69.4c.5,0,1.1,0,1.6,0,.8,0,1.4,0,1.4,1.1,0,1-.2,1.5-1.3,1.4-1.3-.1-2.7-.3-4-.2-1,0-1-.6-1.1-1.3,0-1,.6-.9,1.2-.9.7,0,1.5,0,2.2,0,0,0,0,0,0,0Z"/>
      <path class="cls-6" d="M-128.2,16.3c0,2-1.6,3.6-3.6,3.6-2,0-3.8-1.9-3.7-3.9,0-2.1,1.5-3.8,3.4-3.7,2.3,0,3.9,1.7,3.9,4.1Z"/>
      <path class="cls-6" d="M-414.5,89c0,3.4-3.5,6.9-6.8,6.9-3.5,0-6.8-3.5-6.8-7,0-3.5,3.4-6.7,6.9-6.7,3.5,0,6.7,3.4,6.7,6.9ZM-421.3,84.8c-2.2-.1-4,1.7-4.2,4.4-.1,2.3,1.5,4.1,3.8,4.2,2,.1,4.1-2,4.4-4.1.3-2.1-1.8-4.4-4-4.5Z"/>
      <path class="cls-6" d="M-478.7,82.3c3.6.1,6.6,3.3,6.6,6.9,0,3.6-3.2,6.6-6.7,6.5-3.3,0-6.4-3.4-6.3-6.8,0-3.5,3.2-6.7,6.5-6.6ZM-474.6,89.2c0-2.2-1.9-4.3-4.1-4.3-1.9,0-3.8,1.9-3.8,3.9,0,2.3,1.9,4.4,4,4.5,1.8,0,3.9-2.1,3.9-4.1Z"/>
      <path class="cls-5" d="M57.7,99c1.8,2.9,1.7,5.9-.3,8.6-1.8,2.4-4.8,3.2-8.2,2.1-2.6-.8-4.8-3.7-5-6.6-.2-2.9,1.8-6.1,4.3-7,3.7-1.3,7.1-.5,9,2.1.1.2.1.4.2.7-1.6-1.1-2.6-.3-3.7.9-.9,1-1.9,2.1-2.5,3.3-.6,1.1-1.1,1-1.6,0-.2-.4-.4-.7-.6-1.1-.3-.6-.3-1.4-1.3-1.2-.9.2-1,1-1,1.7,0,1.2,2.2,4.7,3.2,5.1.5.2,1,0,1.4-.2,2.7-2.4,4.7-5.3,6.2-8.5Z"/>
      <path class="cls-6" d="M57.7,99c-1.5,3.2-3.4,6.2-6.2,8.5-.4.3-.9.5-1.4.2-1-.4-3.2-3.9-3.2-5.1,0-.8.1-1.5,1-1.7,1-.3,1,.6,1.3,1.2.2.4.4.7.6,1.1.5,1,1.1,1.1,1.6,0,.6-1.2,1.6-2.3,2.5-3.3,1.1-1.2,2.1-1.9,3.7-.9,0,0,0,0,0,0Z"/>
      <path class="cls-5" d="M55.2,51.8c-.3,2.6.2,5.2.2,7.8,0,1.2-.3,1.8-1.6,1.7-3,0-6.1,0-9.1,0-1,0-1.5-.3-1.4-1.4.3-2-.9-4.3,1-6,0,2,1.5,3,2.8,4.2,1.2,1.1,2.3,1,3.2-.3,1.5-2.2,3.1-4.1,4.8-6.1Z"/>
      <path class="cls-5" d="M47.7,55.2c.1-.8-.5-1.5,0-2.3.2-.4.5-.9,0-1.3-.5-.4-1.2-.4-1.7,0-.6.4-1.1,1.1-1.9.5-.9-.7-.8-1.9-.8-2.9,0-.6.5-.6.9-.6,3.3,0,6.7.1,10,.2.5,0,1,0,1.1.7-1.3-.4-2,.3-2.6,1.3-1.1,1.7-2.1,3.4-3.5,4.7-.4-.2-.9-.4-1.4-.3h0Z"/>
      <path class="cls-6" d="M49.1,55.5c1.5-1.4,2.5-3.1,3.5-4.7.6-1,1.3-1.7,2.6-1.3.2.8.2,1.5-.1,2.3-1.7,2-3.4,3.9-4.8,6.1-.9,1.3-2,1.4-3.2.3-1.3-1.2-2.8-2.2-2.8-4.2.7-1.2,1.5-1,2.3,0,.4.4.7.8,1,1.3,0,0,0,0,0,0,.4.4.5,2,1.4.3Z"/>
      <path class="cls-5" d="M55.3,29.8c0,2.4,0,4.8,0,7.3,0,.9-.3,1.1-1.2,1.1-2.9-.1-5.8-1-8.8-.6-.8.1-1.3-.3-1.4-1.2-.4-2.7-.5-5.3-.4-8,0-.9.2-1.6,1.3-1.6,3.2,0,6.3,0,9.5,0,.5,0,1.1,0,1.3.8-1-.1-1.8.3-2.4,1-1.1,1.2-2.3,2.4-3.3,3.6-1.3,1.5-1.6,1.6-2.6-.2-.4-.7-1-1.3-1.7-.7-.6.5-1.2,1.3-.4,2.2,1,1.1,2,2.1,2.9,3.2.4.5.8.5,1.3.4.1,0,.3,0,.4,0,.2-.2.1-.4,0-.6h0c.9,0,.9-.6.8-1.3,1.2-2.2,2.7-4.2,5-5.4Z"/>
      <path class="cls-6" d="M49.2,37.1c-.5.1-.9.1-1.3-.4-.9-1.1-2-2.2-2.9-3.2-.8-.9-.2-1.7.4-2.2.7-.6,1.3,0,1.7.7,1,1.8,1.3,1.8,2.6.2,1.1-1.3,2.2-2.4,3.3-3.6.6-.7,1.4-1.1,2.4-1,0,.7,0,1.5-.1,2.2-2.3,1.3-3.7,3.2-5,5.4-.3.4-.8.7-.8,1.3,0,0,0,0,0,0-.3,0-.3.3-.4.6Z"/>
      <path class="cls-7" d="M-560.1,76.4c-9.7,0-19.4,0-29.2,0-.4,0-.9,0-1.3,0-.4-.1-1.5.8-1.2-.4.1-.5-.3-1.7,1.2-1.7,20.2.4,40.3.2,60.5,0,.2,0,.4,0,.5,0,1.1,0,1.4.6,1.4,1.5,0,1.1-.8.8-1.4.8-8.3-.4-16.5-.2-24.8-.1-1.9,0-3.9,0-5.8,0,0,0,0,0,0,0Z"/>
      <path class="cls-7" d="M-560,66.5c-10,0-19.9,0-29.9,0-.5,0-1.3.3-1.5-.3-.4-1.1.1-1.5,1.2-1.5,6.1-.1,12.1-.4,18.2-.5,13.2,0,26.4,0,39.6,0,.7,0,1.5,0,2.2,0,.8,0,1.9-.2,1.8,1.1,0,1.2-1.1.7-1.7.8-3.6,0-7.2.2-10.8.1-6.4,0-12.8-.2-19.1.1Z"/>
      <path class="cls-7" d="M-560.1,71.3c-10.1,0-20.3,0-30.4,0-1,0-1.4-.1-1.4-1.2,0-1.1.6-.9,1.3-.9,15.7.4,31.3.5,47,.3,4.1,0,8.3,0,12.4,0,.5,0,1.1,0,1.6,0,.8,0,1,.6,1,1.2,0,.7-.7.5-1.1.5-10.1,0-20.3,0-30.4,0,0,0,0,0,0-.1Z"/>
      <path class="cls-7" d="M-552.7,97.6c7.5,0,14.9,0,22.4,0,0,0,.1,0,.2,0,.8,0,1.7-.2,1.7,1,0,1.3-1,.9-1.6.9-3.9,0-7.8.2-11.7.1-11.1-.3-22.1.1-33.2,0-.6,0-1.5.5-1.7-.5-.2-.9-.4-1.7,1.2-1.7,7.5,0,15.1,0,22.6,0h0Z"/>
      <path class="cls-5" d="M-580.6,92.3c0,1.7,0,3.4,0,5.1,0,.9-.3,1.5-1.4,1.4-2.5-.3-5.1-.1-7.6.1-1.1,0-1.7-.2-1.8-1.4-.3-3.2-.2-6.4,0-9.6,0-.8.5-1,1.2-1,2.8,0,5.7,0,8.5-.4,1-.1,1.4.3,1.4,1.3,0,1.5,0,3,0,4.5,0,0-.1,0-.2,0ZM-582.9,89c-.9.8-1.8,1.2-2.2,1.8-.8,1.6-1.8,1.5-3,.6-.4-.3-.8-.7-1.3-.4-.4.3-.2.8-.2,1.2,0,.6.2,1.2.3,1.8.3,1.2,1.1,1.9,2.4,1.7,1.4-.1,2.9,0,3.3-1.8.3-1.5.7-2.9.7-4.9Z"/>
      <path class="cls-7" d="M-552.5,53.8c7.2,0,14.3,0,21.5,0,.5,0,1,0,1.5,0,.8,0,1.2.3,1.2,1.2,0,.9-.7.7-1.2.7-5.5.1-11,.2-16.6.3-9.6,0-19.2,0-28.8,0-.8,0-1.7.3-1.7-1.1,0-1.4.9-1,1.6-1,7.5,0,15,0,22.4,0,0,0,0,0,0,0Z"/>
      <path class="cls-7" d="M-552.5,89.5c-7.5,0-14.9-.5-22.4-.3-1,0-1.4-.2-1.4-1.3,0-1.3.8-1,1.4-.9,14.7.5,29.3,1,44,.7.5,0,1.1,0,1.6,0,.5,0,.7.5.7.9,0,.5-.2.8-.7.9-.7,0-1.3,0-2,.1-7.1.2-14.2,0-21.3-.2Z"/>
      <path class="cls-5" d="M-585.9,61.7c-1.5,0-3,0-4.5,0-.9,0-1.3-.4-1.2-1.3,0-2.3,0-4.6,0-6.9,0-.9.4-1.3,1.3-1.3,2.8,0,5.6,0,8.4,0,1,0,1.3.5,1.3,1.4,0,2.5,0,5.1-.2,7.6,0,.8-.5,1-1.2.9-1.3-.1-2.5-.1-3.8-.2,0,0,0,0,0,0ZM-583.2,55.8c0-.5.1-1.2-.5-1.5-.7-.3-1.1.4-1.5.8-.9,1-1.6,2.2-3,2.5-.9.2-.9.6-.9,1.2,0,.7.5.9,1.1,1,2.8.5,4.7-1.2,4.7-4Z"/>
      <path class="cls-7" d="M-552.7,59.1c7.5,0,15.1,0,22.6,0,.7,0,1.8-.4,1.7.9,0,1.2-1.1.9-1.7.9-6.9.1-13.7.2-20.6.2-8.3,0-16.5,0-24.8,0-.6,0-1.4.3-1.4-.9,0-1,.6-1,1.3-1,7.6,0,15.2,0,22.8,0,0,0,0,0,0-.1Z"/>
      <path class="cls-7" d="M-547.9,109.6c-1.4.5-2.5.5-3.5.5-12.6-.2-25.2.2-37.7.2-.4,0-.7,0-1.1,0-.5,0-1.1,0-1.1-.9,0-.8.4-.9,1.1-.9,4,0,8,0,12-.1,9-.1,18,0,27,.6,1,0,2,0,3.3.7Z"/>
      <path class="cls-7" d="M-552.8,92.8c7.5,0,15.1,0,22.6,0,.6,0,1.5-.4,1.5.9,0,1.3-.9.9-1.6.9-14.9,0-29.7-.2-44.6-.2-.3,0-.6,0-.9,0-.9,0-1.1-.3-1.1-1.1,0-1,.6-.8,1.2-.8,7.6,0,15.3,0,22.9,0,0,.1,0,.3,0,.4Z"/>
      <path class="cls-7" d="M-546.2,104c-1.2.8-2,.7-2.7.7-9.1.3-18.2.1-27.3,0-4.4,0-8.7.9-13.1.6-.7,0-2.2.7-2.2-.7,0-1.2,1.3-.6,2.1-.7,2.6-.1,5.2-.1,7.8-.2.9,0,1.8,0,2.7.3.9.4,1.6.6,1.9-.6.2-.6.8-.4,1.3-.4,8.6.2,17.1-.1,25.7.5,1.1,0,2.2.3,3.8.6Z"/>
      <path class="cls-7" d="M-556.2,114.1c-2.4.4-4.9.6-7.4.6-8.9,0-17.8.1-26.8.2-.5,0-.8.1-.9-.5,0-1,.6-.8,1.2-.8,8.3-.3,16.6-.3,24.9-.3,3,0,5.9,0,8.9,0v.8Z"/>
      <path class="cls-7" d="M-569.3,84.7c-1.9,0-3.9,0-5.8,0-.4,0-1.1.3-1.1-.4,0-.6.5-.8.9-.9,1.8-.4,3.6-.3,5.4-.4,2.1,0,4.1,0,6.2,0,.7,0,1.4.2,1.4,1.1,0,.8-.9.4-1.3.5-1.9,0-3.8,0-5.6,0,0,0,0,.1,0,.2Z"/>
      <path class="cls-5" d="M-534.4,104c2.1-.5,3.8-.3,5.5-.2,0,.2,0,.4,0,.6-1.7-.1-3.4-.3-5.5-.4Z"/>
      <path class="cls-6" d="M-582.7,43.6c-4.1,0-8.2-4.5-8.3-9,0-4.1,4.2-8.3,8.4-8.3,4.3,0,8.5,4.3,8.6,8.7,0,4.1-4.4,8.5-8.7,8.5ZM-588.7,34.6c0,3.7,2.8,6.7,6.1,6.7,3.3,0,6.5-3.4,6.5-6.7,0-2.6-4.2-6.4-6.8-6.4-2.2,0-5.7,4-5.7,6.4Z"/>
      <path class="cls-6" d="M-548.8,41.7c-6.1,0-11.6,0-17.1,0-.6,0-1.7.6-1.7-1,0-1.5.8-1.3,1.8-1.3,6.5,0,13,0,19.5,0,4.4.1,8.8.1,13.3-.1.8,0,2-.4,2,.9,0,1.3-1.2,1.1-2.1,1.2-5.5,0-10.9.6-15.7.4Z"/>
      <path class="cls-6" d="M-547.8,30.1c3.9.2,9.2,0,14.5,0,.5,0,1.1,0,1.6.1.6,0,.8.5.8,1,0,.5-.2.8-.7.9-.9.1-1.8.5-2.7.4-8.7-.7-17.4-.2-26.1-.4-1.9,0-3.8,0-5.6,0-.6,0-1.4.3-1.4-.8,0-1,.4-1.4,1.4-1.3,5.6,0,11.3,0,18.3,0Z"/>
      <path class="cls-5" d="M-421.3,84.8c2.2.1,4.3,2.4,4,4.5-.3,2-2.4,4.2-4.4,4.1-2.3-.2-3.9-1.9-3.8-4.2.1-2.6,1.9-4.5,4.2-4.4Z"/>
      <path class="cls-5" d="M-474.6,89.2c0,2-2.1,4.2-3.9,4.1-2.1,0-4-2.2-4-4.5,0-2,1.9-3.9,3.8-3.9,2.1,0,4.1,2.1,4.1,4.3Z"/>
      <path class="cls-7" d="M49.1,55.5c-.9,1.6-1,0-1.4-.3.5,0,1,.1,1.4.3Z"/>
      <path class="cls-7" d="M49.6,36.5c0-.6.4-.9.8-1.3.2.7.1,1.2-.8,1.3Z"/>
      <path class="cls-7" d="M49.2,37.1c0-.2,0-.5.4-.6.1.2.2.4,0,.6,0,0-.3,0-.4,0Z"/>
      <path class="cls-6" d="M-582.9,89c0,2-.3,3.5-.7,4.9-.4,1.9-2,1.7-3.3,1.8-1.3.1-2.1-.5-2.4-1.7-.1-.6-.2-1.2-.3-1.8,0-.4-.2-.9.2-1.2.5-.3.9.1,1.3.4,1.2,1,2.2,1.1,3-.6.3-.7,1.2-1.1,2.2-1.8Z"/>
      <path class="cls-6" d="M-583.2,55.8c0,2.8-1.9,4.5-4.7,4-.6,0-1.1-.2-1.1-1,0-.6,0-1.1.9-1.2,1.4-.2,2.1-1.5,3-2.5.4-.4.8-1.1,1.5-.8.6.3.4.9.5,1.5Z"/>
      <path class="cls-5" d="M-588.7,34.6c0-2.5,3.5-6.4,5.7-6.4,2.7,0,6.8,3.9,6.8,6.4,0,3.3-3.2,6.7-6.5,6.7-3.3,0-6-2.9-6.1-6.7ZM-586.1,33c-.8.2-.8.9-.5,1.4.6,1.5,1.5,2.9,2.7,4,.8.7,1.5.6,2.2-.2,1.2-1.6,2.4-3.1,3.6-4.7.2-.3.5-.7.2-1-.3-.4-.8-.3-1.2,0-.8.5-1.5,1-2,1.8-1.8,2.3-1.8,2.3-3.6-.1-.3-.5-.6-1.1-1.4-1.1Z"/>
      <path class="cls-6" d="M-586.1,33c.8,0,1,.6,1.4,1.1,1.8,2.4,1.8,2.4,3.6.1.6-.7,1.2-1.3,2-1.8.4-.2.9-.3,1.2,0,.3.3,0,.7-.2,1-1.2,1.6-2.4,3.2-3.6,4.7-.6.8-1.4.9-2.2.2-1.2-1.1-2.1-2.5-2.7-4-.2-.6-.3-1.2.5-1.4Z"/>
      <path d="M125.8,109.5c-.1,11-9.2,19.8-20.3,19.7-11-.1-19.9-9.2-19.7-20.4.2-10.9,9.2-19.7,20.2-19.6,11,.1,19.8,9.2,19.7,20.3ZM105.8,125c8.8,0,15.9-7.1,15.9-15.9,0-8.8-7.1-15.9-15.9-15.9-8.8,0-15.9,7.1-15.9,15.9,0,8.8,7.1,15.9,15.9,15.9Z"/>
      <path d="M104.2,103.1c0-2.3,0-4.5,0-6.8,0-1,.7-1.7,1.6-1.7,1,0,1.7.7,1.7,1.7,0,1.2,0,2.4,0,3.6,0,3,0,5.9,0,8.9,0,.2,0,.3.3.4,3.4,1.4,6.7,2.9,10.1,4.3.8.3,1.1,1.1.9,1.9-.2.8-.9,1.4-1.7,1.3-.2,0-.5-.1-.7-.2-3.5-1.5-7-3-10.5-4.5-.2,0-.3-.1-.5-.2-.9-.3-1.3-1-1.3-1.9,0-2.2,0-4.5,0-6.7Z"/>
      <path class="cls-3" d="M419.5,67.9c.3-10.7-9.3-20.6-22.5-20.5-10.6,0-19.2,10.2-19.2,20.7,0,11.6,9.4,20.3,22.6,20,11.4-.2,19.6-11.6,19.1-20.2Z"/>
      <path class="cls-3" d="M471.9,58.4c7.5-.1,15-.3,22.4,0,.8,0,1.7,0,2.6,0,1.4,0,.7-1.1.9-1.7.2-.7-.1-1.1-1-1.1-2.3,0-4.6-.3-6.9-.3-11,0-22-.2-33,.1-9.9.3-19.8-.2-29.7.2-1.6,0-1.7.6-1.8,1.9,0,1.6,1,1,1.7,1,6.9,0,13.8-.2,20.7-.2,8,0,16,0,24.1,0Z"/>
      <path class="cls-3" d="M461.2,76.2c0,0,0,.1,0,.2,8.9,0,10.6,0,19.5,0,2.8,0,5.6,0,8.4-.1.5,0,1.3.1,1.3-.6,0-.6,0-1.3-.4-1.7-.4-.6-1.2-.4-1.9-.4-7.9,0-8.5,0-16.4,0-14.9,0-29.9,0-44.8,0-1.5,0-1.3.7-1.4,1.6-.1,1.3.6,1.1,1.4,1.1,11.4,0,22.8,0,34.2,0Z"/>
      <path class="cls-3" d="M461.3,70.5h0c2.7-.1,5.5-.2,8.2-.1,8.7,0,10.1,0,18.8,0,.7,0,1.9.8,2.1-.8.2-1.8-1-1.8-2.2-1.8-.5,0-1,0-1.5,0-22.5,0-37.8,0-60.3,0-1.4,0-1.1.7-1.1,1.5,0,.9,0,1.4,1.2,1.3,11.6,0,23.2,0,34.8,0Z"/>
      <path class="cls-3" d="M461.3,79.7c-11.7-.3-23.3-.5-35-.1-.3,0-.6-.2-.8.3-.5,1.6,0,2.3,1.7,2.3,12.3,0,24.7,0,37,0,10.6,0,14,0,24.6,0,1.7,0,2-.6,1.3-2.1-.4-.9-1.1-.5-1.7-.5-11.5,0-15.7,0-27.2,0Z"/>
      <path class="cls-3" d="M463.5,64.5c4.4,0,8.4,0,12.5,0,6.7,0,13.5,0,20.2,0,.5,0,1.3.2,1.5-.6.1-.5.2-1.1-.2-1.6-.5-.6-1.2-.4-1.9-.4-6.4-.4-12.7,0-19.1-.1-16.6-.1-33.2-.2-49.7.2-.5,0-1.6-.7-1.4.8.1,1-.3,2.2,1.5,2,1.6-.2,3.3-.2,4.9-.2,10.7.3,21.4-.4,31.8-.1Z"/>
      <path class="cls-3" d="M384.7,116c0,.1,0,.2,0,.3,3.1,0,86.7,0,89.8,0,.7,0,1.5.3,1.7-.9.4-2-.3-3-2.3-3.3-.8-.1-1.6-.1-2.4-.1-4.8-.2-90.1-.4-94.9-.5-2.8,0-4.4-1.4-5.6-3.6-.7-1.3-1.1-2.7-1.2-4.1-.2-2.1-1.3-3.4-3.3-4.1-.6-.2-.9-.1-.9.6-.3,5.3.7,9.9,5.2,13.5,1.8,1.5,3.6,2.3,5.9,2.2,2.7-.1,5.3,0,8,0Z"/>
      <path class="cls-3" d="M460,87.4c.2-.1.2-.1.3-.1,0,0-.1,0-.1,0-1.6-.7-3.3-.9-5-1-9.5-.6-19.1-.4-28.6-.7-1.3,0-.9.9-1,1.4-.2,1.1.7.8,1.2.8,11.2.3,22.3,0,33.3-.4Z"/>
      <path class="cls-7" d="M470.1,112.4c8.8-1,17.6-1.1,26.5-1.5,5.1-.2,8.3-3.5,8.3-8.6,0-6.4,0-.8,0-7.3,0-30.8,0-7.8,0-38.5,0-2.5,0-5,0-7.5,0-5.8-4.1-9.6-9.9-9.4-8.6.2-17.3.2-25.9.2-28.1,0-56.2,0-84.3,0-2.3,0-4.6-.3-6.9,0-4.1.5-7.7,4.3-7.7,8.5,0,20.9,0,15.3,0,36.2,0,5.4,0,10.8,0,16.2,0,.9,0,1.4-1.1,1.8-1.2.4-2,1.7-3.2,2.9,0-2.1,0-4,0-5.9,0-24,0-21.5,0-45.5,0-3-.4-6,.2-8.9,1.1-5.6,6.8-9.7,13.3-9.9,6.5-.2,13,.7,19.5.3,3.9-.2,7.8-.7,11.6-.5,4.2.2,8.4.2,12.7.2,13.9,0,27.7-.2,41.6,0,10.6.2,21.3,0,31.9.2,8,.1,13.2,5.5,13.2,13.6,0,30.2-.1,6.5-.2,36.7,0,9.4,0,6.7,0,16,0,7-4.9,12.1-10.1,13.2-2.8.6-5.8.4-8.7.5-6.3.2-12.6.4-18.9.6q-2.2-.3-1.8-2.5c0-.4.1-.8.2-1.2Z"/>
      <path class="cls-7" d="M419.5,67.9c.5,8.6-7.7,20-19.1,20.2-13.1.3-22.5-8.4-22.6-20,0-10.5,8.6-20.6,19.2-20.7,13.2,0,22.8,9.8,22.5,20.5ZM399.4,50.5c-10.5-.6-18.7,8.3-18.4,18.3.2,8,6.5,16.2,16.9,16.3,9.1.1,18.3-5.8,18.3-16.4,0-10.1-7.3-18.1-16.8-18.2Z"/>
      <path class="cls-7" d="M462.7,116.1c-16.6-.6-33.2-.2-49.8,0-4.1,0-8.3.1-12.4,0-.9,0-2.1.3-2-1.3,0-1.3.3-2.4,1.9-2.5,2.3-.2,4.6-.6,6.9-.6,17.5-.1,35-.5,52.5,0,2.7,0,5.3,0,8,.8-.5,1.3.3,2.9-1.1,3.9-.4,0-.9,0-1.3,0-.9-.3-1.8-.3-2.7-.2Z"/>
      <path class="cls-7" d="M471.9,58.4c-8,0-16,0-24.1,0-6.9,0-13.8.1-20.7.2-.7,0-1.8.6-1.7-1,0-1.3.2-1.8,1.8-1.9,9.9-.4,19.8.1,29.7-.2,11-.3,22-.2,33-.1,2.3,0,4.6.2,6.9.3.8,0,1.1.4,1,1.1-.1.6.5,1.7-.9,1.7-.9,0-1.7,0-2.6,0-7.5-.4-15-.2-22.4,0Z"/>
      <path class="cls-7" d="M461.2,76.2c-11.4,0-22.8,0-34.2,0-.8,0-1.6.2-1.4-1.1.1-.9,0-1.6,1.4-1.6,14.9,0,29.9,0,44.8,0,7.9,0,8.5,0,16.4,0,.6,0,1.5-.2,1.9.4.3.5.4,1.2.4,1.7,0,.7-.8.6-1.3.6-2.8,0-5.6.1-8.4.1-8.9,0-10.6,0-19.5,0,0,0,0-.1,0-.2Z"/>
      <path class="cls-7" d="M461.3,70.5c-11.6,0-23.2,0-34.8,0-1.2,0-1.3-.5-1.2-1.3,0-.7-.2-1.5,1.1-1.5,22.5,0,37.8,0,60.3,0,.5,0,1,0,1.5,0,1.2,0,2.4,0,2.2,1.8-.2,1.6-1.4.8-2.1.8-8.7,0-10.1,0-18.8,0-2.7,0-5.5,0-8.2,0h0Z"/>
      <path class="cls-7" d="M461.3,79.7c11.5,0,15.7,0,27.2,0,.6,0,1.3-.3,1.7.5.7,1.5.4,2.1-1.3,2.1-10.6,0-14,0-24.6,0-12.3,0-24.7,0-37,0-1.7,0-2.1-.7-1.7-2.3.2-.6.4-.3.8-.3,11.7-.4,23.3-.2,35,.1Z"/>
      <path class="cls-7" d="M463.5,64.5c-10.4-.3-21.1.4-31.8.1-1.6,0-3.3,0-4.9.2-1.8.2-1.4-1-1.5-2-.2-1.6.9-.8,1.4-.8,16.6-.4,33.2-.3,49.7-.2,6.4,0,12.8-.3,19.1.1.6,0,1.4-.2,1.9.4.4.5.3,1.1.2,1.6-.2.9-1,.6-1.5.6-6.7,0-13.5,0-20.2,0-4.1,0-8.1,0-12.5,0Z"/>
      <path class="cls-7" d="M384.7,116c-2.7,0-5.3,0-8,0-2.3,0-4.1-.8-5.9-2.2-4.4-3.6-5.5-8.2-5.2-13.5,0-.7.3-.8.9-.6,2,.6,3.1,2,3.3,4.1.1,1.5.5,2.9,1.2,4.1,1.3,2.2,2.9,3.6,5.6,3.6,4.8,0,90.1.3,94.9.5.8,0,1.6,0,2.4.1,2,.3,2.7,1.3,2.3,3.3-.2,1.1-1,.9-1.7.9-3.1,0-86.7,0-89.8,0,0-.1,0-.2,0-.3Z"/>
      <path class="cls-7" d="M460,87.4c-11,.4-22.1.7-33.3.4-.5,0-1.4.3-1.2-.8.1-.5-.3-1.5,1-1.4,9.5.3,19.1.1,28.6.7,1.7.1,3.4.3,5,1,0,0,0,0,.1,0,0,0,0,0-.3.1Z"/>
      <path class="cls-4" d="M399.4,50.5c9.5,0,16.8,8.1,16.8,18.2,0,10.7-9.2,16.5-18.3,16.4-10.4-.1-16.7-8.3-16.9-16.3-.3-10.1,7.9-18.9,18.4-18.3ZM393.7,74.2c2.3,0,4.5,0,6.8,0,1.8,0,3.8-.7,4.8,1.8.4,1,1.7.8,2.8.6,1-.2,1.5-.6,1.2-1.6-.5-1.6.5-1.7,1.5-1.3,1.2.4,1.3-.2,1.3-1.1.2-2.3,0-4.5,0-6.7,0-1.1-.5-1.3-1.3-1.1-1.5.3-2.4-.4-3.2-1.5-1.2-1.6-2.5-3.3-3.7-4.9-.3-.4-.5-.9-1.1-.7-2.4.6-4.8.2-7.2,0-.4,0-.9-.3-1.1.2-.9,2.2-3,3.4-4.2,5.4-.6,1-1.4,1.6-2.6,1.5-1.2-.1-1.6.5-1.6,1.6,0,1.9,0,3.9-.1,5.8,0,1.3.4,1.8,1.7,1.6.8-.1,1.7-.3,1.8,1.1.1,1.5,1.2,2,2.6,1.8,1.4-.2,2.4-.9,1.9-2.5Z"/>
      <path class="cls-7" d="M387.9,106.9c-2.2,0-4.5,0-6.7,0-2,0-1.1-1.4-1.3-2.3-.2-1.2.5-1.2,1.4-1.1,4.7.4,9.3.1,14,.2.9,0,1.9-.3,1.9,1.3,0,1.5-.4,2.1-1.9,2.1-2.5,0-5,0-7.4,0,0,0,0-.2,0-.2Z"/>
      <path class="cls-7" d="M388,99.6c-2.3,0-4.6,0-6.9,0-.9,0-1.6-.2-1.4-1.3.2-.8-.3-1.9,1.4-1.9,4.6.1,9.2,0,13.8,0,1.2,0,1.7.3,1.9,1.6.2,1.2-.3,1.3-1.2,1.4-2.5.1-5.1.3-7.6.4,0,0,0,0,0,0Z"/>
      <path class="cls-7" d="M387.9,93.4c-2.3,0-4.6,0-6.9,0-.9,0-1.4-.2-1.3-1.2,0-.8,0-1.6,1.2-1.6,4.5,0,9.1-.4,13.6-.2,1.3,0,1.7.7,1.8,1.8,0,1.4-.9,1.3-1.8,1.3-2.2,0-4.4,0-6.5,0,0,0,0,0,0,0Z"/>
      <path class="cls-7" d="M414,106.9c-2.2,0-4.5,0-6.7,0-2,0-1.1-1.4-1.3-2.3-.2-1.2.5-1.2,1.4-1.1,4.7.4,9.3.1,14,.2.9,0,1.9-.3,1.9,1.3,0,1.5-.4,2.1-1.9,2.1-2.5,0-5,0-7.4,0,0,0,0-.2,0-.2Z"/>
      <path class="cls-7" d="M414.1,99.6c-2.3,0-4.6,0-6.9,0-.9,0-1.6-.2-1.4-1.3.2-.8-.3-1.9,1.4-1.9,4.6.1,9.2,0,13.8,0,1.2,0,1.7.3,1.9,1.6.2,1.2-.3,1.3-1.2,1.4-2.5.1-5.1.3-7.6.4,0,0,0,0,0,0Z"/>
      <path class="cls-7" d="M414,93.4c-2.3,0-4.6,0-6.9,0-.9,0-1.4-.2-1.3-1.2,0-.8,0-1.6,1.2-1.6,4.5,0,9.1-.4,13.6-.2,1.3,0,1.7.7,1.8,1.8,0,1.4-.9,1.3-1.8,1.3-2.2,0-4.4,0-6.5,0,0,0,0,0,0,0Z"/>
      <path class="cls-7" d="M393.7,74.2c.5,1.6-.5,2.3-1.9,2.5-1.4.2-2.5-.3-2.6-1.8,0-1.4-1-1.2-1.8-1.1-1.3.2-1.7-.3-1.7-1.6.1-1.9,0-3.9.1-5.8,0-1.1.4-1.7,1.6-1.6,1.2.1,2-.5,2.6-1.5,1.2-2,3.2-3.3,4.2-5.4.2-.5.8-.3,1.1-.2,2.4.2,4.8.6,7.2,0,.6-.1.8.3,1.1.7,1.2,1.6,2.5,3.3,3.7,4.9.8,1.1,1.8,1.8,3.2,1.5.9-.2,1.4,0,1.3,1.1,0,2.2.2,4.5,0,6.7,0,.9,0,1.5-1.3,1.1-1-.3-2-.3-1.5,1.3.3,1-.2,1.4-1.2,1.6-1.1.2-2.4.4-2.8-.6-1-2.5-3-1.8-4.8-1.8-2.2,0-4.5,0-6.8,0ZM392.6,64.1c4.5-.3,8.8.1,13.4.3-2.3-2-3.3-4.5-6.8-4.6-3.6-.1-4.8,1.9-6.6,4.3ZM391.8,70.7s0,0,0,0c.2,0,.5,0,.7,0,.6-.2,1.5.4,1.7-.6.2-.9-.4-1.5-1.1-1.9-.9-.4-1.8-.6-2.8-.3-.8.2-1.2.6-1.1,1.4,0,.5,0,1.2.7,1.3.7.1,1.3,0,2,.1ZM406.7,70.6h0c.4,0,.8,0,1.3,0,.5,0,1,.1,1.2-.5.1-.5,0-1-.4-1.4-.6-.9-3.7-.9-4.4,0-.3.4-.3.9-.2,1.4.1.5.5.7,1,.6.5,0,1,0,1.4,0Z"/>
      <path class="cls-4" d="M392.6,64.1c1.8-2.5,3.1-4.5,6.6-4.3,3.5.1,4.5,2.6,6.8,4.6-4.7-.1-8.9-.5-13.4-.3Z"/>
      <path class="cls-3" d="M391.8,70.7c-.7,0-1.3,0-2-.1-.7-.1-.6-.7-.7-1.3,0-.8.3-1.2,1.1-1.4,1-.3,1.9-.2,2.8.3.7.4,1.3,1,1.1,1.9-.2,1-1.1.4-1.7.6-.2,0-.5,0-.7,0,0,0,0,0,0,0Z"/>
      <path class="cls-3" d="M406.7,70.6c-.5,0-1,0-1.4,0-.5,0-.8-.2-1-.6-.1-.5-.2-1,.2-1.4.7-.8,3.7-.8,4.4,0,.3.4.5.9.4,1.4-.2.7-.7.5-1.2.5-.4,0-.8,0-1.3,0h0Z"/>
    </g>
  </g>
</svg>