<?xml version="1.0" encoding="UTF-8"?>
<svg xmlns="http://www.w3.org/2000/svg" version="1.1" viewBox="0 0 141.73 141.73">
  <!-- Generator: Adobe Illustrator 28.6.0, SVG Export Plug-In . SVG Version: 1.2.0 Build 709)  -->
  <g>
    <g id="Vrstva_1">
      <path d="M58.75,36.37c9.07,0,18.13-.01,27.2,0,4.7.01,6.81,1.98,6.83,6.62.06,14.21-.02,28.42.06,42.63.01,2.37-.93,2.86-3.07,2.84-9.52-.09-19.05-.07-28.57,0-1.85.01-2.79-.55-3.61-2.33-2.38-5.1-6.54-7.93-12.25-7.94-5.57,0-9.86,2.7-12.03,7.7-1.32,3.05-3.37,2.47-5.56,2.52-2.11.05-3.56-1-4.16-2.94-.67-2.2.39-3.81,2.33-4.79,1.8-.91,1.3-2.52,1.3-3.93.03-12.26.1-24.53-.04-36.79-.03-2.87.83-3.71,3.69-3.66,9.29.17,18.59.06,27.88.06Z" fill="#2ca55a"/>
      <path d="M-256.18,95.09c-5.05,0-10.11-.05-15.16.02-1.93.03-2.78-.23-2.61-2.65.65-9.19-5.86-16.63-14.59-17.06-8.56-.42-15.43,6.16-15.94,15.42-.11,1.93-.34,2.65-2.57,1.97-7.09-2.14-9.64-5.31-9.48-12.65.07-3.09.28-6.18.66-9.25.52-4.22,1.99-6.14,6.2-6.59,5.05-.54,8.69-3.26,12.34-6.27,5.44-4.48,11.05-8.87,18.29-9.72,9.72-1.13,19.51-1.28,29.07,1.19,6.56,1.7,11.43,6.26,16.05,10.89,2.17,2.18,4.5,3.16,7.5,3.54,6.63.82,13.09,2.4,19.04,5.61,5.13,2.77,8.5,6.53,7.78,12.89-.26,2.26-.03,4.58-.05,6.88-.04,3.74-3.64,6.52-7.22,5.63-1.81-.45-1.01-1.72-.97-2.76.29-6.71-2.42-11.86-8.36-15.01-5.6-2.97-11.13-2.35-16.18,1.43-4.35,3.26-6.52,7.75-5.96,13.17.31,2.99-.83,3.45-3.4,3.36-4.82-.16-9.64-.05-14.47-.05ZM-254.09,63.27s0-.05,0-.08c2.63,0,5.27.04,7.9-.02,1.02-.02,2.17-.16,2.62-1.27.47-1.16-.5-1.88-1.15-2.66-4.93-5.95-11.69-7.16-18.87-7.26-1.99-.03-2.53,1.1-2.26,2.93,1.14,7.7,1.88,8.36,9.7,8.36.69,0,1.37,0,2.06,0ZM-281.18,63.24v.03c1.49,0,2.98-.04,4.46.01,1.76.06,3.13-.54,2.84-2.47-.43-2.89,1.56-6.21-1.41-8.62-.34-.28-1.12-.13-1.66-.01-3.97.88-7.58,2.54-10.71,5.16-1.12.94-1.94,2.02-1.44,3.56.53,1.63,1.86,2.26,3.45,2.33,1.49.07,2.98.01,4.46.01Z" fill="#2ca55a"/>
      <path d="M628.55,70.79c0,2.28.11,4.12-.04,5.95-.1,1.21.88,3.05-1.14,3.45-1.73.34-1.75-1.48-2.31-2.5-3.72-6.72-9.28-10.74-17.05-11.13-10.36-.53-19.5,7.18-20.76,17.63-.3,2.51-1.23,3.16-3.42,2.93-.45-.05-.92,0-1.38,0-2.76.02-5.78.76-8.2-.13-2.92-1.07-1.57-4.8-2.53-7.26-4.29-10.97-16.33-16.21-27.15-11.29-2.4,1.09-3.6.91-4.06-1.75-.02-.11-.06-.22-.1-.33-2.37-6.62-.95-5.57-7.99-6.09-.8-.06-1.61-.12-2.41-.09-2.88.08-5.34-.21-5.28-4.08.07-4.47,1.21-5.77,5.52-6.08,8.6-.63,16.89,1.01,25.15,3.15,9.11,2.37,18.3,4.4,27.41,6.77,2.2.57,3.15-.06,3.92-1.95,1.42-3.5,3-6.94,4.41-10.44.36-.9.8-1.63,1.61-2.13.81-.5,2.15-.68,1.36-2.19-.59-1.13-1.46-1.74-2.77-1.61-2.63.26-5.25.53-7.88.79-2.29.23-4.28-.19-4.56-2.91-.28-2.74,1.6-3.52,3.88-3.75.91-.09,1.87,0,2.74-.25,7.51-2.14,13.15-.16,16.52,7.2.6,1.31,1.81,1.75,3.33,2.01,9.97,1.72,16.75,8.07,22.1,16.06,2.06,3.07.6,6.98,1.05,10.04Z" fill="#2ca55a"/>
      <path d="M402.21,77.52c-11.48,0-22.96,0-34.43,0-1.15,0-2.32.1-3.43-.11-2.81-.52-4.68-2.14-4.46-5.16.2-2.78,2.02-4.31,4.78-4.48,2.17-.14,4.36-.05,6.54-.05,9.3,0,18.6-.06,27.89.04,2.19.02,3.64-.69,4.92-2.44,4.81-6.56,9.76-13.03,14.6-19.57,3.41-4.61,7.39-6.04,12.94-4.44,4.19,1.21,8.37,2.44,12.52,3.79,7.45,2.42,11.9,9.25,11.37,17.27-.48,7.18-5.96,13.21-13.32,14.73-2.62.54-5.25.42-7.89.43-10.67.01-21.35,0-32.02,0Z" fill="#2ca55a"/>
      <path d="M264.62,68.6c-5.28,0-10.56-.07-15.84.04-1.84.04-2.85-.64-3.82-2.19-8.23-13.15-19.83-18.26-35.18-15.52-2.27.41-2.58-.16-2.09-2.24,1.39-5.91,2.63-11.86,3.88-17.8.18-.86,1.2-2.23-.51-2.49-2.5-.38-2.11-2.05-1.88-3.6.29-1.93,1.48-3.04,3.54-3.04,3.21,0,6.43,0,9.64,0,7.57,0,15.15.01,22.72-.01,1.83,0,3.66.15,4.12,2.23.35,1.62,1.25,3.68-1.49,4.5-1.31.39-.64,1.53-.42,2.33,1.56,5.63,3.21,11.24,4.71,16.88.49,1.85,1.72,2.17,3.31,2.33,6.85.66,13.7,1.4,20.55,2.06,5.76.55,7.69,2.59,7.72,8.33q.04,8.21-8.29,8.21c-3.56,0-7.12,0-10.67,0ZM231.31,28.29c-1.84,0-3.68.02-5.51,0-2.65-.04-4.11,1.09-4.06,3.89.05,2.75.06,5.51-.01,8.26-.04,1.69.57,3.16,2.15,3.53,4.97,1.15,9.54,3.23,14.11,5.39.97.46,2.26.41,3.39.35,2.75-.15,3.97-1.58,3.23-4.35-.8-2.99-1.55-6-2.47-8.95-2.91-9.27-1.08-8-10.83-8.1Z" fill="#2ca55a"/>
      <path d="M-89.79,96.19c-3.22,0-6.44.08-9.65-.03-3.77-.13-6.28-2.4-6.59-6.17-.22-2.73-.24-5.52.04-8.25.72-6.99,5.65-11.4,13.18-12.09,7.68-.7,13.17-5.19,15.09-12.43.96-3.6.86-7.08-1.87-9.99-1.77-1.9-.74-2.74,1.14-3.37,6.75-2.25,19.41,1.57,23.58,7.3,2.68,3.68,2.03,8.16.92,11.89-.77,2.59-4.27,3.6-7.53,3.77-12.87.68-21.26,13.73-16.83,26.17.92,2.59.75,3.44-2.18,3.24-3.09-.21-6.2-.05-9.3-.05Z" fill="#2ca55a"/>
      <path d="M216.88,62.37c10.99-.07,20.08,9.1,20.05,20.2-.03,10.96-8.98,20.06-19.79,20.14-10.92.08-20.08-9.15-20.07-20.23.02-10.95,8.97-20.05,19.81-20.11ZM217.11,74.69c-4.33-.05-7.96,3.45-8.02,7.73-.05,4.18,3.64,7.98,7.82,8.03,4.15.05,7.97-3.67,8.05-7.83.08-4.16-3.61-7.89-7.85-7.93Z" fill="#303030"/>
      <path d="M384.61,79.47c4.47,0,8.95-.07,13.42.02,6.41.13,11.27,4.89,11.33,10.98.06,6.11-4.64,11.11-11.08,11.25-9.17.19-18.35.2-27.52,0-6.43-.14-11.04-5.16-10.95-11.34.09-6.11,4.9-10.77,11.38-10.89,4.47-.08,8.94-.02,13.42-.02ZM384.68,86.88c-4.12,0-8.24.02-12.35,0-2.7-.02-5,.71-4.91,3.87.08,2.94,2.33,3.6,4.86,3.6,8.24,0,16.47,0,24.71,0,2.57,0,4.72-.79,4.75-3.72.02-2.94-2.12-3.75-4.7-3.75-4.12,0-8.24,0-12.35,0Z" fill="#303030"/>
      <path d="M-128.17,50.19c5.05-.99,8.4,2.66,11.84,6.06,5.14,5.07,14.12,5.63,19.99,1.29,4.01-2.96,8.55-4.17,13.55-4.07,2.24.04,2.44.91,2.04,2.72-1.18,5.33-5.78,9.85-11.22,10.11-5.75.28-10.48,2.19-14.02,6.74-.93,1.2-1.8.98-2.97.45-7.58-3.44-15.18-6.83-22.77-10.23-2.18-.98-3.76-2.49-4.6-4.79-1.8-4.91.37-8.21,5.54-8.27.69,0,1.38,0,2.62,0Z" fill="#303030"/>
      <path d="M96.67,81.77c0-5.81,0-11.15,0-16.49,0-3.67.06-7.34-.03-11-.04-1.71.43-2.49,2.3-2.46,4.93.09,9.87.06,14.8.03,2.38-.02,3.77,1.41,4.97,3.17,4.53,6.65,8.15,13.55,7.08,22.05-.33,2.6-.06,5.27-.05,7.9,0,1.64.15,3.4-2.13,3.62-1.91.18-3.58.4-4.68-2.14-3.16-7.24-10.86-10.25-17.68-7.23-1.42.63-2.72,1.5-4.6,2.56ZM111.18,64.89c1.15,0,2.3.09,3.44-.02,1.75-.17,4.26.91,5.07-.61.79-1.49-1.18-3.26-2.19-4.73-1.16-1.7-1.65-4.24-4.45-4.25-2.98-.02-5.96.03-8.94-.03-1.43-.03-1.95.49-2.09,1.97-.73,7.57-.68,7.67,6.75,7.67.8,0,1.61,0,2.41,0Z" fill="#303030"/>
      <path d="M552.74,70.95c8.78-.06,15.96,7.13,15.94,15.97-.02,8.71-7.01,15.87-15.6,15.98-8.79.11-16.01-6.97-16.12-15.8-.11-8.83,6.98-16.08,15.77-16.14ZM559.67,87.35c.24-3.84-2.75-7.19-6.57-7.37-3.64-.16-6.89,2.79-7.11,6.48-.24,3.87,2.74,7.2,6.57,7.36,3.68.16,6.88-2.76,7.11-6.48Z" fill="#303030"/>
      <path d="M591.3,86.82c.03-8.92,7.12-15.96,15.98-15.87,8.69.09,15.6,7.1,15.63,15.88.04,8.89-7.02,16.06-15.81,16.06-8.79,0-15.83-7.16-15.8-16.06ZM613.98,87.06c.08-3.82-3.12-7.11-6.9-7.09-3.66.01-6.75,3.08-6.85,6.78-.1,3.83,3.08,7.1,6.89,7.08,3.69-.02,6.79-3.07,6.86-6.77Z" fill="#303030"/>
      <path d="M258.81,87.15c.02-8.48,6.82-15.35,15.23-15.39,8.51-.04,15.48,7.07,15.34,15.65-.14,8.41-7.23,15.44-15.42,15.31-8.36-.14-15.17-7.14-15.15-15.56ZM274.03,80.88c-3.49.04-6.31,2.98-6.21,6.48.1,3.54,2.97,6.23,6.52,6.11,3.36-.11,6-2.85,6.01-6.24,0-3.54-2.83-6.38-6.32-6.35Z" fill="#303030"/>
      <path d="M434.39,102.05c-3.9,0-7.8-.01-11.7,0-2.49.01-4.4-.84-4.48-3.6-.09-2.95,1.89-3.91,4.52-3.95.69-.01,1.38-.03,2.06,0,2.41.1,2.88-.66,1.41-2.71-2.4-3.35-4.62-6.83-6.98-10.21-1.1-1.57-1.21-2.48,1.12-2.32.11,0,.23,0,.34,0q8.77-.3,13.57,7.08c.81,1.25,1.5,2.6,2.45,3.73,1.27,1.51,1.5,4.2,4,4.34,3.64.2,7.39.58,10.68-1.64,2.05-1.38,3.06-3.39,3.2-5.81.16-2.68,1.35-4.63,4.13-4.41,3.03.24,3.7,2.55,3.45,5.3-.73,7.96-7.43,13.83-16.41,14.15-3.78.14-7.57.02-11.36.03Z" fill="#303030"/>
      <path d="M-76.4,86.39c-.06-8.88,7.19-16.31,16-16.42,9.07-.11,16.44,7.12,16.53,16.21.09,8.92-7.47,16.57-16.33,16.52-8.69-.05-16.15-7.56-16.21-16.31ZM-50.16,86.14c-.09-5.48-4.74-10.04-10.15-9.93-5.33.1-9.98,5-9.82,10.34.16,5.34,4.7,9.72,10.05,9.69,5.51-.03,10.02-4.61,9.93-10.1Z" fill="#303030"/>
      <path d="M-114.09,75.27c-3.32.67-6.28,1.97-9.74,1.13-4.25-1.03-8.7,1.5-10.76,5.65-1.81,3.65-.92,8.44,2.12,11.39,3.16,3.06,8.1,3.89,11.71,1.45,3.02-2.04,6.36-2.26,9.73-2.95-.88,5.57-7.11,10.32-13.87,10.74-7.19.45-14.48-4.99-16.39-12.23-1.93-7.3,1.59-15.25,8.25-18.65,6.64-3.39,14.38-2.07,18.95,3.47Z" fill="#303030"/>
      <path d="M-211.49,90.96c0,6.55-5.34,11.94-11.75,11.87-6.42-.07-11.67-5.54-11.58-12.06.09-6.43,5.23-11.59,11.6-11.66,6.47-.07,11.74,5.25,11.73,11.85ZM-219.34,90.97c-.19-2.23-1.37-3.67-3.6-3.77-2.42-.11-3.94,1.34-3.97,3.7-.03,2.37,1.5,3.86,3.89,3.79,2.2-.06,3.45-1.47,3.68-3.72Z" fill="#303030"/>
      <path d="M-277.5,90.96c0,6.49-5.42,11.94-11.8,11.87-6.36-.07-11.75-5.65-11.63-12.07.11-6.39,5.31-11.58,11.66-11.66,6.43-.08,11.78,5.31,11.77,11.86ZM-285.47,90.97c-.11-2.26-1.31-3.69-3.58-3.77-2.47-.09-3.91,1.44-3.88,3.84.02,2.26,1.49,3.67,3.74,3.65,2.23-.02,3.57-1.35,3.72-3.72Z" fill="#303030"/>
      <path d="M218.38,53.15c12.43.03,24.56,9.99,27.21,23.17.46,2.28-.08,3.86-2.46,4.46-2.52.63-3.01-.84-3.38-2.96-2.95-16.74-23.07-24.35-36.78-13.95-1.38,1.05-2.46,2.43-4.09.27-1.6-2.13-1.21-3.8.79-5.26,5.24-3.84,11.09-5.86,18.71-5.72Z" fill="#303030"/>
      <path d="M45.41,102.01c-5.61.03-10.25-4.61-10.28-10.27-.03-5.67,4.55-10.3,10.21-10.33,5.67-.02,10.24,4.54,10.26,10.25.02,5.7-4.53,10.32-10.18,10.35ZM45.29,87.01c-2.45.04-4.6,2.17-4.65,4.6-.05,2.58,2.2,4.82,4.82,4.77,2.53-.04,4.57-2.08,4.61-4.6.05-2.65-2.13-4.82-4.77-4.78Z" fill="#303030"/>
      <path d="M106.54,102.01c-5.65-.02-10.2-4.64-10.2-10.34,0-5.69,4.59-10.27,10.26-10.26,5.64.01,10.23,4.66,10.22,10.33,0,5.64-4.67,10.29-10.29,10.27ZM111.29,91.71c0-2.61-2.27-4.8-4.87-4.71-2.47.09-4.54,2.22-4.56,4.69-.02,2.59,2.27,4.79,4.88,4.7,2.48-.08,4.55-2.21,4.54-4.69Z" fill="#303030"/>
      <path d="M263.17,71.76c-5.47,4.91-8.09,10.16-7.67,16.65.12,1.91-1.1,1.64-2.21,1.64-3.78.02-7.55.06-11.32-.03-.88-.02-2.75.71-2.35-1.11.35-1.62-.75-4.2,2.18-4.71,1.23-.21,2.55-.22,3.67-.69,3.14-1.29,4.29-4.39,3.07-8.7-.69-2.44-.21-3.23,2.41-3.1,3.75.2,7.51.05,12.22.05Z" fill="#303030"/>
      <path d="M-109.2,82.86q-.16,5.18-5.25,6.14c-3.04.58-6.07,1.21-9.12,1.78-3.5.65-5.87-.57-6.54-3.31-.72-2.96.96-5.32,4.49-6.07,4.6-.97,9.26-1.66,13.81-2.81,2.75-.69,3.14.25,2.63,2.56-.12.55-.02,1.14-.02,1.71Z" fill="#303030"/>
    </g>
  </g>
</svg>